<?xml version="1.0" encoding="utf-8"?>
<!-- Generator: Adobe Illustrator 18.1.1, SVG Export Plug-In . SVG Version: 6.00 Build 0)  -->
<svg version="1.1" id="Layer_1" xmlns="http://www.w3.org/2000/svg" xmlns:xlink="http://www.w3.org/1999/xlink" x="0px" y="0px"
	 width="210px" height="60px" viewBox="0 0 210 60" enable-background="new 0 0 210 60" xml:space="preserve">
<path fill="#B2D78E" d="M33.8,6.2c-2.7,0-5.3,0.5-7.8,1.2C32,17.3,42.8,20.6,53.4,16C48.7,9.8,41.6,6.2,33.8,6.2z"/>
<path fill="#96BD6F" d="M46,13c-6.7-2.1-13.1-3.3-18.7-3.6c6.2,8.2,16.2,10.8,26.1,6.5c-0.1-0.1-0.1-0.1-0.2-0.2
	C51,14.7,48.5,13.9,46,13z"/>
<path fill="#B2D78E" d="M24.6,8.9C24.1,18.2,29,25.7,37.2,30c1.6-3.6,2.6-8,2.6-11.4C33.7,17.1,28.1,14.2,24.6,8.9z"/>
<path fill="#96BD6F" d="M27.5,12.3c-1-1-2-2.1-2.9-3.4C24.1,18.1,29,25.7,37.1,30c-1.9-5.1-4.9-10.7-8.8-16.2
	C28.1,13.2,27.8,12.7,27.5,12.3z"/>
<path fill="#7CA640" d="M33.9,4C19.5,4,8,15.6,8,30c0,7.1,3,13.6,7.5,18.3c4.7,4.8,11.2,7.6,18.3,7.6s13.6-3,18.3-7.5
	c4.7-4.7,7.5-11.2,7.5-18.3C59.9,15.6,48.2,4,33.9,4z M25.2,9.7c3.3,4.9,8,8.4,13.6,9.7c0,3.1-0.6,6.3-2.1,9.6
	C29.3,25.2,24.7,18.3,25.2,9.7z M57.7,30c0,6.5-2.6,12.4-7,16.8c-3.1,3.1-4.6,3.4-8.7,2c-1.7-1.5-2.6-3.5-2.7-5.7
	c-3.3-1.7-7.1-2.9-11.2-2.9c-3.7,0-7.2,0.9-10.4,2.4c1-0.7,2.1-1.2,3.2-1.7c-2.2-0.7-4.6-1-6.9-1c-0.6,0-1,0-1.6,0.1
	c-1.3-3.1-2.1-6.3-2.1-9.9c0-9,5-17,12.8-21.1c-1,10.5,5,18.8,14.7,23C40,28,40.9,23.9,40.9,20c4.1,0.5,8.6-0.1,13.1-2.1
	C56.4,21.2,57.7,25.5,57.7,30z M26.3,7.5c2.4-0.8,5-1.2,7.5-1.2c7.5,0,14.6,3.6,19,9.6C42.6,20.3,32.2,17.1,26.3,7.5z"/>
<path fill="#7CA640" d="M63.3,19.1l-4.1-2.3c-0.6-0.3-1.2-0.1-1.5,0.4c-0.3,0.6-0.1,1.2,0.4,1.5l1,0.6L48.5,37.7
	c-1.7-1-3.4-1.9-5.2-3c-4,6.6-4.4,11.7-0.5,15.2c1.3,0.5,2.6,0.6,3.9,0.3c3.3-0.6,6.3-3.4,9.1-8.4c-1.7-1-3.5-2.1-5.1-3.1l10.6-18.3
	l1,0.6c0.6,0.3,1.2,0.1,1.5-0.4C64,20.2,63.8,19.5,63.3,19.1z"/>
<path fill="#7CA640" d="M26.6,31.3c-0.3-0.6-1-0.8-1.5-0.4l-4.5,2.5l-11-18.9l0.9-0.5c0.6-0.3,0.8-1,0.4-1.5c-0.3-0.6-1-0.8-1.5-0.4
	l-1.8,1l-1.8,1c-0.6,0.3-0.8,1-0.4,1.5c0.3,0.6,1,0.8,1.5,0.4l0.9-0.5l10.9,18.9l-4.5,2.6c-0.6,0.3-0.8,1-0.4,1.5l1.6,2.9
	c0.3,0.6,1,0.8,1.5,0.4c0.6-0.3,0.8-1,0.4-1.5l-1-1.8l3.5-2l3.1,5.2c0.3,0.6,1,0.8,1.5,0.4c0.6-0.3,0.8-1,0.4-1.5l-3.1-5.2l3.5-2
	l4.7,8.1c0.3,0.6,1,0.8,1.5,0.4c0.6-0.3,0.8-1,0.4-1.5L26.6,31.3z"/>
<g>
	<path fill="#FFFFFF" d="M73.3,38.2V18.6h4.6v16h9.9v3.7C87.7,38.2,73.3,38.2,73.3,38.2z"/>
	<path fill="#FFFFFF" d="M97.3,38.6c-1.7,0-3.2-0.3-4.6-1c-1.2-0.7-2.3-1.5-3.1-2.9c-0.7-1.1-1-2.5-1-4c0-1.5,0.4-3,1-4.1
		c0.7-1.1,1.6-2.1,3-2.7c1.2-0.7,2.6-1,4.2-1c1.4,0,2.9,0.3,4,1c1.2,0.8,2.2,1.6,2.9,2.9c0.7,1.1,1,2.6,1,4.2c0,0.2,0,0.4,0,0.6
		s0,0.4-0.1,0.6H92.3v-2.5h10l-1.6,0.8c0-0.8-0.2-1.4-0.5-2s-0.8-1-1.3-1.3c-0.5-0.3-1.2-0.5-1.9-0.5S95.5,26.7,95,27
		c-0.5,0.3-1,0.8-1.3,1.3c-0.3,0.6-0.5,1.2-0.5,2.1v0.7c0,0.9,0.2,1.5,0.6,2.1s0.9,1,1.5,1.4c0.7,0.3,1.4,0.5,2.3,0.5
		c0.8,0,1.5-0.1,2.1-0.4s1.1-0.6,1.6-1l2.3,2.5c-0.7,0.8-1.5,1.3-2.6,1.8C99.9,38.2,98.7,38.6,97.3,38.6z"/>
	<path fill="#FFFFFF" d="M111.8,38.6c-1.1,0-2.2-0.2-3.1-0.6c-0.9-0.4-1.4-1-1.9-1.6c-0.5-0.7-0.7-1.4-0.7-2.3
		c0-0.9,0.2-1.6,0.7-2.3c0.5-0.7,1.1-1.1,2.1-1.5c1-0.4,2.2-0.6,3.8-0.6h4V32h-3.5c-1,0-1.7,0.2-2.1,0.5c-0.4,0.3-0.6,0.8-0.6,1.2
		c0,0.6,0.2,1,0.7,1.3c0.5,0.3,1,0.5,1.8,0.5s1.3-0.2,1.9-0.5c0.6-0.4,1-0.9,1.2-1.5l0.7,2c-0.3,1-0.9,1.7-1.7,2.2
		C114.2,38.2,113.2,38.6,111.8,38.6z M116.5,38.2v-3l-0.3-0.7v-5.3c0-1-0.3-1.6-0.9-2.2c-0.6-0.5-1.4-0.8-2.6-0.8
		c-0.8,0-1.5,0.1-2.4,0.4c-0.8,0.3-1.4,0.6-1.9,1l-1.5-3.1c0.9-0.6,1.8-1,3.1-1.3s2.3-0.5,3.6-0.5c2.3,0,4.1,0.6,5.3,1.6
		c1.2,1,1.9,2.9,1.9,5.1v8.7L116.5,38.2L116.5,38.2z"/>
	<path fill="#FFFFFF" d="M122.7,26.7v-3.4h10.5v3.4H122.7z M125,38.2V22.7c0-1.7,0.5-3.1,1.5-4.1c1-1,2.4-1.5,4.4-1.5
		c0.7,0,1.2,0.1,1.8,0.2s1,0.3,1.5,0.6l-1.1,3.2c-0.3-0.2-0.5-0.3-0.8-0.4s-0.6-0.1-1-0.1c-0.7,0-1.1,0.2-1.4,0.6
		c-0.4,0.4-0.5,0.9-0.5,1.6v1.3l0.1,1.8V38L125,38.2L125,38.2z"/>
	<path fill="#FFFFFF" d="M135.6,38.2V18.6h4.6v16h9.9v3.7C150.1,38.2,135.6,38.2,135.6,38.2z"/>
	<path fill="#FFFFFF" d="M157.2,38.6c-1.1,0-2.2-0.2-3.1-0.6c-0.9-0.4-1.4-1-1.9-1.6c-0.5-0.7-0.7-1.4-0.7-2.3
		c0-0.9,0.2-1.6,0.7-2.3c0.5-0.7,1.1-1.1,2.1-1.5c1-0.4,2.2-0.6,3.8-0.6h4V32h-3.6c-1,0-1.7,0.2-2.1,0.5c-0.4,0.3-0.6,0.8-0.6,1.2
		c0,0.6,0.2,1,0.7,1.3c0.5,0.4,1,0.5,1.8,0.5s1.3-0.2,1.9-0.5c0.6-0.4,1-0.9,1.2-1.5l0.7,2c-0.3,1-0.9,1.7-1.7,2.2
		C159.6,38.2,158.4,38.6,157.2,38.6z M161.8,38.2v-3l-0.3-0.7v-5.3c0-1-0.3-1.6-0.9-2.2c-0.6-0.5-1.4-0.8-2.6-0.8
		c-0.8,0-1.5,0.1-2.4,0.4c-0.8,0.3-1.4,0.6-1.9,1l-1.5-3.1c0.9-0.6,1.8-1,3.1-1.3c1.1-0.3,2.3-0.5,3.6-0.5c2.3,0,4.1,0.6,5.3,1.6
		c1.2,1,1.9,2.9,1.9,5.1v8.7L161.8,38.2L161.8,38.2z"/>
	<path fill="#FFFFFF" d="M179,22.9c1.1,0,2.2,0.2,3.2,0.7c1,0.5,1.6,1.1,2.2,2.2c0.6,1,0.8,2.2,0.8,3.8v8.7h-4.4v-7.9
		c0-1.2-0.3-2.1-0.8-2.7c-0.6-0.6-1.2-0.9-2.2-0.9c-0.7,0-1.3,0.1-1.8,0.4c-0.6,0.3-1,0.8-1.2,1.3c-0.3,0.6-0.5,1.3-0.5,2.3v7.4
		h-4.4V23.1h4.2v4.2l-0.8-1.2c0.6-1,1.3-1.7,2.3-2.3C176.5,23.2,177.8,22.9,179,22.9z"/>
	<path fill="#FFFFFF" d="M195.9,38.6c-1.4,0-2.7-0.3-3.9-1c-1.1-0.7-2-1.5-2.7-2.7c-0.7-1.1-1-2.5-1-4.1c0-1.5,0.3-3.1,1-4.2
		c0.7-1.1,1.5-2,2.7-2.7c1.1-0.7,2.4-1,3.9-1c1.2,0,2.4,0.3,3.4,0.9c1,0.6,1.6,1.4,2.2,2.5c0.5,1.1,0.8,2.6,0.8,4.4
		c0,1.7-0.3,3.2-0.8,4.4c-0.5,1.1-1.2,2-2.1,2.6C198.3,38.2,197.2,38.6,195.9,38.6z M196.7,34.9c0.7,0,1.3-0.2,1.9-0.5
		c0.6-0.3,1-0.8,1.3-1.4c0.4-0.6,0.5-1.3,0.5-2.2s-0.2-1.6-0.5-2.2c-0.4-0.6-0.8-1-1.3-1.4c-0.6-0.3-1.2-0.5-1.9-0.5
		c-0.8,0-1.3,0.2-1.9,0.5c-0.6,0.3-1,0.8-1.3,1.4c-0.4,0.6-0.5,1.3-0.5,2.2s0.2,1.6,0.5,2.2c0.4,0.6,0.8,1,1.3,1.4
		C195.2,34.8,195.9,34.9,196.7,34.9z M200.7,38.2v-3.1l0.1-4.5l-0.3-4.5v-8.9h4.4v20.9H200.7z"/>
</g>
</svg>
