<?xml version="1.0" encoding="utf-8"?>
<!-- Generator: Adobe Illustrator 18.1.1, SVG Export Plug-In . SVG Version: 6.00 Build 0)  -->
<svg version="1.1" id="Layer_1" xmlns="http://www.w3.org/2000/svg" xmlns:xlink="http://www.w3.org/1999/xlink" x="0px" y="0px"
	 width="210px" height="60px" viewBox="0 0 210 60" enable-background="new 0 0 210 60" xml:space="preserve">
<path fill="#B0D68C" d="M32.6,5.7c-2.8,0-5.4,0.5-8,1.3c6.2,10,17.1,13.4,27.8,8.8C47.8,9.4,40.4,5.7,32.6,5.7z"/>
<path fill="#95BC6E" d="M45,12.8c-6.8-2.2-13.3-3.3-19-3.6c6.3,8.4,16.4,10.9,26.5,6.6c-0.1-0.1-0.1-0.1-0.2-0.2
	C50,14.5,47.5,13.7,45,12.8z"/>
<path fill="#B0D68C" d="M23.2,8.5c-0.5,9.4,4.4,17,12.8,21.3c1.7-3.6,2.8-8.2,2.8-11.6C32.5,16.9,26.9,13.9,23.2,8.5z"/>
<path fill="#95BC6E" d="M26.2,12c-1.1-1-2.1-2.2-2.9-3.4c-0.5,9.3,4.4,17,12.7,21.3c-1.9-5.2-4.8-10.9-8.8-16.5
	C26.8,12.9,26.5,12.5,26.2,12z"/>
<path fill="#7CA540" d="M32.8,3.6C18.2,3.6,6.4,15.4,6.4,30c0,7.3,3,13.9,7.7,18.6s11.3,7.7,18.6,7.7s13.9-3,18.6-7.7
	s7.7-11.3,7.7-18.6C59,15.4,47.3,3.6,32.8,3.6z M23.8,9.4c3.3,4.9,8.2,8.5,13.9,9.8c0,3.1-0.6,6.4-2.2,9.7
	C27.9,25.2,23.4,18.1,23.8,9.4z M56.8,30c0,6.6-2.7,12.6-7.1,17c-3,3-4.6,3.4-8.8,2.1c-1.8-1.6-2.7-3.5-2.8-5.8
	c-3.3-1.8-7.3-2.9-11.3-2.9c-3.7,0-7.4,0.9-10.5,2.5c1.1-0.7,2.2-1.3,3.2-1.8c-2.3-0.7-4.6-1.1-7-1.1c-0.6,0-1.1,0-1.7,0.1
	C9.4,36.9,8.8,33.5,8.8,30c0-9,5-17.2,13-21.3c-0.9,10.7,5.1,19.2,15,23.4c2.3-4.2,3.2-8.5,3.2-12.3c4.1,0.5,8.7-0.1,13.3-2.2
	C55.5,21.1,56.8,25.4,56.8,30z M25,7.2c2.5-0.8,5-1.3,7.7-1.3c7.7,0,14.8,3.6,19.3,9.7C41.6,20.1,31,16.9,25,7.2z"/>
<path fill="#7CA540" d="M62.5,19l-4.1-2.4c-0.6-0.3-1.3-0.1-1.6,0.4c-0.3,0.6-0.1,1.3,0.4,1.6l1.1,0.6L47.5,37.9c-1.8-1-3.4-2-5.3-3
	c-4,6.7-4.4,11.9-0.5,15.3c1.4,0.5,2.7,0.6,3.9,0.3c3.3-0.6,6.4-3.4,9.1-8.5c-1.8-1.1-3.5-2.2-5.2-3.1l10.7-18.6l1.1,0.6
	c0.6,0.3,1.3,0.1,1.6-0.4C63.3,20,63.1,19.3,62.5,19z"/>
<path fill="#7CA540" d="M25.4,31.3c-0.3-0.6-1-0.8-1.6-0.4l-4.5,2.7L8.2,14.2l0.9-0.5c0.6-0.3,0.8-1,0.4-1.6c-0.3-0.6-1-0.8-1.6-0.4
	L6,12.9L4.1,14c-0.6,0.3-0.8,1-0.4,1.6c0.3,0.6,1,0.8,1.6,0.4l0.9-0.5l11.1,19.2l-4.5,2.7c-0.6,0.3-0.8,1-0.4,1.6l1.7,2.9
	c0.3,0.6,1,0.8,1.6,0.4c0.6-0.3,0.8-1,0.4-1.6L15,38.6l3.5-2.1l3,5.3c0.3,0.6,1,0.8,1.6,0.4c0.6-0.3,0.8-1,0.4-1.6l-3-5.3l3.5-2.1
	l4.7,8.3c0.3,0.6,1,0.8,1.6,0.4c0.6-0.3,0.8-1,0.4-1.6L25.4,31.3z"/>
<g>
	<path d="M72.6,38.3v-20h4.6v16.2h10v3.7H72.6z"/>
	<path d="M97,38.5c-1.8,0-3.2-0.3-4.6-1c-1.3-0.7-2.4-1.7-3-2.9c-0.7-1.2-1.1-2.6-1.1-4c0-1.6,0.4-3,1.1-4.1c0.7-1.2,1.7-2.2,3-2.8
		c1.3-0.7,2.7-1,4.2-1c1.5,0,2.9,0.3,4,1s2.2,1.6,2.9,2.8c0.7,1.2,1.1,2.7,1.1,4.2c0,0.2,0,0.4,0,0.6s0,0.4-0.1,0.6H91.9v-2.6H102
		l-1.7,0.8c0-0.8-0.2-1.5-0.5-2.1c-0.3-0.6-0.8-1.1-1.4-1.4c-0.6-0.3-1.3-0.5-2-0.5s-1.5,0.2-2,0.5s-1,0.8-1.4,1.4
		c-0.3,0.6-0.5,1.3-0.5,2.2V31c0,0.9,0.2,1.6,0.6,2.2s0.9,1.1,1.6,1.5c0.7,0.3,1.5,0.5,2.4,0.5c0.8,0,1.6-0.1,2.2-0.4
		c0.6-0.3,1.2-0.6,1.7-1.1l2.4,2.6c-0.7,0.8-1.6,1.4-2.7,1.9C99.6,38.3,98.4,38.5,97,38.5z"/>
	<path d="M111.6,38.5c-1.2,0-2.3-0.2-3-0.6c-0.9-0.4-1.5-1-2-1.7c-0.5-0.7-0.7-1.5-0.7-2.4c0-0.9,0.2-1.7,0.7-2.4
		c0.5-0.7,1.2-1.2,2.2-1.6c1-0.4,2.3-0.6,3.8-0.6h4V32H113c-1.1,0-1.8,0.2-2.2,0.5c-0.4,0.3-0.6,0.8-0.6,1.3c0,0.6,0.2,1,0.7,1.4
		s1.1,0.5,1.9,0.5s1.4-0.2,2-0.5c0.6-0.4,1-0.9,1.3-1.6l0.7,2.1c-0.3,1-0.9,1.8-1.8,2.3C114.1,38.3,113,38.5,111.6,38.5z
		 M116.4,38.3v-3l-0.3-0.7v-5.4c0-1-0.3-1.7-0.9-2.3c-0.6-0.5-1.5-0.8-2.7-0.8c-0.8,0-1.6,0.1-2.5,0.4c-0.8,0.3-1.5,0.6-2,1.1
		l-1.6-3.1c0.9-0.6,1.9-1.1,3-1.4s2.4-0.5,3.6-0.5c2.4,0,4.1,0.6,5.4,1.7c1.3,1.1,2,2.9,2,5.1v8.8L116.4,38.3L116.4,38.3z"/>
	<path d="M122.8,26.7v-3.4h10.6v3.4H122.8z M125.1,38.3V22.6c0-1.8,0.5-3.1,1.6-4.1c1.1-1,2.5-1.6,4.4-1.6c0.7,0,1.3,0.1,1.9,0.2
		c0.6,0.1,1.1,0.3,1.6,0.6l-1.2,3.2c-0.3-0.2-0.5-0.3-0.8-0.4c-0.3-0.1-0.6-0.1-1-0.1c-0.7,0-1.2,0.2-1.5,0.6
		c-0.4,0.4-0.5,0.9-0.5,1.7v1.4l0.1,1.9v12.3L125.1,38.3L125.1,38.3z"/>
	<path d="M135.9,38.3v-20h4.6v16.2h10v3.7H135.9z"/>
	<path d="M157.7,38.5c-1.2,0-2.3-0.2-3-0.6c-0.9-0.4-1.5-1-2-1.7c-0.5-0.7-0.7-1.5-0.7-2.4c0-0.9,0.2-1.7,0.7-2.4
		c0.5-0.7,1.2-1.2,2.2-1.6c1-0.4,2.3-0.6,3.8-0.6h4V32h-3.6c-1.1,0-1.8,0.2-2.2,0.5c-0.4,0.3-0.6,0.8-0.6,1.3c0,0.6,0.2,1,0.7,1.4
		c0.5,0.4,1.1,0.5,1.9,0.5c0.8,0,1.4-0.2,2-0.5c0.6-0.4,1-0.9,1.3-1.6l0.7,2.1c-0.3,1-0.9,1.8-1.8,2.3
		C160.1,38.3,159.1,38.5,157.7,38.5z M162.4,38.3v-3l-0.3-0.7v-5.4c0-1-0.3-1.7-0.9-2.3c-0.6-0.5-1.5-0.8-2.7-0.8
		c-0.8,0-1.6,0.1-2.5,0.4c-0.8,0.3-1.5,0.6-2,1.1l-1.6-3.1c0.9-0.6,1.9-1.1,3-1.4s2.4-0.5,3.6-0.5c2.4,0,4.1,0.6,5.4,1.7
		c1.3,1.1,2,2.9,2,5.1v8.8L162.4,38.3L162.4,38.3z"/>
	<path d="M179.9,22.8c1.2,0,2.3,0.2,3.2,0.7s1.7,1.2,2.3,2.3c0.6,1,0.8,2.3,0.8,3.8v8.8h-4.4v-8.1c0-1.3-0.3-2.2-0.8-2.8
		c-0.6-0.6-1.3-0.9-2.3-0.9c-0.7,0-1.4,0.1-1.9,0.4c-0.6,0.3-1,0.8-1.3,1.4c-0.3,0.6-0.5,1.4-0.5,2.4v7.6h-4.4V23h4.2v4.2l-0.8-1.3
		c0.6-1,1.4-1.8,2.4-2.4C177.4,23,178.5,22.8,179.9,22.8z"/>
	<path d="M196.9,38.5c-1.5,0-2.8-0.3-3.9-1c-1.2-0.7-2.1-1.6-2.8-2.8s-1-2.6-1-4.1c0-1.6,0.3-3,1-4.2c0.7-1.2,1.6-2.1,2.8-2.8
		c1.2-0.7,2.5-1,3.9-1c1.3,0,2.5,0.3,3.4,0.9s1.7,1.5,2.3,2.6c0.5,1.2,0.8,2.7,0.8,4.4c0,1.8-0.3,3.2-0.8,4.4s-1.3,2.1-2.2,2.7
		C199.5,38.2,198.3,38.5,196.9,38.5z M197.7,34.9c0.7,0,1.4-0.2,2-0.5c0.6-0.3,1.1-0.8,1.4-1.5c0.4-0.6,0.5-1.4,0.5-2.3
		s-0.2-1.7-0.5-2.3c-0.4-0.6-0.8-1.1-1.4-1.5c-0.6-0.3-1.3-0.5-2-0.5c-0.8,0-1.4,0.2-2,0.5s-1.1,0.8-1.4,1.5
		c-0.4,0.6-0.5,1.4-0.5,2.3s0.2,1.7,0.5,2.3c0.4,0.6,0.8,1.1,1.4,1.5C196.3,34.7,197,34.9,197.7,34.9z M201.8,38.3v-3.1l0.1-4.5
		l-0.3-4.5v-9h4.4v21.1H201.8z"/>
</g>
</svg>
