<?xml version="1.0" encoding="utf-8"?>
<!-- Generator: Adobe Illustrator 18.1.1, SVG Export Plug-In . SVG Version: 6.00 Build 0)  -->
<svg version="1.1" id="Layer_2" xmlns="http://www.w3.org/2000/svg" xmlns:xlink="http://www.w3.org/1999/xlink" x="0px" y="0px"
	 width="200px" height="200px" viewBox="0 0 200 200" enable-background="new 0 0 200 200" xml:space="preserve">
<g>
	<path fill="#92E3A9" d="M165.6,122.9c-6.3,12.8-17.6,26.1-31.3,28.6c-20.7,3.9-25.4,21.1-60.7,14.7c-5.5-1-10.5-2.5-15-4.5
		c-2.4-1.1-4.7-2.3-6.9-3.6c-19.5-12-27.7-33.7-25.7-55.1C28.4,75,48,64,60.6,57.8c12.6-6.3,30.5-34.6,65.3-28.7
		c5.3,0.9,10.5,2.4,15.5,4.6c11.3,5.1,22.2,14.4,27.7,26.6c0.4,0.9,0.8,1.9,1.1,2.8C177.1,81.6,174.2,105.4,165.6,122.9z"/>
	<path opacity="0.7" fill="#FFFFFF" d="M165.6,122.9c-6.3,12.8-17.6,26.1-31.3,28.6c-20.7,3.9-25.4,21.1-60.7,14.7
		c-5.5-1-10.5-2.5-15-4.5c-2.4-1.1-4.7-2.3-6.9-3.6c-19.5-12-27.7-33.7-25.7-55.1C28.4,75,48,64,60.6,57.8
		c12.6-6.3,30.5-34.6,65.3-28.7c5.3,0.9,10.5,2.4,15.5,4.6c11.3,5.1,22.2,14.4,27.7,26.6c0.4,0.9,0.8,1.9,1.1,2.8
		C177.1,81.6,174.2,105.4,165.6,122.9z"/>
</g>
<g>
	
		<line fill="none" stroke="#263238" stroke-width="0.3075" stroke-linecap="round" stroke-linejoin="round" stroke-miterlimit="10" x1="166.9" y1="162.2" x2="171.1" y2="162.2"/>
	
		<line fill="none" stroke="#263238" stroke-width="0.3075" stroke-linecap="round" stroke-linejoin="round" stroke-miterlimit="10" x1="26" y1="162.2" x2="163.9" y2="162.2"/>
</g>
<g opacity="0.2">
	<path d="M123.5,38.8c0.9,1,3.7,2.1,3.7,2.1c0,0,0.2-2.1,0.2-2.2c-0.1-1.5-1.1-4.4-2.7-4.9c-1.2-0.3-2.3,0.5-2.5,1.7
		C122,36.7,122.8,38,123.5,38.8z"/>
	<path d="M151.1,51.3c0,0,1.3-1.6,1.3-1.7c0.8-1.3,1.5-4.3,0.4-5.6c-0.8-0.9-2.2-0.8-3,0c-0.8,0.9-0.9,2.4-0.7,3.5
		C149.4,48.8,151.1,51.3,151.1,51.3z"/>
	<path d="M163.5,44.8c-1.5-0.8-4.2,0.5-5.4,1.5c-0.1,0.1-1.4,1.7-1.4,1.7c0,0,0,0,0,0c-0.4,0.2-0.9,0.4-1.4,0.7
		c-0.9,0.5-2,1-3.1,1.7c-1.1,0.7-2.3,1.5-3.4,2.4c-1.2,0.9-2.3,2-3.4,3.2c0,0,0,0,0,0c0.2-0.5,0.7-1.7,0.8-1.9
		c0.4-1.5,0.3-4.5-1.1-5.5c-1-0.7-2.3-0.2-2.9,0.8c-0.6,1.1-0.2,2.5,0.3,3.5c0.5,1.2,2.7,3,2.8,3.1c-1,1.2-2,2.5-2.8,3.8
		c-0.5,0.8-1,1.6-1.5,2.4c0.2-0.4,0.3-0.8,0.3-0.8c0.4-1.5,0.3-4.5-1.1-5.5c-1-0.7-2.3-0.2-2.9,0.8c-0.6,1.1-0.2,2.5,0.3,3.5
		c0.5,1,2.3,2.6,2.7,3c-0.2,0.3-0.4,0.6-0.5,0.9c-0.9,1.5-1.7,3-2.6,4.4c-0.3,0.5-0.6,1-1,1.5c0.1-0.4,0.3-0.7,0.3-0.7
		c0.4-1.5,0.3-4.5-1.1-5.5c-1-0.7-2.3-0.2-2.9,0.8c-0.6,1.1-0.2,2.5,0.3,3.5c0.5,1,2.1,2.5,2.7,2.9c-0.3,0.5-0.7,1-1,1.4
		c-0.3,0.3-0.5,0.6-0.7,0.9c-0.3,0.3-0.5,0.6-0.8,0.9c-0.5,0.5-1,1.1-1.5,1.6c-0.4,0.4-0.7,0.7-1,1c0.3-0.5,0.9-1.5,0.9-1.6
		c0.4-0.9,0.7-2.6,0.5-3.9c0.1-0.1,0.1-0.3,0.1-0.4c0.3-1.1-0.4-2.4-1.6-2.5c-1.7-0.2-3.8,2-4.4,3.4c0,0.1-0.4,1-0.6,1.6
		c0.1-0.4,0.1-0.7,0.2-1.1c0.1-0.7,0.2-1.5,0.3-2.3c0-0.4,0.1-0.8,0.1-1.2c0.1-0.4,0.1-0.8,0.1-1.2c0-0.9,0.1-1.9,0-2.9
		c0.6,0.1,2.9,0.5,4,0.2c1.1-0.3,2.4-0.9,2.9-2.1c0.5-1.1,0-2.4-1.2-2.7c-1.6-0.5-4,1.4-4.9,2.7c-0.1,0.1-0.6,1-0.9,1.6
		c0-0.6,0-1.2-0.1-1.8c-0.1-1.7-0.3-3.4-0.4-5.1c0-0.5-0.1-1-0.1-1.6c0.2,0,3,0.5,4.2,0.2c1.1-0.3,2.4-0.9,2.9-2.1
		c0.5-1.1,0-2.4-1.2-2.7c-1.6-0.5-4,1.4-4.9,2.7c-0.1,0.1-0.8,1.5-1,1.8c-0.1-1.2-0.2-2.3-0.2-3.4c0-1.6,0-3.1,0.2-4.6
		c0.1,0,2.9,0.5,4.2,0.2c1.1-0.3,2.4-0.9,2.9-2.1c0.5-1.1,0-2.4-1.2-2.7c-1.6-0.5-4,1.4-4.9,2.7c-0.1,0.1-0.6,1.1-0.9,1.7
		c-0.1,0,0,0-0.1,0c0.2-1.6,0.6-3.1,1-4.5c0.2-0.8,0.5-1.6,0.8-2.3c0.5,0.2,2.9,0.8,4.1,0.6c1.1-0.2,2.5-0.7,3.1-1.7
		c0.6-1,0.2-2.4-0.9-2.9c-1.6-0.7-4.2,1-5.2,2.1c-0.1,0.1-0.5,0.8-0.9,1.3c0.1-0.3,0.3-0.7,0.4-1c0.5-1.2,1-2.2,1.5-3.2
		c0.3-0.5,0.5-1,0.8-1.4c0.6-0.1,2.9-0.6,3.9-1.3c0.9-0.7,1.9-1.8,1.9-3c0-1.2-0.9-2.2-2.1-2.1c-1.7,0.1-3.3,2.8-3.6,4.2
		c0,0.1-0.3,2.2-0.3,2.2c0,0,0,0,0,0c-0.2,0.4-0.5,0.9-0.8,1.4c-0.5,0.9-1.1,2-1.6,3.1c-0.5,1.2-1.1,2.5-1.5,3.9
		c-0.5,1.4-0.9,2.9-1.1,4.5c0,0,0,0,0,0.1c-0.1-0.5-0.4-1.9-0.4-2c-0.5-1.4-2.2-4-3.9-4c-1.2,0-2.1,1.1-1.9,2.3
		c0.1,1.2,1.2,2.2,2.2,2.8c1.1,0.7,3.8,1,4.1,1c-0.2,1.5-0.3,3.1-0.3,4.7c0,0.9,0,1.9,0.1,2.8c-0.1-0.4-0.2-0.8-0.2-0.9
		c-0.5-1.4-2.2-4-3.9-4c-1.2,0-2.1,1.1-1.9,2.3c0.1,1.2,1.2,2.2,2.2,2.8c1,0.6,3.3,0.9,3.9,1c0,0.4,0,0.7,0.1,1.1
		c0.1,1.7,0.2,3.4,0.3,5.1c0,0.6,0,1.2,0,1.8c-0.1-0.4-0.1-0.7-0.2-0.7c-0.5-1.4-2.2-4-3.9-4c-1.2,0-2.1,1.1-1.9,2.3
		c0.1,1.2,1.2,2.2,2.2,2.8c0.9,0.6,3.1,0.9,3.8,1c0,0.6,0,1.2-0.1,1.8c0,0.4,0,0.8-0.1,1.2c-0.1,0.4-0.1,0.8-0.2,1.2
		c-0.1,0.7-0.2,1.5-0.4,2.2c-0.1,0.5-0.2,1-0.3,1.4c0-0.6-0.1-1.7-0.1-1.8c-0.2-1.5-1.6-4.3-3.3-4.5c-1.2-0.2-2.2,0.8-2.3,2
		c-0.1,1.2,0.8,2.4,1.7,3.1c1,0.8,3.5,1.5,3.8,1.6c-0.2,0.8-0.3,1.6-0.5,2.3c-0.6,2.5-1.1,4.5-1.6,5.9l1.1,0.5c0,0,0-0.1,0-0.1
		c0.4-1.5,0.9-3.6,1.5-6.1c0.2-0.8,0.3-1.7,0.5-2.5c0.2,0,1.4,0,2.6-0.1c0.4,1.2,2.1,3.1,2.3,3.3c-0.6,0.6-1.1,1.1-1.7,1.6
		c-1.8,1.7-3.4,3.1-4.6,4.1l1.2,0.5c1.1-1,2.5-2.3,4.1-3.9c0.6-0.6,1.2-1.2,1.8-1.8c0.3,0.2,2.5,1.7,3.7,1.9
		c1.1,0.2,2.6,0.2,3.5-0.7c0.9-0.8,1-2.2,0.1-3c-1.3-1.1-4.3-0.4-5.6,0.4c-0.1,0-0.9,0.6-1.3,1c0.3-0.3,0.5-0.5,0.8-0.8
		c0.5-0.5,1-1.1,1.5-1.7c0.2-0.3,0.5-0.6,0.8-0.9c0.3-0.3,0.5-0.6,0.7-1c0.6-0.8,1.1-1.6,1.6-2.4c0.5,0.4,2.2,2,3.3,2.4
		c1.1,0.4,2.5,0.5,3.5-0.1c1-0.7,1.3-2,0.5-3c-1.1-1.3-4.1-1.1-5.6-0.5c-0.1,0-1.1,0.6-1.6,0.8c0.3-0.5,0.6-1,0.9-1.5
		c0.9-1.5,1.7-3,2.5-4.5c0.3-0.5,0.5-0.9,0.8-1.4c0.2,0.2,2.2,2.1,3.4,2.5c1.1,0.4,2.5,0.5,3.5-0.1c1-0.7,1.3-2,0.5-3
		c-1.1-1.3-4.1-1.1-5.6-0.5c-0.1,0-1.5,0.8-1.8,1c0.6-1,1.1-2,1.7-3c0.8-1.3,1.7-2.6,2.7-3.8c0.1,0.1,2.2,2.1,3.4,2.5
		c1.1,0.4,2.5,0.5,3.5-0.1c1-0.7,1.3-2,0.5-3c-1.1-1.3-4.1-1.1-5.6-0.5c-0.1,0-1.2,0.6-1.6,0.9c0,0,0,0-0.1-0.1
		c1-1.2,2.2-2.3,3.3-3.2c0.7-0.5,1.3-1,2-1.5c0.3,0.4,2,2.3,3,2.8c1,0.5,2.5,0.8,3.5,0.3c1-0.5,1.5-1.9,0.8-2.9
		c-0.9-1.4-4-1.5-5.5-1.1c-0.1,0-0.9,0.3-1.4,0.6c0.3-0.2,0.6-0.4,0.9-0.6c1.1-0.7,2.1-1.3,3-1.8c0.5-0.3,1-0.5,1.5-0.8
		c0.6,0.2,2.8,1.1,4,1.1c1.1,0,2.6-0.4,3.3-1.4C164.8,46.8,164.6,45.4,163.5,44.8z"/>
</g>
<g opacity="0.2">
	<path d="M74.4,39.4c-0.9,1-3.7,2.1-3.7,2.1c0,0-0.2-2.1-0.2-2.2c0.1-1.5,1.1-4.4,2.7-4.9c1.2-0.3,2.3,0.5,2.5,1.7
		C76,37.3,75.2,38.6,74.4,39.4z"/>
	<path d="M46.9,51.8c0,0-1.3-1.6-1.3-1.7c-0.8-1.3-1.5-4.3-0.4-5.6c0.8-0.9,2.2-0.8,3,0c0.8,0.9,0.9,2.4,0.7,3.5
		C48.6,49.4,46.9,51.8,46.9,51.8z"/>
	<path d="M34.4,45.4c1.5-0.8,4.2,0.5,5.4,1.5c0.1,0.1,1.4,1.7,1.4,1.7c0,0,0,0,0,0c0.4,0.2,0.9,0.4,1.4,0.7c0.9,0.5,2,1,3.1,1.7
		c1.1,0.7,2.3,1.5,3.4,2.4c1.2,0.9,2.3,2,3.4,3.2c0,0,0,0,0,0c-0.2-0.5-0.7-1.7-0.8-1.9c-0.4-1.5-0.3-4.5,1.1-5.5
		c1-0.7,2.3-0.2,2.9,0.8c0.6,1.1,0.2,2.5-0.3,3.5c-0.5,1.2-2.7,3-2.8,3.1c1,1.2,2,2.5,2.8,3.8c0.5,0.8,1,1.6,1.5,2.4
		c-0.2-0.4-0.3-0.8-0.3-0.8c-0.4-1.5-0.3-4.5,1.1-5.5c1-0.7,2.3-0.2,2.9,0.8c0.6,1.1,0.2,2.5-0.3,3.5c-0.5,1-2.3,2.6-2.7,3
		c0.2,0.3,0.4,0.6,0.5,0.9c0.9,1.5,1.7,3,2.6,4.4c0.3,0.5,0.6,1,1,1.5c-0.1-0.4-0.3-0.7-0.3-0.7c-0.4-1.5-0.3-4.5,1.1-5.5
		c1-0.7,2.3-0.2,2.9,0.8c0.6,1.1,0.2,2.5-0.3,3.5c-0.5,1-2.1,2.5-2.7,2.9c0.3,0.5,0.7,1,1,1.4c0.3,0.3,0.5,0.6,0.7,0.9
		c0.3,0.3,0.5,0.6,0.8,0.9c0.5,0.5,1,1.1,1.5,1.6c0.4,0.4,0.7,0.7,1,1c-0.3-0.5-0.9-1.5-0.9-1.6c-0.4-0.9-0.7-2.6-0.5-3.9
		c-0.1-0.1-0.1-0.3-0.1-0.4c-0.3-1.1,0.4-2.4,1.6-2.5c1.7-0.2,3.8,2,4.4,3.4c0,0.1,0.4,1,0.6,1.6c-0.1-0.4-0.1-0.7-0.2-1.1
		c-0.1-0.7-0.2-1.5-0.3-2.3c0-0.4-0.1-0.8-0.1-1.2c-0.1-0.4-0.1-0.8-0.1-1.2c0-0.9-0.1-1.9,0-2.9c-0.6,0.1-2.9,0.5-4,0.2
		c-1.1-0.3-2.4-0.9-2.9-2.1c-0.5-1.1,0-2.4,1.2-2.7c1.6-0.5,4,1.4,4.9,2.7c0.1,0.1,0.6,1,0.9,1.6c0-0.6,0-1.2,0.1-1.8
		c0.1-1.7,0.3-3.4,0.4-5.1c0-0.5,0.1-1,0.1-1.6c-0.2,0-3,0.5-4.2,0.2c-1.1-0.3-2.4-0.9-2.9-2.1c-0.5-1.1,0-2.4,1.2-2.7
		c1.6-0.5,4,1.4,4.9,2.7c0.1,0.1,0.8,1.5,1,1.8c0.1-1.2,0.2-2.3,0.2-3.4c0-1.6,0-3.1-0.2-4.6c-0.1,0-2.9,0.5-4.2,0.2
		c-1.1-0.3-2.4-0.9-2.9-2.1c-0.5-1.1,0-2.4,1.2-2.7c1.6-0.5,4,1.4,4.9,2.7c0.1,0.1,0.6,1.1,0.9,1.7c0.1,0,0,0,0.1,0
		c-0.2-1.6-0.6-3.1-1-4.5c-0.2-0.8-0.5-1.6-0.8-2.3c-0.5,0.2-2.9,0.8-4.1,0.6c-1.1-0.2-2.5-0.7-3.1-1.7c-0.6-1-0.2-2.4,0.9-2.9
		c1.6-0.7,4.2,1,5.2,2.1c0.1,0.1,0.5,0.8,0.9,1.3c-0.1-0.3-0.3-0.7-0.4-1c-0.5-1.2-1-2.2-1.5-3.2c-0.3-0.5-0.5-1-0.8-1.4
		c-0.6-0.1-2.9-0.6-3.9-1.3c-0.9-0.7-1.9-1.8-1.9-3c0-1.2,0.9-2.2,2.1-2.1c1.7,0.1,3.3,2.8,3.6,4.2c0,0.1,0.3,2.2,0.3,2.2
		c0,0,0,0,0,0c0.2,0.4,0.5,0.9,0.8,1.4c0.5,0.9,1.1,2,1.6,3.1c0.5,1.2,1.1,2.5,1.5,3.9c0.5,1.4,0.9,2.9,1.1,4.5c0,0,0,0,0,0.1
		c0.1-0.5,0.4-1.9,0.4-2c0.5-1.4,2.2-4,3.9-4c1.2,0,2.1,1.1,1.9,2.3c-0.1,1.2-1.2,2.2-2.2,2.8c-1.1,0.7-3.8,1-4.1,1
		c0.2,1.5,0.3,3.1,0.3,4.7c0,0.9,0,1.9-0.1,2.8c0.1-0.4,0.2-0.8,0.2-0.9c0.5-1.4,2.2-4,3.9-4c1.2,0,2.1,1.1,1.9,2.3
		c-0.1,1.2-1.2,2.2-2.2,2.8c-1,0.6-3.3,0.9-3.9,1c0,0.4,0,0.7-0.1,1.1c-0.1,1.7-0.2,3.4-0.3,5.1c0,0.6,0,1.2,0,1.8
		c0.1-0.4,0.1-0.7,0.2-0.7c0.5-1.4,2.2-4,3.9-4c1.2,0,2.1,1.1,1.9,2.3c-0.1,1.2-1.2,2.2-2.2,2.8c-0.9,0.6-3.1,0.9-3.8,1
		c0,0.6,0,1.2,0.1,1.8c0,0.4,0,0.8,0.1,1.2c0.1,0.4,0.1,0.8,0.2,1.2c0.1,0.7,0.2,1.5,0.4,2.2c0.1,0.5,0.2,1,0.3,1.4
		c0-0.6,0.1-1.7,0.1-1.8c0.2-1.5,1.6-4.3,3.3-4.5c1.2-0.2,2.2,0.8,2.3,2c0.1,1.2-0.8,2.4-1.7,3.1c-1,0.8-3.5,1.5-3.8,1.6
		c0.2,0.8,0.3,1.6,0.5,2.3c0.6,2.5,1.1,4.5,1.6,5.9l-1.1,0.5c0,0,0-0.1,0-0.1c-0.4-1.5-0.9-3.6-1.5-6.1c-0.2-0.8-0.3-1.7-0.5-2.5
		c-0.2,0-1.4,0-2.6-0.1c-0.4,1.2-2.1,3.1-2.3,3.3c0.6,0.6,1.1,1.1,1.7,1.6c1.8,1.7,3.4,3.1,4.6,4.1l-1.2,0.5c-1.1-1-2.5-2.3-4.1-3.9
		c-0.6-0.6-1.2-1.2-1.8-1.8c-0.3,0.2-2.5,1.7-3.7,1.9c-1.1,0.2-2.6,0.2-3.5-0.7c-0.9-0.8-1-2.2-0.1-3c1.3-1.1,4.3-0.4,5.6,0.4
		c0.1,0,0.9,0.6,1.3,1c-0.3-0.3-0.5-0.5-0.8-0.8c-0.5-0.5-1-1.1-1.5-1.7c-0.2-0.3-0.5-0.6-0.8-0.9c-0.3-0.3-0.5-0.6-0.7-1
		c-0.6-0.8-1.1-1.6-1.6-2.4c-0.5,0.4-2.2,2-3.3,2.4c-1.1,0.4-2.5,0.5-3.5-0.1c-1-0.7-1.3-2-0.5-3c1.1-1.3,4.1-1.1,5.6-0.5
		c0.1,0,1.1,0.6,1.6,0.8c-0.3-0.5-0.6-1-0.9-1.5c-0.9-1.5-1.7-3-2.5-4.5c-0.3-0.5-0.5-0.9-0.8-1.4c-0.2,0.2-2.2,2.1-3.4,2.5
		c-1.1,0.4-2.5,0.5-3.5-0.1c-1-0.7-1.3-2-0.5-3c1.1-1.3,4.1-1.1,5.6-0.5c0.1,0,1.5,0.8,1.8,1c-0.6-1-1.1-2-1.7-3
		c-0.8-1.3-1.7-2.6-2.7-3.8c-0.1,0.1-2.2,2.1-3.4,2.5c-1.1,0.4-2.5,0.5-3.5-0.1c-1-0.7-1.3-2-0.5-3c1.1-1.3,4.1-1.1,5.6-0.5
		c0.1,0,1.2,0.6,1.7,0.9c0,0,0,0,0.1-0.1c-1-1.2-2.2-2.3-3.3-3.2c-0.7-0.5-1.3-1-2-1.5c-0.3,0.4-2,2.3-3,2.8c-1,0.5-2.5,0.8-3.5,0.3
		c-1-0.5-1.5-1.9-0.8-2.9c0.9-1.4,4-1.5,5.5-1.1c0.1,0,0.9,0.3,1.4,0.6c-0.3-0.2-0.6-0.4-0.9-0.6c-1.1-0.7-2.1-1.3-3-1.8
		c-0.5-0.3-1-0.5-1.5-0.8c-0.6,0.2-2.8,1.1-4,1.1c-1.1,0-2.6-0.4-3.3-1.4C33.2,47.4,33.4,46,34.4,45.4z"/>
</g>
<g>
	
		<path fill="none" stroke="#263238" stroke-width="0.3075" stroke-linecap="round" stroke-linejoin="round" stroke-miterlimit="10" d="
		M168.1,74.3v1.4c0,0.4-0.3,0.7-0.7,0.7s-0.7-0.3-0.7-0.7v-1.4H163v1.4c0,0.4-0.3,0.7-0.7,0.7c-0.4,0-0.7-0.3-0.7-0.7v-1.4h-3.8v1.4
		c0,0.4-0.3,0.7-0.7,0.7c-0.4,0-0.7-0.3-0.7-0.7v-1.4h-3.8v1.4c0,0.4-0.3,0.7-0.7,0.7c-0.4,0-0.7-0.3-0.7-0.7v-1.4h-3.8v1.4
		c0,0.2-0.1,0.3-0.2,0.5c-0.1,0.1-0.3,0.2-0.5,0.2c-0.4,0-0.7-0.3-0.7-0.7v-1.4h-1.8v18.1h25.3V74.3H168.1z M148.7,89.8h-2v-2h2
		V89.8z M148.7,87h-2v-2h2V87z M148.7,84.1h-2v-2h2V84.1z M148.7,81.2h-2v-2h2V81.2z M151.9,89.8h-2v-2h2V89.8z M151.9,87h-2v-2h2
		V87z M151.9,84.1h-2v-2h2V84.1z M151.9,81.2h-2v-2h2V81.2z M155,89.8h-2v-2h2V89.8z M155,87h-2v-2h2V87z M155,84.1h-2v-2h2V84.1z
		 M155,81.2h-2v-2h2V81.2z M158.2,89.8h-2v-2h2V89.8z M158.2,87h-2v-2h2V87z M158.2,84.1h-2v-2h2V84.1z M158.2,81.2h-2v-2h2V81.2z
		 M161.3,89.8h-2v-2h2V89.8z M161.3,87h-2v-2h2V87z M161.3,84.1h-2v-2h2V84.1z M161.3,81.2h-2v-2h2V81.2z M164.5,89.8h-2v-2h2V89.8z
		 M164.5,87h-2v-2h2V87z M164.5,84.1h-2v-2h2V84.1z M164.5,81.2h-2v-2h2V81.2z M167.6,89.8h-2v-2h2V89.8z M167.6,87h-2v-2h2V87z
		 M167.6,84.1h-2v-2h2V84.1z M167.6,81.2h-2v-2h2V81.2z"/>
	
		<path fill="none" stroke="#263238" stroke-width="0.3075" stroke-linecap="round" stroke-linejoin="round" stroke-miterlimit="10" d="
		M168.1,72.8v2.9c0,0.4-0.3,0.7-0.7,0.7s-0.7-0.3-0.7-0.7v-2.9c0-0.4,0.3-0.7,0.7-0.7c0.2,0,0.3,0.1,0.5,0.2
		C168,72.5,168.1,72.6,168.1,72.8z"/>
	
		<path fill="none" stroke="#263238" stroke-width="0.3075" stroke-linecap="round" stroke-linejoin="round" stroke-miterlimit="10" d="
		M163,72.8v2.9c0,0.4-0.3,0.7-0.7,0.7c-0.4,0-0.7-0.3-0.7-0.7v-2.9c0-0.4,0.3-0.7,0.7-0.7c0.2,0,0.3,0.1,0.5,0.2
		C162.9,72.5,163,72.6,163,72.8z"/>
	
		<path fill="none" stroke="#263238" stroke-width="0.3075" stroke-linecap="round" stroke-linejoin="round" stroke-miterlimit="10" d="
		M157.8,72.8v2.9c0,0.4-0.3,0.7-0.7,0.7c-0.4,0-0.7-0.3-0.7-0.7v-2.9c0-0.4,0.3-0.7,0.7-0.7c0.2,0,0.3,0.1,0.5,0.2
		C157.8,72.5,157.8,72.6,157.8,72.8z"/>
	
		<path fill="none" stroke="#263238" stroke-width="0.3075" stroke-linecap="round" stroke-linejoin="round" stroke-miterlimit="10" d="
		M152.7,72.8v2.9c0,0.4-0.3,0.7-0.7,0.7c-0.4,0-0.7-0.3-0.7-0.7v-2.9c0-0.4,0.3-0.7,0.7-0.7c0.2,0,0.3,0.1,0.5,0.2
		C152.7,72.5,152.7,72.6,152.7,72.8z"/>
	
		<path fill="none" stroke="#263238" stroke-width="0.3075" stroke-linecap="round" stroke-linejoin="round" stroke-miterlimit="10" d="
		M147.6,72.8v2.9c0,0.2-0.1,0.3-0.2,0.5c-0.1,0.1-0.3,0.2-0.5,0.2c-0.4,0-0.7-0.3-0.7-0.7v-2.9c0-0.2,0.1-0.3,0.2-0.5
		c0.1-0.1,0.3-0.2,0.5-0.2C147.3,72.2,147.6,72.5,147.6,72.8z"/>
</g>
<g>
	
		<path fill="none" stroke="#263238" stroke-width="0.3075" stroke-linecap="round" stroke-linejoin="round" stroke-miterlimit="10" d="
		M52.8,89.5c5.8-10.1-4.6-20.5-14.7-14.7c-1.2,0.7-2.1,1.6-2.8,2.8C29.6,87.7,40,98,50.1,92.2C51.2,91.6,52.2,90.6,52.8,89.5z"/>
	
		<path fill="none" stroke="#263238" stroke-width="0.3075" stroke-linecap="round" stroke-linejoin="round" stroke-miterlimit="10" d="
		M51.8,88.8c5.1-8.9-4-18.1-13-13c-1,0.6-1.9,1.4-2.5,2.5c-5.1,8.9,4,18.1,13,13C50.4,90.6,51.3,89.8,51.8,88.8z"/>
	
		<path fill="#263238" stroke="#263238" stroke-width="0.3075" stroke-linecap="round" stroke-linejoin="round" stroke-miterlimit="10" d="
		M44.9,84c0.4-0.8-0.4-1.7-1.2-1.2c-0.1,0.1-0.2,0.2-0.3,0.3c-0.4,0.8,0.4,1.7,1.2,1.2C44.7,84.2,44.8,84.1,44.9,84z"/>
	
		<polyline fill="none" stroke="#263238" stroke-width="0.3075" stroke-linecap="round" stroke-linejoin="round" stroke-miterlimit="10" points="
		47.3,85.1 44.1,83.5 38.8,89.3 	"/>
</g>
<g>
	
		<path fill="#263238" stroke="#263238" stroke-width="0.3075" stroke-linecap="round" stroke-linejoin="round" stroke-miterlimit="10" d="
		M133.5,159.7H67.7c-3.4,0-6.1-2.7-6.1-6.1V50.3c0-3.4,2.7-6.1,6.1-6.1h65.8c3.4,0,6.1,2.7,6.1,6.1v103.3
		C139.6,156.9,136.9,159.7,133.5,159.7z"/>
	
		<rect x="65.6" y="46.8" fill="#FFFFFF" stroke="#263238" stroke-width="0.3075" stroke-linecap="round" stroke-linejoin="round" stroke-miterlimit="10" width="70" height="108.4"/>
	<g>
		<g>
			<line fill="none" stroke="#263238" stroke-width="0.3075" stroke-miterlimit="10" x1="110.4" y1="74.9" x2="115.8" y2="74.9"/>
			<line fill="none" stroke="#263238" stroke-width="0.3075" stroke-miterlimit="10" x1="72.7" y1="74.9" x2="106.2" y2="74.9"/>
			<line fill="none" stroke="#263238" stroke-width="0.3075" stroke-miterlimit="10" x1="102.3" y1="79.2" x2="115.8" y2="79.2"/>
			<line fill="none" stroke="#263238" stroke-width="0.3075" stroke-miterlimit="10" x1="81.6" y1="79.2" x2="98.7" y2="79.2"/>
			<line fill="none" stroke="#263238" stroke-width="0.3075" stroke-miterlimit="10" x1="72.7" y1="79.2" x2="78.5" y2="79.2"/>
			<line fill="none" stroke="#263238" stroke-width="0.3075" stroke-miterlimit="10" x1="89.5" y1="83.4" x2="115.8" y2="83.4"/>
			<line fill="none" stroke="#263238" stroke-width="0.3075" stroke-miterlimit="10" x1="72.7" y1="83.4" x2="83.7" y2="83.4"/>
		</g>
		<circle fill="none" stroke="#263238" stroke-width="0.3075" stroke-miterlimit="10" cx="126.8" cy="78.8" r="4.6"/>
	</g>
	<g>
		<g>
			<line fill="none" stroke="#263238" stroke-width="0.3075" stroke-miterlimit="10" x1="78.1" y1="93.7" x2="72.7" y2="93.7"/>
			<line fill="none" stroke="#263238" stroke-width="0.3075" stroke-miterlimit="10" x1="115.8" y1="93.7" x2="82.3" y2="93.7"/>
			<line fill="none" stroke="#263238" stroke-width="0.3075" stroke-miterlimit="10" x1="86.2" y1="97.9" x2="72.7" y2="97.9"/>
			<line fill="none" stroke="#263238" stroke-width="0.3075" stroke-miterlimit="10" x1="106.9" y1="97.9" x2="89.9" y2="97.9"/>
			<line fill="none" stroke="#263238" stroke-width="0.3075" stroke-miterlimit="10" x1="115.8" y1="97.9" x2="110.1" y2="97.9"/>
			<line fill="none" stroke="#263238" stroke-width="0.3075" stroke-miterlimit="10" x1="99" y1="102.1" x2="72.7" y2="102.1"/>
			<line fill="none" stroke="#263238" stroke-width="0.3075" stroke-miterlimit="10" x1="115.8" y1="102.1" x2="104.8" y2="102.1"/>
		</g>
		<circle fill="none" stroke="#263238" stroke-width="0.3075" stroke-miterlimit="10" cx="126.8" cy="97.6" r="4.6"/>
	</g>
	<g>
		<g>
			<line fill="none" stroke="#263238" stroke-width="0.3075" stroke-miterlimit="10" x1="110.4" y1="112.5" x2="115.8" y2="112.5"/>
			<line fill="none" stroke="#263238" stroke-width="0.3075" stroke-miterlimit="10" x1="72.7" y1="112.5" x2="106.2" y2="112.5"/>
			<line fill="none" stroke="#263238" stroke-width="0.3075" stroke-miterlimit="10" x1="102.3" y1="116.7" x2="115.8" y2="116.7"/>
			<line fill="none" stroke="#263238" stroke-width="0.3075" stroke-miterlimit="10" x1="81.6" y1="116.7" x2="98.7" y2="116.7"/>
			<line fill="none" stroke="#263238" stroke-width="0.3075" stroke-miterlimit="10" x1="72.7" y1="116.7" x2="78.5" y2="116.7"/>
			<line fill="none" stroke="#263238" stroke-width="0.3075" stroke-miterlimit="10" x1="89.5" y1="120.9" x2="115.8" y2="120.9"/>
			<line fill="none" stroke="#263238" stroke-width="0.3075" stroke-miterlimit="10" x1="72.7" y1="120.9" x2="83.7" y2="120.9"/>
		</g>
		<circle fill="none" stroke="#263238" stroke-width="0.3075" stroke-miterlimit="10" cx="126.8" cy="116.4" r="4.6"/>
	</g>
	<g>
		
			<path fill="#263238" stroke="#263238" stroke-width="0.3075" stroke-linecap="round" stroke-linejoin="round" stroke-miterlimit="10" d="
			M106.5,35.1c-0.3,0-0.6-0.3-0.6-0.6v-3.4c0-0.7-0.6-1.3-1.3-1.3h-5.4c-0.7,0-1.3,0.6-1.3,1.3v3.4c0,0.3-0.3,0.6-0.6,0.6h0
			c-0.3,0-0.6,0.3-0.6,0.6v9.1h10.3v-9.1C107.1,35.4,106.9,35.1,106.5,35.1z M102,34.8c-0.9,0-1.7-0.7-1.7-1.7s0.7-1.7,1.7-1.7
			c0.9,0,1.7,0.7,1.7,1.7S102.9,34.8,102,34.8z"/>
		
			<path fill="#FFFFFF" stroke="#263238" stroke-width="0.3075" stroke-linecap="round" stroke-linejoin="round" stroke-miterlimit="10" d="
			M118.1,47.6H85.9v-1.2c0-2.5,2-4.5,4.5-4.5h23.3c2.5,0,4.5,2,4.5,4.5V47.6z"/>
		
			<path fill="#263238" stroke="#263238" stroke-width="0.3075" stroke-linecap="round" stroke-linejoin="round" stroke-miterlimit="10" d="
			M86.6,42.9h30.6c-0.6-0.6-1.3-1-2.2-1H88.9C88,41.9,87.2,42.3,86.6,42.9z"/>
		
			<rect x="85.9" y="47.6" fill="#FFFFFF" stroke="#263238" stroke-width="0.3075" stroke-linecap="round" stroke-linejoin="round" stroke-miterlimit="10" width="32.2" height="1.9"/>
	</g>
	<polyline fill="none" stroke="#92E3A9" stroke-width="1.8447" stroke-linecap="round" stroke-miterlimit="10" points="125,96.8 
		126.3,99 131,94.5 	"/>
	<polyline fill="none" stroke="#92E3A9" stroke-width="1.8447" stroke-linecap="round" stroke-miterlimit="10" points="125,77.9 
		126.3,80.1 131,75.5 	"/>
	<g>
		<g>
			<line fill="none" stroke="#263238" stroke-width="0.3075" stroke-miterlimit="10" x1="110.4" y1="56.4" x2="115.8" y2="56.4"/>
			<line fill="none" stroke="#263238" stroke-width="0.3075" stroke-miterlimit="10" x1="72.7" y1="56.4" x2="106.2" y2="56.4"/>
			<line fill="none" stroke="#263238" stroke-width="0.3075" stroke-miterlimit="10" x1="102.3" y1="60.6" x2="115.8" y2="60.6"/>
			<line fill="none" stroke="#263238" stroke-width="0.3075" stroke-miterlimit="10" x1="81.6" y1="60.6" x2="98.7" y2="60.6"/>
			<line fill="none" stroke="#263238" stroke-width="0.3075" stroke-miterlimit="10" x1="72.7" y1="60.6" x2="78.5" y2="60.6"/>
			<line fill="none" stroke="#263238" stroke-width="0.3075" stroke-miterlimit="10" x1="89.5" y1="64.8" x2="115.8" y2="64.8"/>
			<line fill="none" stroke="#263238" stroke-width="0.3075" stroke-miterlimit="10" x1="72.7" y1="64.8" x2="83.7" y2="64.8"/>
		</g>
		<circle fill="none" stroke="#263238" stroke-width="0.3075" stroke-miterlimit="10" cx="126.8" cy="60.2" r="4.6"/>
	</g>
	<polyline fill="none" stroke="#92E3A9" stroke-width="1.8447" stroke-linecap="round" stroke-miterlimit="10" points="125,59.3 
		126.3,61.5 131,57 	"/>
	<polyline fill="none" stroke="#92E3A9" stroke-width="1.8447" stroke-linecap="round" stroke-miterlimit="10" points="124.4,114.7 
		125.6,116.9 130.3,112.4 	"/>
</g>
<g>
	<g>
		<g>
			
				<path fill="#FFFFFF" stroke="#263238" stroke-width="0.3075" stroke-linecap="round" stroke-linejoin="round" stroke-miterlimit="10" d="
				M149.4,85.7c0,0,1.7,1.4,1.5,2.6c-0.1,1.2-1.8,4.3-2.2,5.2c-0.4,0.9,0.5,3,0.5,3l-5.5,1.9c0,0,0.1-0.7,0-1
				c-0.1-0.3-0.3-1.1-0.3-1.1s-0.9,0.3-1.1,0.4c-0.3,0.1-1.2-0.3-1.2-0.7c0-0.4,0-0.6-0.1-1.2c0-0.6-0.1-1.5-0.2-1.7
				c-0.1-0.2-0.9-0.7-0.9-1c0-0.3,1-1.4,1.1-1.8c0.1-0.4-0.1-1.2,0-1.7c0.1-0.5,0.9-2.1,0.9-2.1s-0.5-0.4,0.9-1.6
				C144.2,83.7,147.7,83.3,149.4,85.7z"/>
			
				<path fill="#263238" stroke="#263238" stroke-width="0.3075" stroke-linecap="round" stroke-linejoin="round" stroke-miterlimit="10" d="
				M149.4,85.7c-1.7-2.3-5.2-2-6.6-0.9c-1.4,1.2-0.9,1.6-0.9,1.6l1.3,1c0,0-1.2,1.4-1,1.5c0.2,0.2,1.1,1.4,1.1,1.4l-0.1,0.4L143,90
				c0,0-0.5,2.1-0.6,2.6c-0.1,0.5-0.1,0.7-0.3,0.8c-0.2,0.1-1.2-0.4-1.2-0.4s0,1.3,0,1.8c0,0.5-0.1,1-0.1,1.4s0.7,1.2,1.5,1.1
				s1.3-0.6,1.2-1c0-0.4,0.3-1.9,0.1-2.2c-0.1-0.3-0.4-1.8-0.1-2.4c0,0,0.6-1.2,1.2-1.2c0.6,0,0.7,1.6,0.5,2
				c-0.2,0.4-0.3,0.6-0.3,0.6s0,0.3,1.7,0.8c1.2,0.4,1.9,0.2,2.2,0c0-0.2,0-0.3,0.1-0.4c0.4-0.9,2-3.9,2.2-5.2
				C151.1,87.1,149.4,85.7,149.4,85.7z"/>
			
				<path fill="none" stroke="#263238" stroke-width="0.3075" stroke-linecap="round" stroke-linejoin="round" stroke-miterlimit="10" d="
				M144.8,93c0,0-0.4,0.6-0.7,0.7c-0.3,0.1-0.6-0.3-0.6-0.3"/>
		</g>
		<ellipse fill="#263238" cx="141.3" cy="90.3" rx="0.2" ry="0.6"/>
		
			<path fill="none" stroke="#263238" stroke-width="0.3075" stroke-linecap="round" stroke-linejoin="round" stroke-miterlimit="10" d="
			M141.7,89.6c0,0,0.1-0.6-0.6-0.3"/>
		
			<path fill="none" stroke="#FFFFFF" stroke-width="0.3075" stroke-linecap="round" stroke-linejoin="round" stroke-miterlimit="10" d="
			M141.3,94.3c0,0,0.5-0.1,0.6-0.3"/>
	</g>
	<g>
		
			<polygon fill="#FFFFFF" stroke="#263238" stroke-width="0.3075" stroke-linecap="round" stroke-linejoin="round" stroke-miterlimit="10" points="
			125.7,105.2 135.3,105.2 137.6,112.7 127.9,112.7 		"/>
		
			<polygon fill="#FFFFFF" stroke="#263238" stroke-width="0.3075" stroke-linecap="round" stroke-linejoin="round" stroke-miterlimit="10" points="
			126.4,105.6 134.9,105.6 136.9,112.3 128.3,112.3 		"/>
		
			<rect x="128" y="112.8" fill="#FFFFFF" stroke="#263238" stroke-width="0.3075" stroke-linecap="round" stroke-linejoin="round" stroke-miterlimit="10" width="11.8" height="0.5"/>
	</g>
	<g>
		
			<path fill="#FFFFFF" stroke="#263238" stroke-width="0.3075" stroke-linecap="round" stroke-linejoin="round" stroke-miterlimit="10" d="
			M143.5,161.7c0,0-1,1.5-1.7,1.8c-0.7,0.4-2.4,0.8-2.4,1.3s0.1,0.5,0.9,0.8c0.8,0.3,2.2,0.3,2.9,0.3c0.8,0,1.6,0,1.8,0.1
			c0.3,0.1,1.7,0.2,2.3,0.2c0.6,0,0.6-1.7,0.6-1.7L143.5,161.7z"/>
		
			<path fill="#263238" stroke="#263238" stroke-width="0.3075" stroke-linecap="round" stroke-linejoin="round" stroke-miterlimit="10" d="
			M153.7,125.6c0,0-1.5,11.9-2.9,15.9c-1.4,4-0.8,5.2-1.8,9.2c-1,4-1.1,13.5-1.1,13.8s-0.4,0-2-0.8c-1.6-0.8-2.4-1.9-2.4-1.9
			s0.1-0.8,0.2-1.4c0.1-0.6,0.4-2.2,0.4-2.2s-0.6-5.1,0.1-13.2c0.7-8.1,1-17.8,1-17.8S150.7,126.3,153.7,125.6z"/>
	</g>
	
		<path fill="#FFFFFF" stroke="#263238" stroke-width="0.3075" stroke-linecap="round" stroke-linejoin="round" stroke-miterlimit="10" d="
		M146.2,164.3c0,0-1.1,1.1-1.7,1.5c-0.7,0.4-2.8,1.1-2.8,1.4c0,0.3,0.2,0.9,0.3,1c0.1,0,1.9,0.4,3.6,0.4c1.7,0,3.7-0.2,4.2-0.2
		c0.5,0,1.7,0.4,1.7-0.9c0-1.3-0.7-3.3-0.7-3.3S148.4,164.9,146.2,164.3z"/>
	
		<path fill="#263238" stroke="#263238" stroke-width="0.3075" stroke-linecap="round" stroke-linejoin="round" stroke-miterlimit="10" d="
		M149.7,130c0,0-0.5,7.7-0.8,10c-0.3,2.3,0.3,7.2,0.9,10.6c0.6,3.4,0.8,10.4,0.8,10.4s0.4,0.3,0.2,0.7c-0.2,0.4-0.4,1-0.4,1
		s0.7,0.3,0.7,0.7c-0.1,0.5-0.3,1.4-0.3,1.4s-0.4,0.1-1.8,0.1c-1.4,0-2.6-0.3-2.6-0.3l-0.5-0.3c0,0-0.1-1.1-0.1-1.7s0.7-1.2,0.6-1.6
		c-0.1-0.3-0.4-2.2-0.7-3.8c-0.3-1.6-0.1-2.5-0.5-4.2c-0.5-1.6-3.1-11.4-3.1-11.4s-1.2-11.3-1.3-12.9c-0.1-1.6-0.1-2.2-0.1-2.2
		s2.1-1.7,2.6-1.7C143.6,125,149.7,130,149.7,130z"/>
	<g>
		
			<path fill="#92E3A9" stroke="#263238" stroke-width="0.3075" stroke-linecap="round" stroke-linejoin="round" stroke-miterlimit="10" d="
			M140.4,125.5c0,0-0.2,1.7,0,2.1c0.2,0.4,2.3,0.9,4.8,1.2c2.5,0.3,5.8,0,6.8-0.4c1.1-0.4,1.8-0.7,1.9-1c0.2-0.3,0-1.7,0-1.7
			S143.9,126.2,140.4,125.5z"/>
		
			<path fill="#92E3A9" stroke="#263238" stroke-width="0.3075" stroke-linecap="round" stroke-linejoin="round" stroke-miterlimit="10" d="
			M150.2,97.5c0,0,3.6,2.4,4.2,6.2c0.6,3.4-0.4,15.3-0.4,16s0.5,5.8,0.5,5.8c0.5,1.1-3.6,2.1-5.9,2.3c-2,0.2-6.4-0.3-7.7-0.9
			c-0.4-0.2-0.8-0.4-0.8-0.9c0-2.1-0.2-7.7,0-8.5c0.2-1,0-7,0-9s-0.8-5.2-0.1-6.5c0.7-1.3,2.4-2.2,2.4-2.2S145.7,97.2,150.2,97.5z"
			/>
		<g>
			
				<path fill="none" stroke="#263238" stroke-width="0.3075" stroke-linecap="round" stroke-linejoin="round" stroke-miterlimit="10" d="
				M150.2,109.6c-0.4,0.7-0.7,1.2-0.9,1.5"/>
			
				<path fill="none" stroke="#263238" stroke-width="0.3075" stroke-linecap="round" stroke-linejoin="round" stroke-miterlimit="10" d="
				M152.7,104.5c0,0-0.8,1.9-1.7,3.6"/>
			
				<line fill="none" stroke="#263238" stroke-width="0.3075" stroke-linecap="round" stroke-linejoin="round" stroke-miterlimit="10" x1="151" y1="110.4" x2="149.2" y2="112.8"/>
		</g>
	</g>
	
		<path fill="#92E3A9" stroke="#263238" stroke-width="0.3075" stroke-linecap="round" stroke-linejoin="round" stroke-miterlimit="10" d="
		M150.3,95.8l0.8,2c0,0-1.7,0.1-3.3,0.3c-1.6,0.2-5.3,1.7-5.3,1.7s0.4-1.5,0.7-1.8c0.3-0.3,1.4-1.4,3.5-1.9
		C148.8,95.6,150.3,95.8,150.3,95.8z"/>
	<g>
		
			<path fill="#FFFFFF" stroke="#263238" stroke-width="0.3075" stroke-linecap="round" stroke-linejoin="round" stroke-miterlimit="10" d="
			M144.1,115.2c0,0-0.3,3.2-0.6,3.4c-0.4,0.2-9.1-2.9-9.8-3.2c-0.6-0.3-1-0.3-1.1-0.3c-0.1,0-1.2,0-1.6-0.2
			c-0.4-0.2-0.8-0.7-0.9-0.8c-0.1-0.1-1.1-0.1-1.3-0.3c-0.3-0.2-0.6-0.4-0.4-0.5s1.4-0.4,1.4-0.4s0-0.6,0.5-0.6
			c0.5-0.1,0.3,0.1,1.5-0.6c1.1-0.7,1-0.1,2,0.6c1,0.7,1.5,1.5,1.6,1.5c0.1,0,3.7,1.4,3.7,1.4H144.1z"/>
		
			<line fill="#FFFFFF" stroke="#263238" stroke-width="0.3075" stroke-linecap="round" stroke-linejoin="round" stroke-miterlimit="10" x1="129.8" y1="112.9" x2="131.7" y2="112.6"/>
	</g>
	
		<path fill="#92E3A9" stroke="#263238" stroke-width="0.3075" stroke-linecap="round" stroke-linejoin="round" stroke-miterlimit="10" d="
		M136.3,114.1c0,0-0.5-0.5-0.9-0.3c-0.4,0.2-0.9,0.8-0.9,1.7c-0.1,0.8,1.3,1,1.3,1L136.3,114.1z"/>
	
		<path fill="#92E3A9" stroke="#263238" stroke-width="0.3075" stroke-linecap="round" stroke-linejoin="round" stroke-miterlimit="10" d="
		M143.5,100.2c-0.7,0-2.6,0.5-3.2,1.2c-0.6,0.6-0.6,2.5-0.5,5c0.2,2.5,1.2,7.2,1.2,7.2c0-0.1-0.1,0.2-0.2,0.3
		c-0.1,0.2,0.2,0.3-0.1,0.3c-0.1,0-0.7,0.1-0.8,0.1c-0.5-0.1-0.9-0.2-1.4-0.2c-0.7-0.1-2-0.3-2.7-0.3c-0.3,0-1,2.3-0.6,2.8
		c0.4,0.5,9,3.8,9.6,3.7c0.6-0.1,1.7-7.7,1.7-7.7c0.2-2.1,0.4-4.5,0.4-4.8"/>
	<g>
		
			<path fill="none" stroke="#263238" stroke-width="0.3075" stroke-linecap="round" stroke-linejoin="round" stroke-miterlimit="10" d="
			M140.8,114.3c0,0,1,1,1.8,1.6"/>
		
			<path fill="none" stroke="#263238" stroke-width="0.3075" stroke-linecap="round" stroke-linejoin="round" stroke-miterlimit="10" d="
			M141.6,115.8c0,0,0.7,0.7,1.3,0.9"/>
	</g>
</g>
<g>
	<g>
		
			<path fill="#FFFFFF" stroke="#263238" stroke-width="0.3075" stroke-linecap="round" stroke-linejoin="round" stroke-miterlimit="10" d="
			M109.7,94.9c-0.2-1.1-0.9-1.8-1.1-2.4c-0.2-0.6-0.6-1.4-0.6-1.4s-1,2.1-1.4,3.8l-0.2-0.4l-2.9,2.3l-0.2,5.1l4.7,0.2
			c0,0-0.2-0.8-0.3-1.5c-0.1-0.6,0-1.6,0.1-1.8c0,0,1.3,0,1.5-0.4C109.6,97.9,109.9,95.9,109.7,94.9z"/>
		
			<path fill="#FFFFFF" stroke="#263238" stroke-width="0.3075" stroke-linecap="round" stroke-linejoin="round" stroke-miterlimit="10" d="
			M109,93c0,0,0.4,0.1,0.6,0.1c0.2,0,0.5,0,0.4,0.4c-0.1,0.4-0.3,0.6-0.3,0.6L109,93z"/>
	</g>
	
		<path fill="#FFFFFF" stroke="#263238" stroke-width="0.3075" stroke-linecap="round" stroke-linejoin="round" stroke-miterlimit="10" d="
		M107.6,151.8c0,0-0.6,11-0.6,11.2c0,0.2-0.8,2.9-0.7,3.3c0.1,0.4,1,0.5,1.7,0.6c0.6,0.1,2,0.2,2.5,0.2c0.5,0,2.4-0.1,2.7-0.2
		c0.3-0.1,0.8-0.5,0.4-0.8c-0.4-0.3-1.4-0.4-2.6-1.7c-1.2-1.3-1.5-1.9-1.5-1.9l2.4-10.5L107.6,151.8z"/>
	
		<path fill="#FFFFFF" stroke="#263238" stroke-width="0.3075" stroke-linecap="round" stroke-linejoin="round" stroke-miterlimit="10" d="
		M91.3,149.8c0,0-4.5,11.3-4.9,11.7c-0.3,0.5-2.7,3.4-2.8,4c-0.1,0.6,2.9,0.6,3.5,0.3c0.5-0.3,1.1-3.4,1.5-4
		c0.3-0.6,8.1-11.2,8.1-11.2L91.3,149.8z"/>
	<g>
		
			<path fill="#8F8F8F" stroke="#263238" stroke-width="0.3075" stroke-linecap="round" stroke-linejoin="round" stroke-miterlimit="10" d="
			M98.9,117l-0.1,1.9c0,0-2.4,5.1-4.6,11.4c-2.5,6.9-5.7,18.7-5.7,18.7s2.1,2,8,2.9c5.8,0.9,9.5,1.3,12.6,1.2
			c3.8-0.1,8.7-1.2,8.7-1.2s-2.7-16.8-5-24.5c-2.2-7.6-2.8-8.4-2.8-8.4l-0.8-4.3L98.9,117z"/>
		<g>
			
				<line fill="none" stroke="#263238" stroke-width="0.3075" stroke-linecap="round" stroke-linejoin="round" stroke-miterlimit="10" x1="102.5" y1="130" x2="101.9" y2="152.6"/>
			
				<line fill="none" stroke="#263238" stroke-width="0.3075" stroke-linecap="round" stroke-linejoin="round" stroke-miterlimit="10" x1="102.6" y1="128.4" x2="102.5" y2="129.3"/>
			
				<path fill="none" stroke="#263238" stroke-width="0.3075" stroke-linecap="round" stroke-linejoin="round" stroke-miterlimit="10" d="
				M107.4,119.4c0.4-0.1,0.7-0.2,1-0.3"/>
			
				<path fill="none" stroke="#263238" stroke-width="0.3075" stroke-linecap="round" stroke-linejoin="round" stroke-miterlimit="10" d="
				M99.8,119.5c0,0,3.2,0.4,6.3,0.1"/>
		</g>
	</g>
	<g>
		
			<path fill="#FFFFFF" stroke="#263238" stroke-width="0.3075" stroke-linecap="round" stroke-linejoin="round" stroke-miterlimit="10" d="
			M120.3,94.8c0,0-0.3-1.1-0.3-1.9c0-0.8-0.8-1.8-0.7-2.2c0.1-0.4,0.5-0.4,0.7-0.3c0.2,0.1,0.5,0.5,0.5,0.5s0.6-1.8,0.6-2.6
			c0-0.8,0.5-0.7,0.7-0.2c0.2,0.5-0.1,2.6-0.1,2.6s0.8,0.2,1.2,0.4c0.4,0.2,1.1,0.5,1,1.6c-0.1,1.1-0.3,1.6-0.5,1.6
			s-0.5-0.3-0.5-0.3s0,1.1-0.4,1.5c-0.4,0.3-1.1,0.4-1.1,0.4S121.4,95.2,120.3,94.8z"/>
		
			<path fill="none" stroke="#263238" stroke-width="0.3075" stroke-linecap="round" stroke-linejoin="round" stroke-miterlimit="10" d="
			M122.9,94.2c0,0,0.3-1,0.3-1.1"/>
		
			<line fill="none" stroke="#263238" stroke-width="0.3075" stroke-linecap="round" stroke-linejoin="round" stroke-miterlimit="10" x1="120.5" y1="91.1" x2="120.2" y2="92.2"/>
	</g>
	
		<path fill="#92E3A9" stroke="#263238" stroke-width="0.3075" stroke-linecap="round" stroke-linejoin="round" stroke-miterlimit="10" d="
		M119.2,96l0.8-1.3c0,0,0.3-0.4,1-0.2c0,0,0,0,0,0c0.7,0.2,1,0.9,0.9,1.6l-0.2,0.8C121.7,96.9,120.1,96,119.2,96z"/>
	<g>
		
			<path fill="#FFFFFF" stroke="#263238" stroke-width="0.3075" stroke-linecap="round" stroke-linejoin="round" stroke-miterlimit="10" d="
			M86.2,122.9c0,0,0.2,1,0.3,1.7c0.1,0.7,0.6,2.2,0.9,2.3c0.3,0.2,0.8,0.4,0.3,0.6c-0.5,0.1-0.8,0.2-1.2-0.1
			c-0.4-0.3-0.7-0.7-0.7-0.7s-0.3,1.5-0.6,2.2c-0.2,0.7-1,1.9-1,1.9s0,0.4-0.3,0.5c-0.3,0.1-0.5-0.4-0.5-0.4s-0.4,0.9-0.6-0.1
			c-0.1-0.4-0.4-2.9-0.4-3.3c0-0.5,2-4.9,2-4.9L86.2,122.9z"/>
		
			<path fill="none" stroke="#263238" stroke-width="0.3075" stroke-linecap="round" stroke-linejoin="round" stroke-miterlimit="10" d="
			M83.4,128.2c-0.2,0.3-0.3,0.6-0.3,0.8c0,0.2,0.3,1.9,0.3,1.9"/>
		
			<polyline fill="none" stroke="#263238" stroke-width="0.3075" stroke-linecap="round" stroke-linejoin="round" stroke-miterlimit="10" points="
			84.2,130.7 84,129.1 84.4,128 		"/>
		
			<path fill="none" stroke="#263238" stroke-width="0.3075" stroke-linecap="round" stroke-linejoin="round" stroke-miterlimit="10" d="
			M84.5,130.2c0,0,0-0.9,0.1-1.3c0.1-0.4,0.2-0.3,0.3-0.8"/>
		
			<path fill="none" stroke="#263238" stroke-width="0.3075" stroke-linecap="round" stroke-linejoin="round" stroke-miterlimit="10" d="
			M85,125.8c0,0,0,0.4-0.4,0.8c-0.3,0.3-1,0.8-1,0.8"/>
	</g>
	
		<path fill="#92E3A9" stroke="#263238" stroke-width="0.3075" stroke-linecap="round" stroke-linejoin="round" stroke-miterlimit="10" d="
		M97.8,102.5c0,0-3.9,1.9-4.1,2.4c-0.2,0.5-5.1,9.2-5.8,10.1c-0.7,0.9-2.7,1.9-3,2.8c-0.2,0.9-0.1,3.2-0.1,3.2l-0.5,1.6
		c0,0,0.1,0.5,0.9,0.7c0.9,0.2,0.9,0.2,0.9,0.2l1.5-1.4c0,0,3.2-0.8,4.4-2.3c1.3-1.5,4.4-8.7,4.4-8.7l-0.5,4.8c0,0,3.2,0.5,6.9,0.2
		c3.8-0.3,7.9-0.9,7.9-0.9l-0.5-5.6c0,0,9-1.5,9.5-1.9c0.5-0.4,0.9-1.6,1-2c0.1-0.4,1.6-8.6,1.6-8.6s-0.5-0.9-1.8-1.2
		c-1.3-0.2-2.6,0.4-2.6,0.8c-0.1,0.4-2.7,5.7-2.7,5.7s-0.2-0.1-0.9,0.2c-0.7,0.3-1.9-0.2-1.9-0.2s-2.4-0.7-3.7-0.6
		c-1.3,0.1-2.6,0.3-2.6,0.3s-2.4-1.1-4.1-0.6C100.3,102,97.8,102.5,97.8,102.5z"/>
	
		<polyline fill="none" stroke="#263238" stroke-width="0.3075" stroke-linecap="round" stroke-linejoin="round" stroke-miterlimit="10" points="
		106.2,110.1 110.3,109.5 107.6,110.9 	"/>
	
		<polyline fill="none" stroke="#263238" stroke-width="0.3075" stroke-linecap="round" stroke-linejoin="round" stroke-miterlimit="10" points="
		96.5,108.3 96.4,111.1 95.5,109.9 	"/>
	
		<path fill="none" stroke="#263238" stroke-width="0.3075" stroke-linecap="round" stroke-linejoin="round" stroke-miterlimit="10" d="
		M85.4,121.2c0,0,0.2,0.6,1.6,0.6"/>
	<g>
		
			<path fill="#263238" stroke="#263238" stroke-width="0.3075" stroke-linecap="round" stroke-linejoin="round" stroke-miterlimit="10" d="
			M101.1,97.6c2,1.5,3.7,0.6,4.4-0.1c0.9-0.9,0.9-2,1.4-3.1c0.1-0.4,1.4-1.8,1.5-2.1c0.2-0.8-0.2-2.1-0.2-2.1s1.3,0.2,0.7-1.1
			c-0.6-1.3-1.1-1.8-2.3-1.9c-1.2-0.1-1.9,0.9-1.9,0.9s-1.5-0.7-2.5-0.2c-1,0.5-2.4,0-3.6,3.6c-0.1,0.3-0.3,0.9-0.4,1.3
			c-0.1,1,0.5,1.8,1.1,2.6C100.3,96.7,99.9,96.7,101.1,97.6z"/>
		
			<circle fill="#FFFFFF" stroke="#263238" stroke-width="0.3075" stroke-linecap="round" stroke-linejoin="round" stroke-miterlimit="10" cx="102" cy="96" r="1.5"/>
		
			<path fill="#263238" stroke="#263238" stroke-width="0.3075" stroke-linecap="round" stroke-linejoin="round" stroke-miterlimit="10" d="
			M99.3,98.7c0,0.9,0,1.8-0.8,2.5c-0.9,0.7-4.5,3.3-2.5,6c1.9,2.7,2.2,1.9,2,2.9c-0.2,0.9-3.9,3.4-3.3,5.7c0.7,2.2,3.5,3.5,3.1,4.3
			c-0.4,0.9,0.9,5.1,5.7,2.9c4.9-2.2,4.5-6.1,2.6-10.4c-0.5-1-0.2-2.3,1.6-4.3c1.8-2.1,0.5-6-1.5-8c-1.1-1.2-1.6-2.1-1.5-2.3
			c0.1-0.2-1.8-2.9-3.3-2.1c-1,0.5-1.9,1.4-2,2.6C99.3,98.4,99.3,98.6,99.3,98.7z"/>
		
			<path fill="#FFFFFF" stroke="#263238" stroke-width="0.3075" stroke-linecap="round" stroke-linejoin="round" stroke-miterlimit="10" d="
			M107,94.4c0,0-0.6-0.8-1,0.1c-0.4,0.9,0.1,1.8,0.5,2.1c0.4,0.3,0.7-0.9,0.7-0.9"/>
	</g>
	
		<path fill="#92E3A9" stroke="#263238" stroke-width="0.3075" stroke-linecap="round" stroke-linejoin="round" stroke-miterlimit="10" d="
		M113.1,166.8c0.3-0.1,0.8-0.5,0.4-0.8c-0.4-0.3-1.4-0.4-2.6-1.7l-0.1,1c0,0-2.6-0.1-4.5-0.5c-0.2,0.6-0.3,1.2-0.2,1.4
		c0.1,0.4,1,0.5,1.7,0.6c0.6,0.1,2,0.2,2.5,0.2C110.9,167.1,112.8,167,113.1,166.8z"/>
	
		<path fill="#92E3A9" stroke="#263238" stroke-width="0.3075" stroke-linecap="round" stroke-linejoin="round" stroke-miterlimit="10" d="
		M87.1,165.8c0.2-0.1,0.4-0.7,0.7-1.4c-1.3,0.1-2.5-0.2-3.2-0.4c-0.5,0.7-0.9,1.3-0.9,1.6C83.6,166.1,86.6,166.1,87.1,165.8z"/>
</g>
<g>
	<g>
		
			<rect x="44.2" y="137.4" fill="#263238" stroke="#263238" stroke-width="0.3075" stroke-linecap="round" stroke-linejoin="round" stroke-miterlimit="10" width="2.6" height="4.6"/>
		
			<path fill="#949494" stroke="#263238" stroke-width="0.3075" stroke-linecap="round" stroke-linejoin="round" stroke-miterlimit="10" d="
			M46.7,138.8h-2.8c-2.8,0-5-2.3-5-5v-9.6c0-2.8,2.3-5,5-5h2.8c2.8,0,5,2.3,5,5v9.6C51.7,136.5,49.5,138.8,46.7,138.8z"/>
		<g>
			
				<circle fill="#263238" stroke="#263238" stroke-width="0.3075" stroke-linecap="round" stroke-linejoin="round" stroke-miterlimit="10" cx="40.3" cy="165.9" r="1.1"/>
			
				<circle fill="#263238" stroke="#263238" stroke-width="0.3075" stroke-linecap="round" stroke-linejoin="round" stroke-miterlimit="10" cx="61.7" cy="165.9" r="1.1"/>
			
				<ellipse fill="#263238" stroke="#263238" stroke-width="0.3075" stroke-linecap="round" stroke-linejoin="round" stroke-miterlimit="10" cx="51" cy="165.9" rx="0.5" ry="1.1"/>
			
				<polygon fill="#263238" stroke="#263238" stroke-width="0.3075" stroke-linecap="round" stroke-linejoin="round" stroke-miterlimit="10" points="
				52,160 52,144.4 49.9,144.4 49.9,160.1 39.3,164.3 39.3,165.3 40.8,165.3 40.8,164.4 51,162.3 61.2,164.4 61.2,165.3 62.7,165.3 
				62.7,164.3 			"/>
			
				<polygon fill="#263238" stroke="#263238" stroke-width="0.3075" stroke-linecap="round" stroke-linejoin="round" stroke-miterlimit="10" points="
				50.5,165.3 51.6,165.3 51.8,160.2 50.3,160.2 			"/>
		</g>
		
			<rect x="48.2" y="143.8" fill="#263238" stroke="#263238" stroke-width="0.3075" stroke-linecap="round" stroke-linejoin="round" stroke-miterlimit="10" width="5.4" height="3.2"/>
		
			<path fill="#949494" stroke="#263238" stroke-width="0.3075" stroke-linecap="round" stroke-linejoin="round" stroke-miterlimit="10" d="
			M58.8,145H42.5c-0.9,0-1.6-0.7-1.6-1.6v-0.9c0-0.9,0.7-1.6,1.6-1.6h16.3c0.9,0,1.6,0.7,1.6,1.6v0.9C60.5,144.2,59.7,145,58.8,145z
			"/>
	</g>
	<g>
		<g>
			<g>
				
					<path fill="#FFFFFF" stroke="#263238" stroke-width="0.3075" stroke-linecap="round" stroke-linejoin="round" stroke-miterlimit="10" d="
					M74.1,150.5l1.6,2.4l1.9-0.1c0,0,2.8,0,3.3-0.1c0.5-0.1,0.7,0.3,0.4,0.8c-0.2,0.5-2.3,2-3.4,2.6c-1.1,0.7-3.4,1.7-3.7,1.8
					c-0.3,0.1-0.7-0.5-1.3-2.4c-0.7-1.9-1.9-3.7-1.9-3.7L74.1,150.5z"/>
				<g>
					
						<path fill="#FFFFFF" stroke="#263238" stroke-width="0.3075" stroke-linecap="round" stroke-linejoin="round" stroke-miterlimit="10" d="
						M81.4,153.5c0.2-0.5,0.1-0.9-0.4-0.8c-0.5,0.1-3.3,0.1-3.3,0.1l-1.9,0.1c0.1,1.1,0.3,1.6,0.3,1.6s-2.7,0.7-3.1,1
						c0.7,1.9,1,2.5,1.3,2.4c0.3-0.1,2.7-1.1,3.7-1.8C79,155.4,81.1,153.9,81.4,153.5z"/>
				</g>
				
					<path fill="#92E3A9" stroke="#263238" stroke-width="0.3075" stroke-linecap="round" stroke-linejoin="round" stroke-miterlimit="10" d="
					M81.3,152.7c-0.4,0.4-1.1,1-2.2,1.7c-1.8,1.2-4.4,2.3-5.5,2.8c0.3,0.5,0.4,0.7,0.6,0.7c0.3-0.1,2.7-1.1,3.7-1.8
					c1.1-0.7,3.2-2.2,3.4-2.6C81.6,153.1,81.5,152.8,81.3,152.7z"/>
			</g>
			
				<path fill="#92E3A9" stroke="#263238" stroke-width="0.3075" stroke-linecap="round" stroke-linejoin="round" stroke-miterlimit="10" d="
				M69.9,131.4c0.2-0.5,2,6.1,3.5,12.4c1,4.2,1.8,6.8,1.8,6.8s-1.4,1.2-2.2,1.6c-0.8,0.4-2.3,1-2.3,1s-2.2-4.7-3.4-7
				c-1.2-2.3-1.5-3.9-2.5-5.7c-1-1.7-1.2-4.9-1.2-4.9s-0.6-3,1.7-3.8C67.6,130.9,69.2,130.5,69.9,131.4z"/>
			<g>
				
					<path fill="#FFFFFF" stroke="#263238" stroke-width="0.3075" stroke-linecap="round" stroke-linejoin="round" stroke-miterlimit="10" d="
					M63.5,156.7c0,0-0.4,2.6-0.7,3.5c-0.3,0.9-1.1,2.7-0.8,3.1c0.2,0.4,1.5,0.9,2.2,0.9c0.7,0.1,1.5,1.1,2.7,1.6
					c1.2,0.4,2.8,0.3,2.8,0c0-0.3-3.6-4.3-3.8-5.2c-0.2-1,0.5-3.9,0.5-3.9L63.5,156.7z"/>
				<g>
					
						<path fill="#FFFFFF" stroke="#263238" stroke-width="0.3075" stroke-linecap="round" stroke-linejoin="round" stroke-miterlimit="10" d="
						M65.5,161.2c-0.1,0.3-0.1,0.3-0.1,0.3s-1.7-0.2-2.8-0.6c-0.3,0.9-0.8,2-0.6,2.4c0.2,0.4,1.5,0.9,2.2,0.9
						c0.7,0.1,1.5,1.1,2.7,1.6c1.2,0.4,2.8,0.3,2.8,0c0-0.3-3.6-4.3-3.8-5.2C65.9,160.6,65.6,160.9,65.5,161.2z"/>
					
						<path fill="#92E3A9" stroke="#263238" stroke-width="0.3075" stroke-linecap="round" stroke-linejoin="round" stroke-miterlimit="10" d="
						M66.8,165.1c-1-0.5-1.8-1.3-3.1-1.7c-0.8-0.3-1.4-0.5-1.7-0.6c0,0.2,0,0.4,0,0.5c0.2,0.4,1.5,0.9,2.2,0.9
						c0.7,0.1,1.5,1.1,2.7,1.6c1.2,0.4,2.7,0.3,2.8,0C68.9,165.7,67.5,165.5,66.8,165.1z"/>
				</g>
			</g>
			
				<path fill="#92E3A9" stroke="#263238" stroke-width="0.3075" stroke-linecap="round" stroke-linejoin="round" stroke-miterlimit="10" d="
				M62.9,137.3c0,0,4.8,0.5,5.1,2.9c0.4,2.4-0.5,17.4-0.5,17.4s-1.1,0.1-2.1-0.1c-1-0.2-2.6-0.5-2.6-0.5s-0.2-5.1-0.5-7.2
				c-0.3-2-0.5-8-0.5-8s-7.9-0.7-8.7-1.1C52.3,140.2,62.9,137.3,62.9,137.3z"/>
			<g>
				
					<path fill="#92E3A9" stroke="#263238" stroke-width="0.3075" stroke-linecap="round" stroke-linejoin="round" stroke-miterlimit="10" d="
					M69.1,135.6c0,0-11.7,4.6-14.4,5.6c-2.7,0.9-5.7,0.7-7.5,0.1c-1.9-0.6-2.8-3-2.8-3s-0.5-0.6-0.2-1.1c0.2-0.5,4.1-4,6.4-4.6
					c2.3-0.6,6.6-0.3,6.6-0.3s10.3-2.6,11.5-2.4c1.3,0.2,2.3,4.7,2.4,5.3"/>
				
					<path fill="none" stroke="#263238" stroke-width="0.3075" stroke-linecap="round" stroke-linejoin="round" stroke-miterlimit="10" d="
					M47.1,138.7c0,0,0.8-3.3,3.1-4.7"/>
				
					<path fill="none" stroke="#263238" stroke-width="0.3075" stroke-linecap="round" stroke-linejoin="round" stroke-miterlimit="10" d="
					M46.6,136.5c0,0,0.9-1.4,2.1-1.7"/>
			</g>
			<g>
				
					<path fill="#FFFFFF" stroke="#263238" stroke-width="0.3075" stroke-linecap="round" stroke-linejoin="round" stroke-miterlimit="10" d="
					M56,114.2c0,0,0.8,0.9,1.8,3.3c1,2.4,2.5,9.5,2.5,9.5s-0.8,0.3-1.4,0.3s-1.5,0.1-1.8-0.3c-0.3-0.4-1.3-3.7-1.3-3.7s-0.5-4-0.6-6
					c-0.1-2-0.8-2.4-0.1-3.1C55.7,113.7,56,114.2,56,114.2z"/>
				
					<path fill="#FFFFFF" stroke="#263238" stroke-width="0.3075" stroke-linecap="round" stroke-linejoin="round" stroke-miterlimit="10" d="
					M53.7,112.8c0,0,1.8,0.4,2.4,1.4c0.6,1,0.3,3.2,0.3,3.2s1.6,4.6,1.3,5.7c-0.3,1.1-1.5,2.7-1.5,2.7s0.1,3.5,0.4,4.2
					c0.3,0.7,0.6,2.2,0.6,2.2s-0.8,0.6-3.6,1c-2.8,0.4-5,0.6-6,1.3c-0.9,0.7-3,3.5-3.3,3.7c-0.2,0.1-0.4-0.4-0.6-0.8
					c-0.2-0.4-0.1-1.6,0.3-3.4c0.4-1.8,0.7-6.9,0.1-10.2c-0.7-3.5-1-4-0.6-6.4c0.4-2.3,5.9-5.8,6.7-6
					C50.9,111.4,53.7,112.8,53.7,112.8z"/>
				<g>
					
						<path fill="none" stroke="#FFFFFF" stroke-width="0.3075" stroke-linecap="round" stroke-linejoin="round" stroke-miterlimit="10" d="
						M44.9,135.2c0,0,1.5-1.7,2.2-2c0.7-0.3,5.8-0.3,5.8-0.3"/>
					
						<path fill="none" stroke="#FFFFFF" stroke-width="0.3075" stroke-linecap="round" stroke-linejoin="round" stroke-miterlimit="10" d="
						M46,133c0,0,0.8-0.5,1.5-0.6c0.7-0.1,2.4,0,2.4,0"/>
					
						<path fill="none" stroke="#263238" stroke-width="0.3075" stroke-linecap="round" stroke-linejoin="round" stroke-miterlimit="10" d="
						M48.7,127c0,0,2.3-0.8,4.4-2.8"/>
				</g>
			</g>
			
				<path fill="#FFFFFF" stroke="#263238" stroke-width="0.3075" stroke-linecap="round" stroke-linejoin="round" stroke-miterlimit="10" d="
				M53.7,100.5c0,0,0.7,1.4,0.9,1.9c0.2,0.4,0.1,1.2,0.3,1.8c0.2,0.6,1.2,1,1.2,1.4c0,0.4-0.4,1.1-0.4,1.1s-0.2,2.7-0.6,3.1
				c-0.4,0.3-1.8,0.4-1.8,0.4l-0.1,2.6l0.8,0.5c0,0,0.1,2.9,0,3.9c-0.1,1-0.6,1.3-1.9,0.5c-1.5-0.9-3.3-3.2-3.5-3.7
				c-0.2-0.5,0.4-2.2-0.5-5.1c-0.9-2.8,1.1-5.4,2.3-6.6C51.7,101,52.4,100.2,53.7,100.5z"/>
			
				<path fill="#263238" stroke="#263238" stroke-width="0.3075" stroke-linecap="round" stroke-linejoin="round" stroke-miterlimit="10" d="
				M53.7,100.5c0-0.8-0.1-1.1-1.8-1.3c-1.6-0.2-5.1-0.3-6.5,2.1c-1.4,2.4-1.4,7.8-1.4,7.8s-3.6,2.2-3.8,4c-0.2,1.8,0.9,3.4,2.8,4
				c0,0,0.1,0,0.1,0c0.2-0.7,0.5-1.6,1-2.3c1.1-1.3,2-1.1,3.3-1.5c1.4-0.4,2.2-0.4,2.4-2c0.2-1.5,0.1-2.5,0-3.9
				c0-0.5,0.5-1.3,0.5-1.3s1.4,0.4,2.3-2C53.6,101.7,53.8,101.3,53.7,100.5z"/>
			
				<path fill="#FFFFFF" stroke="#263238" stroke-width="0.3075" stroke-linecap="round" stroke-linejoin="round" stroke-miterlimit="10" d="
				M51.1,106.8c0,0-0.4-2-1.6-1.2c-1.2,0.8,0.6,3.1,0.8,3.1c0.3,0,0.7-0.2,0.7-0.2"/>
			
				<polygon fill="#263238" stroke="#263238" stroke-width="0.3075" stroke-linecap="round" stroke-linejoin="round" stroke-miterlimit="10" points="
				53.3,110 52,109.9 53.3,110.1 			"/>
			<ellipse transform="matrix(0.982 -0.189 0.189 0.982 -18.807 12.1995)" fill="#263238" cx="54.6" cy="104.7" rx="0.2" ry="0.6"/>
		</g>
		
			<line fill="#FFFFFF" stroke="#263238" stroke-width="0.3075" stroke-linecap="round" stroke-linejoin="round" stroke-miterlimit="10" x1="47.7" y1="118.8" x2="47.3" y2="118.2"/>
		
			<path fill="#FFFFFF" stroke="#263238" stroke-width="0.3075" stroke-linecap="round" stroke-linejoin="round" stroke-miterlimit="10" d="
			M46.1,113.3c0,0-1.7-0.1-3,1.8c-1.3,1.8-0.8,4.1-0.5,5.1c0.4,0.9,3.2,6.5,3.6,7.2c0.4,0.7,1.9,1.7,2.3,1.8c0.4,0.1,1.5-6.4,1.4-7
			c-0.1-0.6-2.8-4.7-2.8-4.7"/>
		<g>
			
				<path fill="none" stroke="#263238" stroke-width="0.3075" stroke-linecap="round" stroke-linejoin="round" stroke-miterlimit="10" d="
				M47.3,128.9c0,0-1.1-0.1-1.6-0.1c-0.4,0.1-0.3,0.1-0.1,0.4c0.2,0.2,0.7,0.1,0.7,0.1L47.3,128.9z"/>
			
				<path fill="#FFFFFF" stroke="#263238" stroke-width="0.3075" stroke-linecap="round" stroke-linejoin="round" stroke-miterlimit="10" d="
				M59.8,125.5c0.5,0.4,1.5,3.3-0.5,3.7c-2,0.4-7.3-0.1-7.5,0.1c-0.2,0.2-1.9,1.5-2.2,1.8c-0.4,0.3-1.2,0.6-1.2,0.6s-0.8,0.6-1,0.5
				s0.2-0.5,0.2-0.5s-0.8,0.5-1.1,0.5c-0.3,0-0.2-0.4-0.2-0.4c-0.1,0.1-0.4,0.1-0.4,0.1s-0.1-0.3,0.1-0.6c0.2-0.3,1.4-1.4,1.4-1.4
				s-0.7,0.2-0.8,0.3c-0.1,0.1-0.5,0.4-0.7,0.6c-0.2,0.2-0.4,0.2-0.5,0c-0.1-0.2,0.3-0.7,0.7-1.1c0.4-0.4,2.4-1.2,2.8-1.2
				c0.4,0,3.7-1,3.7-1s6-2.1,6.2-2.1"/>
			
				<path fill="none" stroke="#263238" stroke-width="0.3075" stroke-linecap="round" stroke-linejoin="round" stroke-miterlimit="10" d="
				M54.6,126.7c0,0,0.7,1-0.2,2.4"/>
			
				<polyline fill="none" stroke="#263238" stroke-width="0.3075" stroke-linecap="round" stroke-linejoin="round" stroke-miterlimit="10" points="
				46.3,131.7 47.5,130.6 48.2,130.1 			"/>
			
				<path fill="none" stroke="#263238" stroke-width="0.3075" stroke-linecap="round" stroke-linejoin="round" stroke-miterlimit="10" d="
				M47.6,131.5c0,0,1-0.8,1.1-0.8"/>
		</g>
		
			<path fill="#FFFFFF" stroke="#263238" stroke-width="0.3075" stroke-linecap="round" stroke-linejoin="round" stroke-miterlimit="10" d="
			M46.2,124.7c0.1,1.2-0.3,3,1.5,4.1c0.9,0.5,2.1,1,2.8-0.4c0.7-1.4,1.1-14,1.1-14s0,0,0.7-0.2c0.7-0.2,1.2-1.4,1.2-1.4
			s-0.3,0.4,0,0.8c0.3,0.3,1.7-1.1,1.8-1.5c0.1-0.4-0.9-1.7-0.9-1.7s0.4-0.2,0.3-0.7c-0.1-0.5-2,0-2,0l-1.1,1.4c0,0-1.6,2.1-1.8,2.7
			c-0.1,0.5-1.7,5.4-2.6,7.5"/>
		
			<line fill="none" stroke="#263238" stroke-width="0.3075" stroke-linecap="round" stroke-linejoin="round" stroke-miterlimit="10" x1="48.7" y1="117.4" x2="51.2" y2="118.3"/>
	</g>
</g>
</svg>
