<?xml version="1.0" encoding="utf-8"?>
<!-- Generator: Adobe Illustrator 18.1.1, SVG Export Plug-In . SVG Version: 6.00 Build 0)  -->
<svg version="1.1" id="Layer_3" xmlns="http://www.w3.org/2000/svg" xmlns:xlink="http://www.w3.org/1999/xlink" x="0px" y="0px"
	 width="200px" height="200px" viewBox="0 0 200 200" enable-background="new 0 0 200 200" xml:space="preserve">
<g>
	<path fill="#92E3A9" d="M31.2,69.2c-1.1,1.8-2,3.6-2.9,5.5c-6.8,15.4-5.4,30-1.5,45.4c4.1,15.9,11.8,33,25.2,43.3
		c3.2,2.4,6.7,4.4,10.6,5.4c14.8,3.8,33.1-2,51.7,1.1c18.6,3.1,37.6-0.7,48.4-18.1c4.6-7.3,7.4-15.1,9.1-23.5
		c2.1-10.3,6.8-20.6,7-31.3c0.2-11.2-4.2-23.6-11.5-32c-8.3-9.6-21.8-10.7-33.1-15.4c-8.9-3.7-16.6-9.7-25.6-13.2
		c-13.8-5.3-31.5-5.5-44.4,2.9C51.7,47.5,38.9,56.4,31.2,69.2z"/>
	<path opacity="0.7" fill="#FFFFFF" d="M31.2,69.2c-1.1,1.8-2,3.6-2.9,5.5c-6.8,15.4-5.4,30-1.5,45.4c4.1,15.9,11.8,33,25.2,43.3
		c3.2,2.4,6.7,4.4,10.6,5.4c14.8,3.8,33.1-2,51.7,1.1c18.6,3.1,37.6-0.7,48.4-18.1c4.6-7.3,7.4-15.1,9.1-23.5
		c2.1-10.3,6.8-20.6,7-31.3c0.2-11.2-4.2-23.6-11.5-32c-8.3-9.6-21.8-10.7-33.1-15.4c-8.9-3.7-16.6-9.7-25.6-13.2
		c-13.8-5.3-31.5-5.5-44.4,2.9C51.7,47.5,38.9,56.4,31.2,69.2z"/>
</g>
<g>
	<path fill="none" stroke="#263238" stroke-width="0.3178" stroke-miterlimit="10" d="M67.5,66c-0.7-0.4-1.4-0.8-2.2-0.6
		c-1.1,0.4-1.1,1.5-1.8,1.8c-0.8,0.3-1.4-0.3-2.2,0c-0.8,0.3-1.2,0.8-1.2,0.8h37c0,0-0.1-2.2-1.4-2.9c-1.3-0.7-2.5,0.2-3.6,0.2
		c-0.6,0-1-0.6-1.4-1.2c-0.2-0.3-0.4-0.7-0.6-1"/>
	<path fill="none" stroke="#263238" stroke-width="0.3178" stroke-miterlimit="10" d="M89.2,62.2c-2.1-2.3-5.1-3.2-8.3-1.8
		C79.6,61,78.7,62,78,63.2c-0.3,0.5-0.6,1.8-1.2,2c-1,0.4-3-1.3-4.7-1s-2,2.1-3.3,2.1c-0.2,0-0.4,0-0.7-0.1"/>
</g>
<g>
	<path fill="none" stroke="#263238" stroke-width="0.3178" stroke-miterlimit="10" d="M147.7,39.2c-0.4-0.2-0.9-0.5-1.3-0.3
		c-0.7,0.2-0.6,0.9-1.1,1.1c-0.5,0.2-0.9-0.2-1.3,0c-0.5,0.2-0.7,0.5-0.7,0.5h22.2c0,0-0.1-1.3-0.9-1.7c-0.8-0.4-1.5,0.1-2.2,0.1
		c-0.4,0-0.6-0.3-0.9-0.7c-0.1-0.2-0.2-0.4-0.4-0.6"/>
	<path fill="none" stroke="#263238" stroke-width="0.3178" stroke-miterlimit="10" d="M160.7,36.9c-1.3-1.4-3-1.9-5-1.1
		c-0.8,0.4-1.3,0.9-1.8,1.7c-0.2,0.3-0.4,1.1-0.7,1.2c-0.6,0.2-1.8-0.8-2.8-0.6c-1,0.2-1.2,1.3-2,1.3c-0.1,0-0.3,0-0.4-0.1"/>
</g>
<g>
	<path fill="none" stroke="#263238" stroke-width="0.3178" stroke-miterlimit="10" d="M86.4,37.3c-1.2-0.6-2.3-1.3-3.5-0.9
		c-1.9,0.6-1.7,2.5-3,3c-1.2,0.5-2.3-0.5-3.6,0c-1.2,0.5-2,1.2-2,1.2h60.3c0,0-0.2-3.6-2.3-4.7s-4.1,0.3-5.9,0.3c-1,0-1.7-0.9-2.3-2
		c-0.3-0.6-0.7-1.1-1-1.6"/>
	<path fill="none" stroke="#263238" stroke-width="0.3178" stroke-miterlimit="10" d="M121.8,31.1c-3.4-3.8-8.3-5.3-13.5-2.9
		c-2.1,1-3.6,2.6-4.8,4.5c-0.5,0.8-1,2.9-2,3.3c-1.6,0.6-4.8-2.2-7.7-1.6c-2.8,0.6-3.3,3.4-5.3,3.4c-0.4,0-0.7-0.1-1.1-0.2"/>
	<path fill="none" stroke="#263238" stroke-width="0.3178" stroke-miterlimit="10" d="M123.9,38.1c-1.3-2.2-3.5-3.4-6-2.3
		c-0.8,0.4-1.4,1-1.8,1.7c-0.2,0.3-0.4,1.1-0.8,1.3c-0.6,0.2-1.8-0.8-2.9-0.6c-1.1,0.2-1.3,1.3-2,1.3c-0.8,0-1.4-0.8-2.1-0.6
		c-0.7,0.2-0.7,1-1.1,1.1c-0.5,0.2-0.9-0.2-1.4,0c-0.5,0.2-0.8,0.5-0.8,0.5h23c0,0-0.1-1.4-0.9-1.8c-0.8-0.4-1.6,0.1-2.3,0.1
		C124.4,38.9,124.1,38.5,123.9,38.1z"/>
</g>
<path fill="none" stroke="#263238" stroke-width="0.3178" stroke-miterlimit="10" d="M60.3,40c1,5.8-4,10.8-9.9,9.9
	c-3.5-0.6-6.4-3.4-7-7c-1-5.8,4-10.8,9.9-9.9C56.8,33.6,59.7,36.5,60.3,40z"/>
<g>
	
		<rect x="109.5" y="100.3" fill="#969696" stroke="#263238" stroke-width="0.3178" stroke-miterlimit="10" width="1.7" height="51.7"/>
	<g>
		<g>
			<path fill="#263238" d="M107.4,98.5c0,0,0.4,5.2,0.5,18.1c0.1,12.9-0.7,32.2-0.7,32.2s2.1,0.4,2.1,0c0-0.4,0.4-22.8,0.4-26.6
				c0-3.8,0.2-23.4,0.2-23.4L107.4,98.5z"/>
			<path fill="#92E3A9" stroke="#263238" stroke-width="0.3178" stroke-miterlimit="10" d="M129.8,83.4l-1.2-0.1
				c-0.2-0.2-0.4-0.4-0.5-0.5c0,0,0.1,0,0.1-0.1c0.5-0.3,0.8-0.9,0.8-0.9l-0.4-0.3l0.4-0.3c0,0-0.3-0.6-0.8-0.9c0,0-0.1,0-0.1-0.1
				c0.2-0.2,0.4-0.3,0.5-0.5l1.2-0.1c0,0-0.5-1-1.1-1.6c-0.2-0.2-0.5-0.4-0.7-0.5l0.1-0.2l-0.4,0c-0.2-0.1-0.3-0.1-0.3-0.1l2.1-1
				l-1,0c0-0.1-0.1-0.2-0.1-0.3l0.9-0.7l-0.6-1.9l-0.5,1l-0.1-2.5l-1.3,0.6l-0.7,0.3c0,0,0.5-2,0.5-2.3c0-0.2-0.1-1.4-0.1-1.4
				l-1.3,0.1l0.3-1.5l-0.5-0.7l-0.9,0.9l-0.3-1.2l-0.6,0.7l-0.4-2.5l-1.1-0.9l-0.5,0.9l-0.6-1.7l-1.2,1.3l-0.1-2.1l-0.8,1.5l-1-1.7
				l-1.3-0.5l-0.2,0.6l-1.3-1.7l-0.1,1.6l-1.5-1.4l-0.2,0.6l-0.4,0.7l-1.2-2.1l-0.6,1.2l-0.7-1.3l-0.8,1l-0.2,0.6l-0.5-1.7l-1.1,1
				l-0.7-0.9l-1.2,0.9l-1.8-1.2l-0.8,1c0,0-1.9-0.7-1.3,0.4c0.2,0.4,0.4,0.6,0.5,0.7c-0.8-0.1-2.9-0.2-3.4,0.1
				c-0.6,0.3-0.5,0.8-0.5,0.8l2,0.8L96.5,64c0,0-0.1,0.8,0.8,1.3c0.9,0.5,1.2,0.8,1.2,0.8l-3-1.3c0,0-0.7,1.3-0.6,1.7
				c0.1,0.4-0.9-0.4-0.9-0.4s-0.5,1.1-0.6,1.7c-0.1,0.6,0.5,1.8,0.5,1.8l-1.3-0.9l-0.5,1.7l-1.3-1.1c0,0-0.3,1.6-0.5,2
				c-0.2,0.4-0.4,0.9-0.4,0.9l-0.7-0.4l0.3,1.5l0.3,0.8L88.6,74l1,1.7c-0.1,0.1-0.2,0.2-0.3,0.3l-0.6,0.1l-1.6,0.5l1.3,0.9l-1.7,0.7
				l1.3,0.4c0,0.2-0.1,0.4-0.1,0.6c-0.4,0.5-1,1.3-1,1.6c0,0.4,1.4,0.3,1.4,0.3c0,0,0,0.3,0.1,0.6c-0.1,0.4-0.1,0.6-0.1,0.6
				c0,0-1.3-0.1-1.4,0.3c0,0.3,0.6,1,1,1.6c0,0.2,0,0.4,0.1,0.6l-1.3,0.4l1.7,0.7l-1.3,0.9l1.6,0.5l0.6,0.1c0.1,0.1,0.2,0.2,0.3,0.3
				l-1,1.7l1.2-0.1l-0.3,0.8l-0.3,1.5l0.7-0.4c0,0,0.2,0.5,0.4,0.9c0.2,0.4,0.5,2,0.5,2l1.3-1.1l0.5,1.7l1.3-0.9
				c0,0-0.5,1.2-0.5,1.8C93.5,95.9,94,97,94,97s1-0.8,0.9-0.4c-0.1,0.4,0.6,1.7,0.6,1.7l3-1.3c0,0-0.3,0.2-1.2,0.8
				c-0.9,0.5-0.8,1.3-0.8,1.3l3.8,0.4l-2,0.8c0,0-0.1,0.5,0.5,0.8c0.5,0.2,2.6,0.1,3.4,0.1c-0.1,0.1-0.3,0.3-0.5,0.7
				c-0.6,1.2,1.3,0.4,1.3,0.4l0.8,1l1.8-1.2l1.2,0.9l0.7-0.9l1.1,1l0.5-1.7l0.2,0.6l0.8,1l0.7-1.3l0.6,1.2l1.2-2.1l0.4,0.7l0.2,0.6
				l1.5-1.4l0.1,1.6l1.3-1.7l0.2,0.6l1.3-0.5l1-1.7l0.8,1.5l0.1-2.1l1.2,1.3l0.6-1.7l0.5,0.9l1.1-0.9l0.4-2.5l0.6,0.7l0.3-1.2
				l0.9,0.9l0.5-0.7l-0.3-1.5l1.3,0.1c0,0,0.1-1.1,0.1-1.4c0-0.2-0.5-2.3-0.5-2.3l0.7,0.3l1.3,0.6l0.1-2.5l0.5,1l0.6-1.9l-0.9-0.7
				c0.1-0.1,0.1-0.2,0.1-0.3l1,0l-2.1-1c0,0,0.1,0,0.3-0.1l0.4,0l-0.1-0.2c0.2-0.1,0.5-0.3,0.7-0.5
				C129.3,84.4,129.8,83.4,129.8,83.4z"/>
			<path fill="none" stroke="#263238" stroke-width="0.3178" stroke-miterlimit="10" d="M95.7,85.8c0,0-1.8-0.9-1.9-2
				c-0.1-1.1-0.1-1.1-0.1-1.1l2.1,1.4l-0.5-1.3l1.3,0.7l-0.2-1.1l0.9,0.7l0.6-1.4l1.1-0.9l-0.5,2.1l1.2-0.9l-0.3,1.7l2.4-0.9
				l-0.9,1.5l2-0.9l-1.1,1.1l2.4-0.7l-1.3,1.3l2.2-0.7"/>
			<path fill="none" stroke="#263238" stroke-width="0.3178" stroke-miterlimit="10" d="M103.7,79.6l-0.5-1.7l0.5-1.2l1.7,1.5
				l0.6-1.6c0,0,0.6-0.6,1-0.7l-0.6,2.4l1-1.1l1.9-0.3l-0.8,1.1l-0.9,0.9c0,0,0.7-0.5,1.5-0.5c0.9,0,2.2-0.1,2.2-0.1l-2.4,1.7
				l-1.3,0.4l2.9-0.7l-0.9,1.4l2.1-1.1l-1.3,1.5"/>
			<path fill="none" stroke="#263238" stroke-width="0.3178" stroke-miterlimit="10" d="M94.2,88.5l-0.5-1.7l0.5-1.2l1.7,1.5
				l0.6-1.6c0,0,0.6-0.6,1-0.7l-0.6,2.4l1-1.1l1.9-0.3L99,86.8l-0.9,0.9c0,0,0.7-0.5,1.5-0.5c0.9,0,2.2-0.1,2.2-0.1l-2.4,1.7
				l-1.3,0.4l2.9-0.7l-0.9,1.4l2.1-1.1l-1.3,1.5"/>
			<path fill="none" stroke="#263238" stroke-width="0.3178" stroke-miterlimit="10" d="M104.8,80.3c0,0-1.7-1.3-2.4-1.5
				c-0.7-0.2-0.7-0.2-0.7-0.2l0.4,1.2l-1.1-0.3l-0.2,2.2"/>
			<path fill="none" stroke="#263238" stroke-width="0.3178" stroke-miterlimit="10" d="M125.3,86.6c0,0,1.3-0.6,1.4-1.4
				c0.1-0.8,0.1-0.8,0.1-0.8l-1.5,1l0.3-1l-1,0.5l0.1-0.8l-0.6,0.5l-0.4-1l-0.7-0.6l0.3,1.5l-0.9-0.6l0.2,1.2l-1.7-0.6l0.6,1.1
				l-1.4-0.6l0.7,0.8l-1.7-0.5l1,1l-1.6-0.5"/>
			<path fill="none" stroke="#263238" stroke-width="0.3178" stroke-miterlimit="10" d="M114.7,89.5c0,0,1.3-0.6,1.4-1.4
				c0.1-0.8,0.1-0.8,0.1-0.8l-1.5,1l0.3-1l-1,0.5l0.1-0.8l-0.6,0.5l-0.4-1l-0.7-0.6l0.3,1.5l-0.9-0.6l0.2,1.2l-1.7-0.6l0.6,1.1
				l-1.4-0.6l0.7,0.8l-1.7-0.5l1,1l-1.6-0.5"/>
			<path fill="none" stroke="#263238" stroke-width="0.3178" stroke-miterlimit="10" d="M120.1,79.1l0.3-1.2l-0.3-0.9l-1.2,1.1
				l-0.4-1.2c0,0-0.4-0.4-0.7-0.5l0.4,1.7l-0.7-0.7l-1.4-0.2l0.5,0.7l0.6,0.6c0,0-0.5-0.3-1.1-0.3s-1.6-0.1-1.6-0.1l1.7,1.2l0.9,0.3
				l-2-0.5l0.6,1l-1.5-0.8l1,1.1"/>
			<path fill="none" stroke="#263238" stroke-width="0.3178" stroke-miterlimit="10" d="M121.8,92.3l0.3-1.2l-0.3-0.9l-1.2,1.1
				l-0.4-1.2c0,0-0.4-0.4-0.7-0.5l0.4,1.7l-0.7-0.7l-1.4-0.2l0.5,0.7l0.6,0.6c0,0-0.5-0.3-1.1-0.3c-0.6,0-1.6-0.1-1.6-0.1l1.7,1.2
				l0.9,0.3l-2-0.5l0.6,1l-1.5-0.8l1,1.1"/>
			<path fill="none" stroke="#263238" stroke-width="0.3178" stroke-miterlimit="10" d="M118.8,82.7c0,0,1.2-1,1.7-1.1
				s0.5-0.1,0.5-0.1l-0.3,0.9l0.7-0.2l0.1,1.6"/>
			<path fill="none" stroke="#263238" stroke-width="0.3178" stroke-miterlimit="10" d="M88.8,85.4c0,0,1.2-1,1.7-1.1
				c0.5-0.1,0.5-0.1,0.5-0.1l-0.3,0.9l0.7-0.2l0.1,1.6"/>
			<path fill="none" stroke="#263238" stroke-width="0.3178" stroke-miterlimit="10" d="M102.1,67.3c0,0,1.2-1,1.7-1.1
				s0.5-0.1,0.5-0.1L104,67l0.7-0.2l0.1,1.6"/>
			<path fill="none" stroke="#263238" stroke-width="0.3178" stroke-miterlimit="10" d="M120.5,73.1c0,0,1.3-0.6,1.4-1.4
				c0.1-0.8,0.1-0.8,0.1-0.8l-1.5,1l0.3-1l-1,0.5l0.1-0.8l-0.6,0.5l-0.4-1l-0.7-0.6l0.3,1.5l-0.9-0.6l0.2,1.2l-1.7-0.6l0.6,1.1
				l-1.4-0.6l0.7,0.8l-1.7-0.5l1,1l-1.6-0.5"/>
			<path fill="none" stroke="#263238" stroke-width="0.3178" stroke-miterlimit="10" d="M108.4,73.1c0,0,1.3-0.6,1.4-1.4
				c0.1-0.8,0.1-0.8,0.1-0.8l-1.5,1l0.3-1l-1,0.5l0.1-0.8l-0.6,0.5l-0.4-1l-0.7-0.6l0.3,1.5l-0.9-0.6l0.2,1.2l-1.7-0.6l0.6,1.1
				l-1.4-0.6l0.7,0.8l-1.7-0.5l1,1l-1.6-0.5"/>
			<path fill="none" stroke="#263238" stroke-width="0.3178" stroke-miterlimit="10" d="M111.5,98.3c0,0,1.3-0.6,1.4-1.4
				c0.1-0.8,0.1-0.8,0.1-0.8l-1.5,1l0.3-1l-1,0.5l0.1-0.8l-0.6,0.5l-0.4-1l-0.7-0.6l0.3,1.5l-0.9-0.6l0.2,1.2l-1.7-0.6l0.6,1.1
				l-1.4-0.6l0.7,0.8l-1.7-0.5l1,1l-1.6-0.5"/>
			<path fill="none" stroke="#263238" stroke-width="0.3178" stroke-miterlimit="10" d="M95.9,75.2c0,0-1.3-0.6-1.4-1.4
				c-0.1-0.8-0.1-0.8-0.1-0.8l1.5,1l-0.3-1l1,0.5l-0.1-0.8l0.6,0.5l0.4-1l0.7-0.6L97.9,73l0.9-0.6l-0.2,1.2l1.7-0.6l-0.6,1.1
				l1.4-0.6l-0.7,0.8l1.7-0.5l-1,1l1.6-0.5"/>
			<path fill="none" stroke="#263238" stroke-width="0.3178" stroke-miterlimit="10" d="M114.8,68.7l0.3-1.2l-0.3-0.9l-1.2,1.1
				l-0.4-1.2c0,0-0.4-0.4-0.7-0.5l0.4,1.7l-0.7-0.7l-1.4-0.2l0.5,0.7l0.6,0.6c0,0-0.5-0.3-1.1-0.3s-1.6-0.1-1.6-0.1l1.7,1.2l0.9,0.3
				l-2-0.5l0.6,1l-1.5-0.8l1,1.1"/>
			<path fill="none" stroke="#263238" stroke-width="0.3178" stroke-miterlimit="10" d="M114.1,69.2c0,0,1.2-1,1.7-1.1
				c0.5-0.1,0.5-0.1,0.5-0.1l-0.3,0.9l0.7-0.2l0.1,1.6"/>
			<g>
				<path fill="#FFFFFF" stroke="#263238" stroke-width="0.3178" stroke-miterlimit="10" d="M110.6,73.1c0,0-0.6-1.3-1.2-1.1
					c-0.6,0.2-0.9,1.3-0.5,1.4c0.3,0.1,0.6,0.1,0.6,0.1s-0.6,0.4-0.6,0.7c0,0.3,0.1,0.7,0.3,0.8c0.2,0.2,0.9-0.3,0.9-0.3
					s-0.1,0.6,0.2,0.8c0.3,0.1,0.6,0.3,0.8,0c0.2-0.2,0.2-1,0.2-1s0.1,0.7,0.6,0.7c0.5,0,0.8-0.3,0.8-0.5c0-0.3-0.5-0.8-0.5-0.8
					s0.6,0,0.6-0.3s0-0.6-0.2-0.8c-0.2-0.2-0.9,0-0.9,0s0.3-0.8,0-1c-0.2-0.2-0.6-0.3-0.8-0.2C110.9,71.9,110.6,73.1,110.6,73.1z"/>
				<path fill="#FFFFFF" stroke="#263238" stroke-width="0.1589" stroke-miterlimit="10" d="M111.1,73.9c0.1,0.2-0.1,0.4-0.3,0.3
					c-0.1,0-0.1-0.1-0.2-0.2c-0.1-0.2,0.1-0.4,0.3-0.3C111.1,73.8,111.1,73.8,111.1,73.9z"/>
			</g>
			<g>
				<path fill="#FFFFFF" stroke="#263238" stroke-width="0.3178" stroke-miterlimit="10" d="M103.8,92.5c0,0-0.6-1.3-1.2-1.1
					c-0.6,0.2-0.9,1.3-0.5,1.4c0.3,0.1,0.6,0.1,0.6,0.1s-0.6,0.4-0.6,0.7s0.1,0.7,0.3,0.8c0.2,0.2,0.9-0.3,0.9-0.3s-0.1,0.6,0.2,0.8
					c0.3,0.1,0.6,0.3,0.8,0c0.2-0.2,0.2-1,0.2-1s0.1,0.7,0.6,0.7c0.5,0,0.8-0.3,0.8-0.5c0-0.3-0.5-0.8-0.5-0.8s0.6,0,0.6-0.3
					s0-0.6-0.2-0.8c-0.2-0.2-0.9,0-0.9,0s0.3-0.8,0-1s-0.6-0.3-0.8-0.2C104.1,91.3,103.8,92.5,103.8,92.5z"/>
				<circle fill="#FFFFFF" stroke="#263238" stroke-width="0.1589" stroke-miterlimit="10" cx="104.1" cy="93.3" r="0.3"/>
			</g>
			<g>
				<path fill="#FFFFFF" stroke="#263238" stroke-width="0.3178" stroke-miterlimit="10" d="M104.8,62.6c0,0-0.6-1.1-1.2-0.9
					c-0.6,0.2-0.9,1.1-0.5,1.2c0.3,0.1,0.6,0.1,0.6,0.1s-0.6,0.4-0.6,0.6c0,0.3,0.1,0.6,0.3,0.7c0.2,0.1,0.9-0.3,0.9-0.3
					s-0.1,0.6,0.2,0.7c0.3,0.1,0.6,0.2,0.8,0c0.2-0.2,0.2-0.8,0.2-0.8s0.1,0.6,0.6,0.6c0.5,0,0.8-0.2,0.8-0.5c0-0.2-0.5-0.7-0.5-0.7
					s0.6,0,0.6-0.3c0-0.3,0-0.5-0.2-0.7c-0.2-0.2-0.9,0-0.9,0s0.3-0.7,0-0.8c-0.2-0.2-0.6-0.2-0.8-0.1
					C105,61.5,104.8,62.6,104.8,62.6z"/>
				<ellipse fill="#FFFFFF" stroke="#263238" stroke-width="0.1589" stroke-miterlimit="10" cx="105" cy="63.4" rx="0.3" ry="0.2"/>
			</g>
			<g>
				<path fill="#FFFFFF" stroke="#263238" stroke-width="0.3178" stroke-miterlimit="10" d="M118.1,65.2c0,0-0.6-1.1-1.2-0.9
					c-0.6,0.2-0.9,1.1-0.5,1.2c0.3,0.1,0.6,0.1,0.6,0.1s-0.6,0.4-0.6,0.6c0,0.3,0.1,0.6,0.3,0.7c0.2,0.1,0.9-0.3,0.9-0.3
					s-0.1,0.6,0.2,0.7s0.6,0.2,0.8,0s0.2-0.8,0.2-0.8s0.1,0.6,0.6,0.6c0.5,0,0.8-0.2,0.8-0.5c0-0.2-0.5-0.7-0.5-0.7s0.6,0,0.6-0.3
					s0-0.5-0.2-0.7c-0.2-0.2-0.9,0-0.9,0s0.3-0.7,0-0.8c-0.2-0.2-0.6-0.2-0.8-0.1C118.4,64.1,118.1,65.2,118.1,65.2z"/>
				<ellipse fill="#FFFFFF" stroke="#263238" stroke-width="0.1589" stroke-miterlimit="10" cx="118.4" cy="66" rx="0.3" ry="0.2"/>
			</g>
			<g>
				<path fill="#FFFFFF" stroke="#263238" stroke-width="0.3178" stroke-miterlimit="10" d="M103.3,84.3c0,0-0.6-1.3-1.2-1.1
					c-0.6,0.2-0.9,1.3-0.5,1.4c0.3,0.1,0.6,0.1,0.6,0.1s-0.6,0.4-0.6,0.7c0,0.3,0.1,0.7,0.3,0.8s0.9-0.3,0.9-0.3s-0.1,0.6,0.2,0.8
					c0.3,0.1,0.6,0.3,0.8,0c0.2-0.2,0.2-1,0.2-1s0.1,0.7,0.6,0.7c0.5,0,0.8-0.3,0.8-0.5s-0.5-0.8-0.5-0.8s0.6,0,0.6-0.3
					c0-0.3,0-0.6-0.2-0.8c-0.2-0.2-0.9,0-0.9,0s0.3-0.8,0-1c-0.2-0.2-0.6-0.3-0.8-0.2C103.6,83,103.3,84.3,103.3,84.3z"/>
				<circle fill="#FFFFFF" stroke="#263238" stroke-width="0.1589" stroke-miterlimit="10" cx="103.6" cy="85.1" r="0.3"/>
			</g>
			<g>
				<path fill="#FFFFFF" stroke="#263238" stroke-width="0.3178" stroke-miterlimit="10" d="M121.2,71.6c0,0-0.6-1.3-1.2-1.1
					c-0.6,0.2-0.9,1.3-0.5,1.4c0.3,0.1,0.6,0.1,0.6,0.1s-0.6,0.4-0.6,0.7c0,0.3,0.1,0.7,0.3,0.8s0.9-0.3,0.9-0.3s-0.1,0.6,0.2,0.8
					c0.3,0.1,0.6,0.3,0.8,0c0.2-0.2,0.2-1,0.2-1s0.1,0.7,0.6,0.7c0.5,0,0.8-0.3,0.8-0.5c0-0.3-0.5-0.8-0.5-0.8s0.6,0,0.6-0.3
					c0-0.3,0-0.6-0.2-0.8c-0.2-0.2-0.9,0-0.9,0s0.3-0.8,0-1c-0.2-0.2-0.6-0.3-0.8-0.2C121.5,70.3,121.2,71.6,121.2,71.6z"/>
				<circle fill="#FFFFFF" stroke="#263238" stroke-width="0.1589" stroke-miterlimit="10" cx="121.5" cy="72.4" r="0.3"/>
			</g>
			<g>
				<path fill="#FFFFFF" stroke="#263238" stroke-width="0.3178" stroke-miterlimit="10" d="M90.3,78.7c0,0-0.6-1.3-1.2-1.1
					c-0.6,0.2-0.9,1.3-0.5,1.4c0.3,0.1,0.6,0.1,0.6,0.1s-0.6,0.4-0.6,0.7c0,0.3,0.1,0.7,0.3,0.8c0.2,0.2,0.9-0.3,0.9-0.3
					s-0.1,0.6,0.2,0.8s0.6,0.3,0.8,0c0.2-0.2,0.2-1,0.2-1s0.1,0.7,0.6,0.7c0.5,0,0.8-0.3,0.8-0.5c0-0.3-0.5-0.8-0.5-0.8
					s0.6,0,0.6-0.3s0-0.6-0.2-0.8c-0.2-0.2-0.9,0-0.9,0s0.3-0.8,0-1c-0.2-0.2-0.6-0.3-0.8-0.2C90.5,77.5,90.3,78.7,90.3,78.7z"/>
				<circle fill="#FFFFFF" stroke="#263238" stroke-width="0.1589" stroke-miterlimit="10" cx="90.5" cy="79.6" r="0.3"/>
			</g>
			<g>
				<path fill="#FFFFFF" stroke="#263238" stroke-width="0.3178" stroke-miterlimit="10" d="M98.8,78.2c0,0-0.4-1-0.9-0.8
					c-0.5,0.1-0.7,1-0.4,1.1c0.3,0.1,0.5,0.1,0.5,0.1s-0.5,0.3-0.5,0.6c0,0.2,0.1,0.5,0.3,0.6s0.7-0.3,0.7-0.3S98.4,80,98.6,80
					c0.2,0.1,0.5,0.2,0.6,0c0.1-0.2,0.1-0.7,0.1-0.7s0.1,0.6,0.4,0.5c0.4,0,0.6-0.2,0.6-0.4c0-0.2-0.4-0.6-0.4-0.6s0.5,0,0.5-0.3
					c0-0.2,0-0.5-0.1-0.6c-0.2-0.2-0.7,0-0.7,0s0.2-0.6,0-0.7c-0.2-0.1-0.5-0.2-0.6-0.1C99,77.2,98.8,78.2,98.8,78.2z"/>
				<circle fill="#FFFFFF" stroke="#263238" stroke-width="0.1589" stroke-miterlimit="10" cx="99" cy="78.8" r="0.2"/>
			</g>
			<g>
				<path fill="#FFFFFF" stroke="#263238" stroke-width="0.3178" stroke-miterlimit="10" d="M108.4,68c0,0-0.4-1-0.9-0.8
					c-0.5,0.1-0.7,1-0.4,1.1c0.3,0.1,0.5,0.1,0.5,0.1s-0.5,0.3-0.5,0.6c0,0.2,0.1,0.5,0.3,0.6c0.2,0.1,0.7-0.3,0.7-0.3
					s-0.1,0.5,0.2,0.6c0.2,0.1,0.5,0.2,0.6,0c0.1-0.2,0.1-0.7,0.1-0.7s0.1,0.6,0.4,0.5c0.4,0,0.6-0.2,0.6-0.4c0-0.2-0.4-0.6-0.4-0.6
					s0.5,0,0.5-0.3c0-0.2,0-0.5-0.1-0.6c-0.2-0.2-0.7,0-0.7,0s0.2-0.6,0-0.7c-0.2-0.1-0.5-0.2-0.6-0.1C108.6,67,108.4,68,108.4,68z"
					/>
				<circle fill="#FFFFFF" stroke="#263238" stroke-width="0.1589" stroke-miterlimit="10" cx="108.6" cy="68.6" r="0.2"/>
			</g>
			<g>
				<path fill="#FFFFFF" stroke="#263238" stroke-width="0.3178" stroke-miterlimit="10" d="M125.9,77.5c0,0-0.4-1-0.9-0.8
					c-0.5,0.1-0.7,1-0.4,1.1c0.3,0.1,0.5,0.1,0.5,0.1s-0.5,0.3-0.5,0.6c0,0.2,0.1,0.5,0.3,0.6c0.2,0.1,0.7-0.3,0.7-0.3
					s-0.1,0.5,0.2,0.6c0.2,0.1,0.5,0.2,0.6,0c0.1-0.2,0.1-0.7,0.1-0.7s0.1,0.6,0.4,0.5c0.4,0,0.6-0.2,0.6-0.4c0-0.2-0.4-0.6-0.4-0.6
					s0.5,0,0.5-0.3c0-0.2,0-0.5-0.1-0.6c-0.2-0.2-0.7,0-0.7,0s0.2-0.6,0-0.7c-0.2-0.1-0.5-0.2-0.6-0.1
					C126.1,76.5,125.9,77.5,125.9,77.5z"/>
				<circle fill="#FFFFFF" stroke="#263238" stroke-width="0.1589" stroke-miterlimit="10" cx="126.2" cy="78.1" r="0.2"/>
			</g>
			<g>
				<path fill="#FFFFFF" stroke="#263238" stroke-width="0.3178" stroke-miterlimit="10" d="M111.8,84.2c0,0-0.4-1-0.9-0.8
					c-0.5,0.1-0.7,1-0.4,1.1c0.3,0.1,0.5,0.1,0.5,0.1s-0.5,0.3-0.5,0.6c0,0.2,0.1,0.5,0.3,0.6c0.2,0.1,0.7-0.3,0.7-0.3
					s-0.1,0.5,0.2,0.6c0.2,0.1,0.5,0.2,0.6,0c0.1-0.2,0.1-0.7,0.1-0.7s0.1,0.6,0.4,0.5c0.4,0,0.6-0.2,0.6-0.4c0-0.2-0.4-0.6-0.4-0.6
					s0.5,0,0.5-0.3c0-0.2,0-0.5-0.1-0.6c-0.2-0.2-0.7,0-0.7,0s0.2-0.6,0-0.7c-0.2-0.1-0.5-0.2-0.6-0.1
					C112,83.2,111.8,84.2,111.8,84.2z"/>
				<circle fill="#FFFFFF" stroke="#263238" stroke-width="0.1589" stroke-miterlimit="10" cx="112" cy="84.8" r="0.2"/>
			</g>
			<g>
				<path fill="#FFFFFF" stroke="#263238" stroke-width="0.3178" stroke-miterlimit="10" d="M113.2,93.2c0,0-0.4-1-0.9-0.8
					c-0.5,0.1-0.7,1-0.4,1.1c0.3,0.1,0.5,0.1,0.5,0.1s-0.5,0.3-0.5,0.6c0,0.2,0.1,0.5,0.3,0.6c0.2,0.1,0.7-0.3,0.7-0.3
					s-0.1,0.5,0.2,0.6c0.2,0.1,0.5,0.2,0.6,0c0.1-0.2,0.1-0.7,0.1-0.7s0.1,0.6,0.4,0.5c0.4,0,0.6-0.2,0.6-0.4c0-0.2-0.4-0.6-0.4-0.6
					s0.5,0,0.5-0.3c0-0.2,0-0.5-0.1-0.6c-0.2-0.2-0.7,0-0.7,0s0.2-0.6,0-0.7c-0.2-0.1-0.5-0.2-0.6-0.1
					C113.4,92.2,113.2,93.2,113.2,93.2z"/>
				<circle fill="#FFFFFF" stroke="#263238" stroke-width="0.1589" stroke-miterlimit="10" cx="113.4" cy="93.9" r="0.2"/>
			</g>
			<g>
				<path fill="#FFFFFF" stroke="#263238" stroke-width="0.3178" stroke-miterlimit="10" d="M96.9,69.9c0,0-0.4-1-0.9-0.8
					c-0.5,0.1-0.7,1-0.4,1.1c0.3,0.1,0.5,0.1,0.5,0.1s-0.5,0.3-0.5,0.6c0,0.2,0.1,0.5,0.3,0.6c0.2,0.1,0.7-0.3,0.7-0.3
					s-0.1,0.5,0.2,0.6c0.2,0.1,0.5,0.2,0.6,0c0.1-0.2,0.1-0.7,0.1-0.7s0.1,0.6,0.4,0.5c0.4,0,0.6-0.2,0.6-0.4c0-0.2-0.4-0.6-0.4-0.6
					s0.5,0,0.5-0.3c0-0.2,0-0.5-0.1-0.6c-0.2-0.2-0.7,0-0.7,0s0.2-0.6,0-0.7c-0.2-0.1-0.5-0.2-0.6-0.1C97.1,69,96.9,69.9,96.9,69.9z
					"/>
				<circle fill="#FFFFFF" stroke="#263238" stroke-width="0.1589" stroke-miterlimit="10" cx="97.1" cy="70.6" r="0.2"/>
			</g>
			<g>
				<path fill="#FFFFFF" stroke="#263238" stroke-width="0.3178" stroke-miterlimit="10" d="M118.8,83.7c0,0-0.4-1-0.9-0.8
					c-0.5,0.1-0.7,1-0.4,1.1c0.3,0.1,0.5,0.1,0.5,0.1s-0.5,0.3-0.5,0.6c0,0.2,0.1,0.5,0.3,0.6c0.2,0.1,0.7-0.3,0.7-0.3
					s-0.1,0.5,0.2,0.6c0.2,0.1,0.5,0.2,0.6,0c0.1-0.2,0.1-0.7,0.1-0.7s0.1,0.6,0.4,0.5c0.4,0,0.6-0.2,0.6-0.4c0-0.2-0.4-0.6-0.4-0.6
					s0.5,0,0.5-0.3c0-0.2,0-0.5-0.1-0.6c-0.2-0.2-0.7,0-0.7,0s0.2-0.6,0-0.7c-0.2-0.1-0.5-0.2-0.6-0.1
					C119,82.8,118.8,83.7,118.8,83.7z"/>
				<circle fill="#FFFFFF" stroke="#263238" stroke-width="0.1589" stroke-miterlimit="10" cx="119" cy="84.4" r="0.2"/>
			</g>
			<g>
				<path fill="#FFFFFF" stroke="#263238" stroke-width="0.3178" stroke-miterlimit="10" d="M97.3,93.8c0,0-0.4-1-0.9-0.8
					c-0.5,0.1-0.7,1-0.4,1.1c0.3,0.1,0.5,0.1,0.5,0.1S96,94.5,96,94.7c0,0.2,0.1,0.5,0.3,0.6c0.2,0.1,0.7-0.3,0.7-0.3
					s-0.1,0.5,0.2,0.6c0.2,0.1,0.5,0.2,0.6,0c0.1-0.2,0.1-0.7,0.1-0.7s0.1,0.6,0.4,0.5c0.4,0,0.6-0.2,0.6-0.4c0-0.2-0.4-0.6-0.4-0.6
					s0.5,0,0.5-0.3c0-0.2,0-0.5-0.1-0.6c-0.2-0.2-0.7,0-0.7,0s0.2-0.6,0-0.7c-0.2-0.1-0.5-0.2-0.6-0.1
					C97.5,92.8,97.3,93.8,97.3,93.8z"/>
				<circle fill="#FFFFFF" stroke="#263238" stroke-width="0.1589" stroke-miterlimit="10" cx="97.5" cy="94.5" r="0.2"/>
			</g>
		</g>
	</g>
	<polygon fill="#263238" points="120.2,148 98.4,148 101.7,163.2 116.9,163.2 	"/>
	<g>
		<path fill="#92E3A9" stroke="#263238" stroke-width="0.3178" stroke-miterlimit="10" d="M111.3,108H108c-0.2,0-0.3-0.1-0.3-0.3
			l0,0c0-0.2,0.1-0.3,0.3-0.3h3.2c0.2,0,0.3,0.1,0.3,0.3l0,0C111.6,107.9,111.5,108,111.3,108z"/>
		<path fill="#92E3A9" stroke="#263238" stroke-width="0.3178" stroke-miterlimit="10" d="M111.3,125.8H108c-0.2,0-0.3-0.1-0.3-0.3
			l0,0c0-0.2,0.1-0.3,0.3-0.3h3.2c0.2,0,0.3,0.1,0.3,0.3v0C111.6,125.7,111.5,125.8,111.3,125.8z"/>
		<path fill="#92E3A9" stroke="#263238" stroke-width="0.3178" stroke-miterlimit="10" d="M111.3,144.5h-3.6c-0.2,0-0.3-0.1-0.3-0.3
			l0,0c0-0.2,0.1-0.3,0.3-0.3h3.6c0.2,0,0.3,0.1,0.3,0.3l0,0C111.6,144.3,111.5,144.5,111.3,144.5z"/>
	</g>
</g>
<g>
	<g>
		
			<path fill="#92E3A9" stroke="#263238" stroke-width="0.3178" stroke-linecap="round" stroke-linejoin="round" stroke-miterlimit="10" d="
			M125.6,131c0,0-0.5-8.4,0.5-13.3c1-4.9,2.9-9.2,2.9-9.2s3.5,11.7,4.6,16.5c1.1,4.8,2.2,13,2.2,13s5.6-13.9,8.1-16.7
			c2.5-2.8,5.9-4.9,5.9-4.9l-0.4,14.3c0,0,10.2-6,11-6.3c0.8-0.3-1,10-1,10s-3.3,7.2-7.2,10.6c-3.8,3.4-16.5,8.7-16.5,8.7
			s-18-10.2-20.8-12.5c-2.9-2.3-7.1-13.2-7.1-13.2l12.5,8.5L125.6,131z"/>
		
			<path fill="#92E3A9" stroke="#263238" stroke-width="0.3178" stroke-linecap="round" stroke-linejoin="round" stroke-miterlimit="10" d="
			M130.4,156.5c0,0-11.7-9.8-15-18.4c-3.3-8.6-8.1-21.3-8.2-22.3c-0.1-1,8,6,12.4,11.6c4.4,5.6,17.9,29.6,17.9,29.6
			S132.8,159.2,130.4,156.5z"/>
		
			<path fill="#92E3A9" stroke="#263238" stroke-width="0.3178" stroke-linecap="round" stroke-linejoin="round" stroke-miterlimit="10" d="
			M137.5,156.9c0,0,3.4-22.2,8.2-29.2c4.7-7,10.5-12.9,11.8-14.2c1.3-1.3-0.4,5.9-3.3,15.4c-2.9,9.5-2.5,11.5-5.4,17.4
			C145.9,152.2,137.5,156.9,137.5,156.9z"/>
		
			<path fill="#92E3A9" stroke="#263238" stroke-width="0.3178" stroke-linecap="round" stroke-linejoin="round" stroke-miterlimit="10" d="
			M137.5,156.9c0,0,10.5-18.3,17.9-25c7.4-6.7,19-12.3,19-12.3s-2.6,10.5-8.3,18c-5.8,7.5-13,13.4-16.4,14.8
			C146.2,153.7,137.5,156.9,137.5,156.9z"/>
		
			<path fill="#92E3A9" stroke="#263238" stroke-width="0.3178" stroke-linecap="round" stroke-linejoin="round" stroke-miterlimit="10" d="
			M137.5,156.9c0,0-8.1-4-14.5-10.5c-6.4-6.5-17.3-15.8-17.3-15.8s0.3,5.4,4.2,10.9c3.9,5.6,6.6,10.6,11.6,12.6
			C126.6,156,137.3,158.7,137.5,156.9z"/>
		
			<path fill="#92E3A9" stroke="#263238" stroke-width="0.3178" stroke-linecap="round" stroke-linejoin="round" stroke-miterlimit="10" d="
			M135.7,153.6c0,0-15.4-15.9-16-26.3c-0.7-10.5-2-17.8-2-17.8s3.7,3.5,10.7,18.5c6.9,15,9.9,19.3,9.2,29L135.7,153.6z"/>
		
			<path fill="#92E3A9" stroke="#263238" stroke-width="0.3178" stroke-linecap="round" stroke-linejoin="round" stroke-miterlimit="10" d="
			M137.5,156.9c0,0-6.2-20.8-5-27.5c1.2-6.7,6.7-18.7,6.7-18.7s4.2,14.2,4.4,21.6C143.7,139.7,137.5,156.9,137.5,156.9z"/>
	</g>
	
		<polygon fill="#FFFFFF" stroke="#263238" stroke-width="0.3178" stroke-linecap="round" stroke-linejoin="round" stroke-miterlimit="10" points="
		109.1,154.5 164.5,153.8 165.1,162.7 109.7,163.5 	"/>
</g>
<g>
	
		<path fill="#92E3A9" stroke="#263238" stroke-width="0.3178" stroke-linecap="round" stroke-linejoin="round" stroke-miterlimit="10" d="
		M59.2,126c0,0,0.2-5.2,2.5-8.1c2.4-2.9,4.9-4.3,4.9-4.3s-1.5,6.6-3.4,9.2C61.2,125.4,59.2,126,59.2,126z"/>
	
		<line fill="none" stroke="#263238" stroke-width="0.3178" stroke-linecap="round" stroke-linejoin="round" stroke-miterlimit="10" x1="59.7" y1="125" x2="64.2" y2="117.3"/>
	
		<path fill="#92E3A9" stroke="#263238" stroke-width="0.3178" stroke-linecap="round" stroke-linejoin="round" stroke-miterlimit="10" d="
		M56.3,120.8c0,0-2.1-6.1-5-8.1c-2.9-2-4.1-2.4-4.1-2.4s1.7,5.4,3.8,7.3C53.1,119.6,56.3,120.8,56.3,120.8z"/>
	
		<path fill="none" stroke="#263238" stroke-width="0.3178" stroke-linecap="round" stroke-linejoin="round" stroke-miterlimit="10" d="
		M55.7,120.2c0,0-5.9-5.9-6-6.2"/>
	<g>
		
			<path fill="#FFFFFF" stroke="#263238" stroke-width="0.3178" stroke-linecap="round" stroke-linejoin="round" stroke-miterlimit="10" d="
			M60.6,102.2c1.3-2.4,2.3-4.6,2.3-4.6S61.7,99.7,60.6,102.2z"/>
		
			<path fill="#263238" stroke="#263238" stroke-width="0.3178" stroke-linecap="round" stroke-linejoin="round" stroke-miterlimit="10" d="
			M60.4,112.2c-2,5.4-3.1,10.3-3.1,10.3s-0.5-9.9,0.8-14c0.5-1.8,1.6-4.2,2.5-6.2c-0.4,0.7-0.8,1.4-1.3,2.1c-2,2.9-2.2,4.1-2.2,4.1
			l-0.2-12.1l-0.7,1.8c0,0,0.1,6,0.2,11.8c-0.5-1.9-1.8-7.2-3.1-10.9c-1.7-4.6-5-5.6-5-5.6s2.9,2,4.4,6.3c1.2,3.5,3.1,12,3.7,15.1
			c0,2.6,0,4.7-0.1,5.5c0,0-1.4-9.3-3.4-13.5c-2.1-4.1-5.1-4.8-5.1-4.8s3.1,1.3,4.8,6.2c1.4,4,3,11.6,3.6,14.3
			c-0.4,6-1.1,25.6-1.3,28.8c0,0.4,0.3,0.6,0.6,0.6h2.2c0.3,0,0.6-0.3,0.6-0.6c-0.1-3-0.3-20.3,0-22c0.4-1.9,1.4-4.3,1.4-4.3
			l-1.9,2.7c0,0,1.1-13.4,4.6-18c3.5-4.6,5.8-6.5,5.8-6.5S62.4,106.8,60.4,112.2z"/>
	</g>
	
		<path fill="#92E3A9" stroke="#263238" stroke-width="0.3178" stroke-linecap="round" stroke-linejoin="round" stroke-miterlimit="10" d="
		M50.7,103.7c0,0-2.6-3.8-5.9-5.1c-3.3-1.3-12.2,0.8-15.6,3.2c-3.4,2.4-4.9,3.9-4.9,3.9s7.7,2.5,13.5,2.4s8.4-1.5,10.1-2.6
		C49.4,104.3,50.7,103.7,50.7,103.7z"/>
	
		<path fill="none" stroke="#263238" stroke-width="0.3178" stroke-linecap="round" stroke-linejoin="round" stroke-miterlimit="10" d="
		M50.7,103.7c0,0-3.1-2-9.9-1.8c-6.8,0.3-14.8,3.4-14.8,3.4"/>
	
		<path fill="#92E3A9" stroke="#263238" stroke-width="0.3178" stroke-linecap="round" stroke-linejoin="round" stroke-miterlimit="10" d="
		M65.8,105c0,0,0.6-3.5,3.4-5.1c2.8-1.6,7.8-0.7,12.4,1.3c4.6,2,7.8,5.4,7.8,5.4s-8,0.8-11.8,0.6C73.9,106.9,65.8,105,65.8,105z"/>
	
		<path fill="#92E3A9" stroke="#263238" stroke-width="0.3178" stroke-linecap="round" stroke-linejoin="round" stroke-miterlimit="10" d="
		M65.8,105c0,0,3.4-1.6,7.6-1.1c4.2,0.5,8.3,1.4,12.1,2.1c3.9,0.7,3.9,0.7,3.9,0.7s-3.9,1-10.4,1C72.4,107.7,65.8,105,65.8,105z"/>
	
		<path fill="#92E3A9" stroke="#263238" stroke-width="0.3178" stroke-linecap="round" stroke-linejoin="round" stroke-miterlimit="10" d="
		M62.4,98.7c0,0-1.2-4.7,0.7-7.5c1.9-2.8,7.3-5.5,12.2-5.7c4.9-0.3,11.3,1.6,11.3,1.6s-3.1,3.2-7.5,6c-4.4,2.8-9,5.2-11.9,5.6
		C64.2,99,62.4,98.7,62.4,98.7z"/>
	
		<path fill="none" stroke="#263238" stroke-width="0.3178" stroke-linecap="round" stroke-linejoin="round" stroke-miterlimit="10" d="
		M62.8,97.6c0,0,2.9-3.6,6.8-6.2c3.8-2.6,13-3.8,13.6-3.8"/>
	
		<path fill="#92E3A9" stroke="#263238" stroke-width="0.3178" stroke-linecap="round" stroke-linejoin="round" stroke-miterlimit="10" d="
		M56.2,98.1c0,0-3.6-7.2-4-14.3C51.8,76.6,54,66.1,54,66.1s4.4,12.5,4.8,18.6C59.2,90.8,56.2,98.1,56.2,98.1z"/>
	
		<line fill="none" stroke="#263238" stroke-width="0.3178" stroke-linecap="round" stroke-linejoin="round" stroke-miterlimit="10" x1="56.3" y1="95.7" x2="54.3" y2="70.5"/>
	
		<path fill="#92E3A9" stroke="#263238" stroke-width="0.3178" stroke-linecap="round" stroke-linejoin="round" stroke-miterlimit="10" d="
		M56.4,98.9c0,0,9.6-10.3,12.7-16.7c3.1-6.4,3.8-13.8,3.8-13.8s-8.6,4-12.3,10.3c-3.8,6.2-5.1,9.6-5.1,12.6
		C55.5,94.3,56.4,98.9,56.4,98.9z"/>
	
		<path fill="none" stroke="#263238" stroke-width="0.3178" stroke-linecap="round" stroke-linejoin="round" stroke-miterlimit="10" d="
		M56.7,98.2c0,0,1.5-5.6,7.5-14.6c6-9.1,7.4-12.4,7.4-12.4"/>
	
		<path fill="#92E3A9" stroke="#263238" stroke-width="0.3178" stroke-linecap="round" stroke-linejoin="round" stroke-miterlimit="10" d="
		M50.4,94.8c0,0-4.4-5.6-7.5-7.3c-3.1-1.8-15.5,0.2-15.5,0.2s6.3,4.7,12.7,6.3C46.5,95.5,50.4,94.8,50.4,94.8z"/>
	
		<path fill="none" stroke="#263238" stroke-width="0.3178" stroke-linecap="round" stroke-linejoin="round" stroke-miterlimit="10" d="
		M32,88.4c0,0,12.4,3.1,17.7,6.2"/>
	
		<path fill="#92E3A9" stroke="#263238" stroke-width="0.3178" stroke-linecap="round" stroke-linejoin="round" stroke-miterlimit="10" d="
		M55.6,94.3c0,0-1.4-8.1-5.6-14c-4.2-5.9-14.6-10.5-14.6-10.5s4,17.2,9.6,20.8c5.6,3.6,11.2,7.6,11.2,7.6L55.6,94.3z"/>
	
		<line fill="none" stroke="#263238" stroke-width="0.3178" stroke-linecap="round" stroke-linejoin="round" stroke-miterlimit="10" x1="56.2" y1="98.1" x2="38.8" y2="74.3"/>
	
		<path fill="#7A7A7A" stroke="#263238" stroke-width="0.3178" stroke-linecap="round" stroke-linejoin="round" stroke-miterlimit="10" d="
		M65.1,162.7l-1-2.6l-14.5-0.1l-0.8,2.6c0.2,0.2,0.2,0.3,0.4,0.5h15.6C65,163.3,65.2,163,65.1,162.7z"/>
	
		<path fill="#BABABA" stroke="#263238" stroke-width="0.3178" stroke-linecap="round" stroke-linejoin="round" stroke-miterlimit="10" d="
		M50.3,161.9h13.6c1.3,0,2.4-1,2.4-2.4l0,0c0,0,0.9-1.7,2.1-9.8H45.6c0.3,2.4,1,5.9,2.3,9.8c0,0,0,0,0,0
		C47.9,160.9,49,161.9,50.3,161.9z"/>
</g>
<g>
	<path fill="#263238" d="M47.4,154.1c3.4,3.6,5,6.6,5.3,7.4c0.2,0.5,0.5,1.3,0.7,1.7h2.9c-0.7-1.3-2.6-4.7-3.6-6.1
		c-1.2-1.7-3.7-4.3-3.9-4.6c-0.2-0.3,2.2-6.9,2.2-6.9l-3.5,6l-6.9-5.2l-2,0.2C38.6,146.5,44,150.5,47.4,154.1z"/>
	<path fill="#263238" d="M55.5,163.3h2.3l-0.5-1l-1.4-7.8l3.4-10.7l-4.7,9.3l0.5-8.6c0,0-1.3,1.6-1.3,2c0,0.3-0.2,4.2-0.3,6.7
		c-0.1,2.5,2.1,9.7,2.1,9.7L55.5,163.3z"/>
	<path fill="#263238" d="M60.1,156.3c-0.2,0.9-1.6,5.5-2.1,6.9h3.3l1.2-5.3l4.4-7.1l0.8-5.3l-2.2,4.5l-3.7,4.1l3.5-10.2l-1.9,0.7
		l-2.3,5.7l-2.3-2.4l2.1,3.7C61,151.6,60.4,155.3,60.1,156.3z"/>
	<g>
		<path fill="#92E3A9" stroke="#263238" stroke-width="0.3178" stroke-miterlimit="10" d="M80.6,138.8l1.9-1.3c0,0-0.3-0.7-1-1.1
			c-0.7-0.4-1.3-0.6-1.3-0.6l3.5-0.3c0,0-0.7-1.4-1.5-2.1c-0.8-0.7-1.7-1-1.7-1l2.7-1.3l-2-0.1l1.7-1.3l-0.8-2.6l-0.7,1.3l-0.1-3.3
			l-1.7,0.8l-0.9,0.3c0,0,0.7-2.7,0.7-3c0-0.3-0.1-1.8-0.1-1.8l-1.7,0.1l0.3-1.9l-0.7-0.9l-1.2,1.2l-0.4-1.6l-0.8,1l-0.5-3.3
			l-1.5-1.2l-0.6,1.2l-0.8-2.2l-1.6,1.7l-0.1-2.8l-1,1.9l-1.3-2.3l-1.7-0.6l-0.2,0.9l-1.8-2.3l-0.1,2.1l-2-1.9l-0.2,0.7l-0.5,1
			l-1.5-2.8l-0.8,1.6l-0.9-1.7l-1.1,1.4l-0.3,0.9l-0.6-2.2l-1.4,1.3l-0.9-1.2l-1.5,1.1l-2.4-1.5l-1.1,1.4c0,0-2.6-1-1.8,0.6
			c0.3,0.6,0.5,0.8,0.6,1c-1-0.1-3.8-0.2-4.5,0.1c-0.8,0.4-0.7,1.1-0.7,1.1l2.6,1l-5.1,0.6c0,0-0.1,1,1,1.7c1.1,0.7,1.6,1,1.6,1
			l-3.9-1.7c0,0-0.9,1.7-0.7,2.2c0.1,0.5-1.2-0.5-1.2-0.5s-0.7,1.5-0.8,2.2c-0.1,0.7,0.6,2.3,0.6,2.3l-1.7-1.1l-0.7,2.2l-1.7-1.4
			c0,0-0.4,2.1-0.6,2.7c-0.3,0.6-0.6,1.2-0.6,1.2l-1-0.6l0.4,1.9l0.4,1l-1.6-0.2l1.5,2.5l-1.4,0.1l-2.1,0.7l1.7,1.2l-2.2,0.9
			l2.1,0.7c0,0-1.8,2.1-1.8,2.7c0,0.5,1.8,0.4,1.8,0.4c0,0,0.6,4.2,0.6,4.2l-1.1-1.1c0,0-0.2,2.2,0.7,2.7c0.9,0.5,1.5,2.1,1.5,2.1
			l-1.1-0.2c0,0,1.6,1.4,2,2.1c0.3,0.7,1,1.8,1,1.8l0-2.6l2,1.3l1-0.6l1.6,1.1l0.2-1.1l3.4,2l-1-2.2l2,1.2c0,0,3,0.9,3.4,0.8
			c0.4-0.1-0.7-1.3-0.3-1.4c0.4,0,1.4,1,1.8,1.1c0.4,0.1-0.1-0.9,0.2-0.9c0.4,0,2.4,1.6,2.4,1.6l0.5-2.1l1.3,1.8l1.1-1.5l0,2.2
			l3.6-2.3l0,1.6l2-1.4l-0.2,2.6l2.4-2l-0.5,1.6l2.1-2.3l0.3,1.8l1.5-1.8l0.8,1.2l0.7-1.4l1.5,1.6l1.5-2.3l-0.3,2.1l2.4-1l-1.2,2.5
			l3-2c0,0-2.5,1.9-0.5,1.4c2-0.5,3.7-1.4,3.7-1.4l-0.4,1c0,0,1.3-0.6,1.8-0.7s3.5,0.1,3.5,0.1l-3.3-1c0,0,3.9,0,4.3-0.9
			c0.4-0.9,0.8-1.8,0.8-1.8l-1.7,0.2l-1-1.6l2.2,0l-1.5-2.1l3.1,0C83,141.1,81.1,139.2,80.6,138.8z"/>
		<path fill="none" stroke="#263238" stroke-width="0.3178" stroke-miterlimit="10" d="M38.7,143.4c0,0-2.4-1.1-2.5-2.6
			c-0.1-1.5-0.1-1.5-0.1-1.5l2.8,1.9l-0.6-1.8l1.8,0.9l-0.3-1.5l1.1,0.9l0.8-1.9l1.4-1.1l-0.6,2.8l1.6-1.1l-0.4,2.3l3.2-1.1l-1.1,2
			l2.6-1.1l-1.4,1.5l3.2-0.9l-1.8,1.8l2.9-0.9"/>
		<path fill="none" stroke="#263238" stroke-width="0.3178" stroke-miterlimit="10" d="M49.3,135.2l-0.6-2.3l0.6-1.6l2.3,2l0.8-2.1
			c0,0,0.8-0.8,1.3-0.9l-0.8,3.2l1.3-1.4l2.5-0.4l-1,1.4l-1.1,1.1c0,0,0.9-0.6,2-0.6c1.1,0,2.9-0.1,2.9-0.1l-3.2,2.2l-1.7,0.5
			l3.8-0.9l-1.1,1.9l2.8-1.5l-1.8,2"/>
		<path fill="none" stroke="#263238" stroke-width="0.3178" stroke-miterlimit="10" d="M50.7,136.1c0,0-2.3-1.8-3.2-2
			c-0.9-0.3-0.9-0.3-0.9-0.3l0.5,1.6l-1.4-0.4l-0.3,2.9"/>
		<path fill="none" stroke="#263238" stroke-width="0.3178" stroke-miterlimit="10" d="M77.7,144.5c0,0,1.7-0.8,1.8-1.9
			c0.1-1.1,0.1-1.1,0.1-1.1l-2,1.3l0.4-1.3l-1.3,0.6l0.2-1.1l-0.8,0.6l-0.5-1.3l-1-0.8l0.4,2l-1.2-0.8l0.3,1.6l-2.2-0.8l0.8,1.4
			l-1.9-0.8l1,1.1l-2.2-0.6l1.3,1.3l-2.1-0.6"/>
		<path fill="none" stroke="#263238" stroke-width="0.3178" stroke-miterlimit="10" d="M70.8,134.6l0.4-1.6l-0.4-1.2l-1.6,1.4
			l-0.5-1.5c0,0-0.5-0.5-0.9-0.6l0.5,2.2l-0.9-1l-1.8-0.3l0.7,1l0.8,0.8c0,0-0.6-0.4-1.4-0.4c-0.8,0-2.1-0.1-2.1-0.1l2.3,1.6
			l1.2,0.4l-2.7-0.6l0.8,1.3l-2-1.1l1.3,1.4"/>
		<path fill="none" stroke="#263238" stroke-width="0.3178" stroke-miterlimit="10" d="M69.2,139.3c0,0,1.6-1.3,2.2-1.4
			c0.6-0.2,0.6-0.2,0.6-0.2l-0.4,1.2l1-0.3l0.2,2.1"/>
		<path fill="none" stroke="#263238" stroke-width="0.3178" stroke-miterlimit="10" d="M47.1,119c0,0,1.6-1.3,2.2-1.4
			c0.6-0.2,0.6-0.2,0.6-0.2l-0.4,1.2l1-0.3l0.2,2.1"/>
		<path fill="none" stroke="#263238" stroke-width="0.3178" stroke-miterlimit="10" d="M71.4,126.7c0,0,1.7-0.8,1.8-1.9
			c0.1-1.1,0.1-1.1,0.1-1.1l-2,1.3l0.4-1.3l-1.3,0.6l0.2-1.1l-0.8,0.6l-0.5-1.3l-1-0.8l0.4,2l-1.2-0.8l0.3,1.6l-2.2-0.8l0.8,1.4
			l-1.9-0.8l1,1.1l-2.2-0.6l1.3,1.3l-2.1-0.6"/>
		<path fill="none" stroke="#263238" stroke-width="0.3178" stroke-miterlimit="10" d="M38.9,129.4c0,0-1.7-0.8-1.8-1.9
			c-0.1-1.1-0.1-1.1-0.1-1.1l2,1.3l-0.4-1.3l1.3,0.6l-0.2-1.1l0.8,0.6l0.5-1.3l1-0.8l-0.4,2l1.2-0.8l-0.3,1.6l2.2-0.8l-0.8,1.4
			l1.9-0.8l-1,1.1l2.2-0.6l-1.3,1.3l2.1-0.6"/>
		<path fill="none" stroke="#263238" stroke-width="0.3178" stroke-miterlimit="10" d="M63.9,120.9l0.4-1.6l-0.4-1.2l-1.6,1.4
			l-0.5-1.5c0,0-0.5-0.5-0.9-0.6l0.5,2.2l-0.9-1l-1.8-0.3l0.7,1l0.8,0.8c0,0-0.6-0.4-1.4-0.4c-0.8,0-2.1-0.1-2.1-0.1l2.3,1.6
			l1.2,0.4l-2.7-0.6l0.8,1.3l-2-1.1l1.3,1.4"/>
		<path fill="none" stroke="#263238" stroke-width="0.3178" stroke-miterlimit="10" d="M62.9,121.5c0,0,1.6-1.3,2.2-1.4
			c0.6-0.2,0.6-0.2,0.6-0.2l-0.4,1.2l1-0.3l0.2,2.1"/>
		<g>
			<path fill="#FFFFFF" stroke="#263238" stroke-width="0.3178" stroke-miterlimit="10" d="M58.4,126.7c0,0-0.8-1.7-1.6-1.4
				c-0.8,0.3-1.2,1.7-0.7,1.9s0.9,0.2,0.9,0.2s-0.8,0.6-0.9,1s0.2,0.9,0.5,1.1c0.3,0.2,1.2-0.5,1.2-0.5s-0.1,0.9,0.3,1
				c0.4,0.2,0.9,0.4,1.1,0.1c0.3-0.3,0.3-1.3,0.3-1.3s0.1,1,0.8,0.9c0.7-0.1,1-0.4,1.1-0.7c0.1-0.4-0.6-1.1-0.6-1.1s0.9-0.1,0.9-0.5
				c0-0.4,0.1-0.8-0.3-1.1c-0.3-0.3-1.2,0.1-1.2,0.1s0.4-1,0.1-1.3c-0.3-0.3-0.9-0.4-1.1-0.2C58.7,125,58.4,126.7,58.4,126.7z"/>
			<circle fill="#FFFFFF" stroke="#263238" stroke-width="0.1589" stroke-miterlimit="10" cx="58.7" cy="127.8" r="0.3"/>
		</g>
		<g>
			<path fill="#FFFFFF" stroke="#263238" stroke-width="0.3178" stroke-miterlimit="10" d="M50.6,112.8c0,0-0.8-1.4-1.6-1.2
				c-0.8,0.2-1.2,1.5-0.7,1.6c0.5,0.1,0.9,0.1,0.9,0.1s-0.8,0.5-0.9,0.8c-0.1,0.4,0.2,0.8,0.5,1c0.3,0.2,1.2-0.4,1.2-0.4
				s-0.1,0.7,0.3,0.9c0.4,0.1,0.9,0.3,1.1,0c0.3-0.3,0.3-1.1,0.3-1.1s0.1,0.8,0.8,0.8c0.7,0,1-0.3,1.1-0.6c0.1-0.3-0.6-0.9-0.6-0.9
				s0.9,0,0.9-0.4c0-0.4,0.1-0.7-0.3-1s-1.2,0-1.2,0s0.4-0.9,0.1-1.1c-0.3-0.2-0.9-0.3-1.1-0.2C51,111.4,50.6,112.8,50.6,112.8z"/>
			<ellipse fill="#FFFFFF" stroke="#263238" stroke-width="0.1589" stroke-miterlimit="10" cx="51" cy="113.8" rx="0.3" ry="0.3"/>
		</g>
		<g>
			<path fill="#FFFFFF" stroke="#263238" stroke-width="0.3178" stroke-miterlimit="10" d="M68.3,116.3c0,0-0.8-1.4-1.6-1.2
				c-0.8,0.2-1.2,1.5-0.7,1.6c0.5,0.1,0.9,0.1,0.9,0.1s-0.8,0.5-0.9,0.8c-0.1,0.4,0.2,0.8,0.5,1c0.3,0.2,1.2-0.4,1.2-0.4
				s-0.1,0.7,0.3,0.9c0.4,0.1,0.9,0.3,1.1,0c0.3-0.3,0.3-1.1,0.3-1.1s0.1,0.8,0.8,0.8c0.7,0,1-0.3,1.1-0.6c0.1-0.3-0.6-0.9-0.6-0.9
				s0.9,0,0.9-0.4c0-0.4,0.1-0.7-0.3-1c-0.3-0.3-1.2,0-1.2,0s0.4-0.9,0.1-1.1c-0.3-0.2-0.9-0.3-1.1-0.2
				C68.6,114.8,68.3,116.3,68.3,116.3z"/>
			
				<ellipse fill="#FFFFFF" stroke="#263238" stroke-width="0.1589" stroke-miterlimit="10" cx="68.6" cy="117.3" rx="0.3" ry="0.3"/>
		</g>
		<g>
			<path fill="#FFFFFF" stroke="#263238" stroke-width="0.3178" stroke-miterlimit="10" d="M48.7,141.4c0,0-0.8-1.7-1.6-1.4
				c-0.8,0.3-1.2,1.7-0.7,1.9c0.5,0.2,0.9,0.2,0.9,0.2s-0.8,0.6-0.9,1c-0.1,0.4,0.2,0.9,0.5,1.1c0.3,0.2,1.2-0.5,1.2-0.5
				s-0.1,0.9,0.3,1c0.4,0.2,0.9,0.4,1.1,0.1c0.3-0.3,0.3-1.3,0.3-1.3s0.1,1,0.8,0.9c0.7-0.1,1-0.4,1.1-0.7c0.1-0.4-0.6-1.1-0.6-1.1
				s0.9-0.1,0.9-0.5c0-0.4,0.1-0.8-0.3-1.1c-0.3-0.3-1.2,0.1-1.2,0.1s0.4-1,0.1-1.3c-0.3-0.3-0.9-0.4-1.1-0.2
				C49,139.7,48.7,141.4,48.7,141.4z"/>
			<circle fill="#FFFFFF" stroke="#263238" stroke-width="0.1589" stroke-miterlimit="10" cx="49" cy="142.5" r="0.3"/>
		</g>
		<g>
			<path fill="#FFFFFF" stroke="#263238" stroke-width="0.3178" stroke-miterlimit="10" d="M72.3,124.6c0,0-0.8-1.7-1.6-1.4
				c-0.8,0.3-1.2,1.7-0.7,1.9c0.5,0.2,0.9,0.2,0.9,0.2s-0.8,0.6-0.9,1c-0.1,0.4,0.2,0.9,0.5,1.1c0.3,0.2,1.2-0.5,1.2-0.5
				s-0.1,0.9,0.3,1c0.4,0.2,0.9,0.4,1.1,0.1c0.3-0.3,0.3-1.3,0.3-1.3s0.1,1,0.8,0.9c0.7-0.1,1-0.4,1.1-0.7c0.1-0.4-0.6-1.1-0.6-1.1
				s0.9-0.1,0.9-0.5c0-0.4,0.1-0.8-0.3-1.1c-0.3-0.3-1.2,0.1-1.2,0.1s0.4-1,0.1-1.3c-0.3-0.3-0.9-0.4-1.1-0.2
				C72.7,123,72.3,124.6,72.3,124.6z"/>
			<circle fill="#FFFFFF" stroke="#263238" stroke-width="0.1589" stroke-miterlimit="10" cx="72.7" cy="125.8" r="0.3"/>
		</g>
		<g>
			<path fill="#FFFFFF" stroke="#263238" stroke-width="0.3178" stroke-miterlimit="10" d="M31.5,134.1c0,0-0.8-1.7-1.6-1.4
				c-0.8,0.3-1.2,1.7-0.7,1.9c0.5,0.2,0.9,0.2,0.9,0.2s-0.8,0.6-0.9,1c-0.1,0.4,0.2,0.9,0.5,1.1c0.3,0.2,1.2-0.5,1.2-0.5
				s-0.1,0.9,0.3,1c0.4,0.2,0.9,0.4,1.1,0.1c0.3-0.3,0.3-1.3,0.3-1.3s0.1,1,0.8,0.9c0.7-0.1,1-0.4,1.1-0.7c0.1-0.4-0.6-1.1-0.6-1.1
				s0.9-0.1,0.9-0.5c0-0.4,0.1-0.8-0.3-1.1c-0.3-0.3-1.2,0.1-1.2,0.1s0.4-1,0.1-1.3c-0.3-0.3-0.9-0.4-1.1-0.2
				C31.9,132.4,31.5,134.1,31.5,134.1z"/>
			<circle fill="#FFFFFF" stroke="#263238" stroke-width="0.1589" stroke-miterlimit="10" cx="31.9" cy="135.2" r="0.3"/>
		</g>
		<g>
			<path fill="#FFFFFF" stroke="#263238" stroke-width="0.3178" stroke-miterlimit="10" d="M42.8,133.3c0,0-0.6-1.3-1.2-1.1
				c-0.6,0.2-0.9,1.3-0.5,1.4c0.3,0.1,0.7,0.1,0.7,0.1s-0.6,0.4-0.7,0.7c0,0.3,0.1,0.7,0.3,0.9c0.2,0.2,0.9-0.3,0.9-0.3
				s-0.1,0.7,0.2,0.8c0.3,0.1,0.7,0.3,0.9,0c0.2-0.2,0.2-1,0.2-1s0.1,0.7,0.6,0.7c0.5,0,0.8-0.3,0.8-0.5c0-0.3-0.5-0.8-0.5-0.8
				s0.7,0,0.7-0.3s0-0.6-0.2-0.9c-0.2-0.2-0.9,0-0.9,0s0.3-0.8,0-1c-0.2-0.2-0.7-0.3-0.9-0.2C43.1,132.1,42.8,133.3,42.8,133.3z"/>
			<path fill="#FFFFFF" stroke="#263238" stroke-width="0.1589" stroke-miterlimit="10" d="M43.3,134.1c0.1,0.2-0.1,0.4-0.3,0.3
				c-0.1,0-0.1-0.1-0.2-0.2c-0.1-0.2,0.1-0.4,0.3-0.3C43.2,134,43.3,134,43.3,134.1z"/>
		</g>
		<g>
			<path fill="#FFFFFF" stroke="#263238" stroke-width="0.3178" stroke-miterlimit="10" d="M55.4,119.9c0,0-0.6-1.3-1.2-1.1
				c-0.6,0.2-0.9,1.3-0.5,1.4c0.3,0.1,0.7,0.1,0.7,0.1s-0.6,0.4-0.7,0.7c0,0.3,0.1,0.7,0.3,0.9c0.2,0.2,0.9-0.3,0.9-0.3
				s-0.1,0.7,0.2,0.8c0.3,0.1,0.7,0.3,0.9,0c0.2-0.2,0.2-1,0.2-1s0.1,0.7,0.6,0.7c0.5,0,0.8-0.3,0.8-0.5c0-0.3-0.5-0.8-0.5-0.8
				s0.7,0,0.7-0.3c0-0.3,0-0.6-0.2-0.9c-0.2-0.2-0.9,0-0.9,0s0.3-0.8,0-1c-0.2-0.2-0.7-0.3-0.9-0.2
				C55.7,118.6,55.4,119.9,55.4,119.9z"/>
			<path fill="#FFFFFF" stroke="#263238" stroke-width="0.1589" stroke-miterlimit="10" d="M55.9,120.7c0.1,0.2-0.1,0.4-0.3,0.3
				c-0.1,0-0.1-0.1-0.2-0.2c-0.1-0.2,0.1-0.4,0.3-0.3C55.9,120.5,55.9,120.6,55.9,120.7z"/>
		</g>
		<g>
			<path fill="#FFFFFF" stroke="#263238" stroke-width="0.3178" stroke-miterlimit="10" d="M59.9,141.3c0,0-0.6-1.3-1.2-1.1
				c-0.6,0.2-0.9,1.3-0.5,1.4c0.3,0.1,0.7,0.1,0.7,0.1s-0.6,0.4-0.7,0.7c0,0.3,0.1,0.7,0.3,0.9c0.2,0.2,0.9-0.3,0.9-0.3
				s-0.1,0.7,0.2,0.8c0.3,0.1,0.7,0.3,0.9,0c0.2-0.2,0.2-1,0.2-1s0.1,0.7,0.6,0.7c0.5,0,0.8-0.3,0.8-0.5c0-0.3-0.5-0.8-0.5-0.8
				s0.7,0,0.7-0.3c0-0.3,0-0.6-0.2-0.9c-0.2-0.2-0.9,0-0.9,0s0.3-0.8,0-1c-0.2-0.2-0.7-0.3-0.9-0.2C60.2,140,59.9,141.3,59.9,141.3z
				"/>
			<path fill="#FFFFFF" stroke="#263238" stroke-width="0.1589" stroke-miterlimit="10" d="M60.4,142c0.1,0.2-0.1,0.4-0.3,0.3
				c-0.1,0-0.1-0.1-0.2-0.2c-0.1-0.2,0.1-0.4,0.3-0.3C60.3,141.9,60.4,142,60.4,142z"/>
		</g>
		<g>
			<path fill="#FFFFFF" stroke="#263238" stroke-width="0.3178" stroke-miterlimit="10" d="M40.2,122.5c0,0-0.6-1.3-1.2-1.1
				c-0.6,0.2-0.9,1.3-0.5,1.4c0.3,0.1,0.7,0.1,0.7,0.1s-0.6,0.4-0.7,0.7c0,0.3,0.1,0.7,0.3,0.9c0.2,0.2,0.9-0.3,0.9-0.3
				s-0.1,0.7,0.2,0.8c0.3,0.1,0.7,0.3,0.9,0c0.2-0.2,0.2-1,0.2-1s0.1,0.7,0.6,0.7c0.5,0,0.8-0.3,0.8-0.5c0-0.3-0.5-0.8-0.5-0.8
				s0.7,0,0.7-0.3c0-0.3,0-0.6-0.2-0.9c-0.2-0.2-0.9,0-0.9,0s0.3-0.8,0-1c-0.2-0.2-0.7-0.3-0.9-0.2
				C40.5,121.2,40.2,122.5,40.2,122.5z"/>
			<path fill="#FFFFFF" stroke="#263238" stroke-width="0.1589" stroke-miterlimit="10" d="M40.8,123.3c0.1,0.2-0.1,0.4-0.3,0.3
				c-0.1,0-0.1-0.1-0.2-0.2c-0.1-0.2,0.1-0.4,0.3-0.3C40.7,123.1,40.7,123.2,40.8,123.3z"/>
		</g>
		<g>
			<path fill="#FFFFFF" stroke="#263238" stroke-width="0.3178" stroke-miterlimit="10" d="M69.2,140.7c0,0-0.6-1.3-1.2-1.1
				c-0.6,0.2-0.9,1.3-0.5,1.4c0.3,0.1,0.7,0.1,0.7,0.1s-0.6,0.4-0.7,0.7c0,0.3,0.1,0.7,0.3,0.9c0.2,0.2,0.9-0.3,0.9-0.3
				s-0.1,0.7,0.2,0.8c0.3,0.1,0.7,0.3,0.9,0c0.2-0.2,0.2-1,0.2-1s0.1,0.7,0.6,0.7c0.5,0,0.8-0.3,0.8-0.5c0-0.3-0.5-0.8-0.5-0.8
				s0.7,0,0.7-0.3c0-0.3,0-0.6-0.2-0.9c-0.2-0.2-0.9,0-0.9,0s0.3-0.8,0-1c-0.2-0.2-0.7-0.3-0.9-0.2S69.2,140.7,69.2,140.7z"/>
			<path fill="#FFFFFF" stroke="#263238" stroke-width="0.1589" stroke-miterlimit="10" d="M69.7,141.5c0.1,0.2-0.1,0.4-0.3,0.3
				c-0.1,0-0.1-0.1-0.2-0.2c-0.1-0.2,0.1-0.4,0.3-0.3C69.6,141.3,69.7,141.4,69.7,141.5z"/>
		</g>
	</g>
</g>
<line fill="none" stroke="#263238" stroke-width="0.3178" stroke-miterlimit="10" x1="22.7" y1="163.3" x2="178.3" y2="163.3"/>
<g>
	<polygon fill="#FFFFFF" stroke="#263238" stroke-width="0.3178" stroke-miterlimit="10" points="144.6,80.9 143.4,89.1 141.4,93.7 
		144.7,93.9 148,85.3 148.2,81.8 	"/>
	<path fill="#263238" stroke="#263238" stroke-width="0.3178" stroke-miterlimit="10" d="M162.4,61.9c0,0,1.8,1.7,2.7,3.9
		c0.9,2.3-2,3.1-2,3.5c0,0.4,1.2,0.9,0.8,1.8c-0.4,1-2.2,1.2-2.9,0.9c-0.6-0.3-1.6-0.5-1.9-3C158.7,66.6,162.4,61.9,162.4,61.9z"/>
	<path fill="#FFFFFF" stroke="#263238" stroke-width="0.3178" stroke-miterlimit="10" d="M154.1,67.2c0,0,0.4,2.4,0.2,3.3
		c-0.3,0.9-2.7,1.6-4.2,2c-1.5,0.4-4,0.9-4.9,1.8c-1.2,1.1-1.5,2-1.6,3.8c-0.1,1.8-0.7,3.1-0.7,3.1l4.6,1.9l-0.3,2.5h21
		c0,0,1.3-8.5,0.5-9.2c-0.8-0.7-8-4.6-8.4-5.4c-0.4-0.8,0.1-4.8,0.1-4.8L154.1,67.2z"/>
	<path fill="none" stroke="#263238" stroke-width="0.3178" stroke-miterlimit="10" d="M160.3,71c-0.4-0.8,0.1-4.8,0.1-4.8l-6.2,1
		c0,0,0.4,2.4,0.2,3.3c-0.2,0.8-2.2,1.5-3.7,1.9c0.9,1.1,3.1,3.4,6.1,3.8c2.7,0.4,5.7-1.4,7.3-2.7C162.1,72.4,160.5,71.4,160.3,71z"
		/>
	<g>
		<path fill="none" stroke="#263238" stroke-width="0.3178" stroke-miterlimit="10" d="M150.7,59.2c0,0-0.8,0.4-0.5,1.2
			c0.2,0.8,0.9,2.6,0.9,2.6l0.2-3.9L150.7,59.2z"/>
		<path fill="#FFFFFF" stroke="#263238" stroke-width="0.3178" stroke-miterlimit="10" d="M153.2,52.4c0,0-1.6,1.3-1.9,3.1
			c-0.3,1.8-0.8,5.4-0.2,7.4c0.6,2,1,4,1.7,4.8s3.1,3,4.2,2.7s4.3-2.4,4.6-3.3c0.3-0.9,1.4-3,1.4-3s2-0.7,2.1-2
			c0.1-1.3-0.2-2.4-0.7-2.4c-0.4-0.1-1.1,0.1-1.1,0.1s0.5-4-0.2-5.5c-0.8-1.5-3.4-2.8-5.6-3.1S153.8,51.8,153.2,52.4z"/>
		<ellipse fill="#263238" cx="158.4" cy="62.2" rx="0.5" ry="0.9"/>
		<ellipse fill="#263238" cx="154" cy="61.8" rx="0.5" ry="0.9"/>
		<path fill="#263238" stroke="#263238" stroke-width="0.3178" stroke-miterlimit="10" d="M163,54.3c-0.8-1.5-3.4-2.8-5.6-3.1
			c-2.2-0.2-3.6,0.5-4.1,1.1c0,0-1.6,1.3-1.9,3.1c-0.1,0.6-0.2,1-0.2,1.7c0.1-0.2,0.3-1.3,0.9-2.2c0.6-1,0.9-1,1.7-1.1
			c0.9-0.1,2.5,0.8,2.5,0.8s1.7-0.5,2.6-0.6c0.9,0,2.3,0.6,2.7,1.9c0.4,1.3,0.1,2,0.4,2.7c0,0,0.3,0.7,0.6,1c0.3,0.3,0,0.9,0.4,1.1
			c0.4,0.2,0.6-1.2,0.6-1.9C163.4,58.8,163.5,55.3,163,54.3z"/>
		<path fill="none" stroke="#263238" stroke-width="0.3178" stroke-miterlimit="10" d="M157.4,59.5c0,0,2.1-1.3,3.3,0.8"/>
		<path fill="none" stroke="#263238" stroke-width="0.3178" stroke-miterlimit="10" d="M152,59.5c1-0.8,2.7-0.2,2.7-0.2
			s0.8,0.7,0.7,1.8"/>
		<path fill="none" stroke="#263238" stroke-width="0.3178" stroke-miterlimit="10" d="M155.7,64.7c0,0,0.5,0.7,0.9,0.5
			c0.4-0.2,0.7-0.7,0.7-0.7"/>
		<path fill="none" stroke="#263238" stroke-width="0.3178" stroke-miterlimit="10" d="M154.9,66.6c0,0,1.6,1.2,3.4-0.2"/>
		<path fill="#263238" stroke="#263238" stroke-width="0.3178" stroke-miterlimit="10" d="M154.1,53.5c0,0-1.2,0.6-1.5,1.6
			c-0.3,1,0.8,2.9,0.8,2.9s-0.3-2.4,0.5-2.8c0.8-0.4,2.2-0.5,2.2-0.5s1-0.6,0.4-1.4"/>
	</g>
	<g>
		<path fill="#FFFFFF" stroke="#263238" stroke-width="0.3178" stroke-miterlimit="10" d="M144.4,157.3c0,0-2.5,1.9-3.7,2.7
			c-1.2,0.8-4.8,1.5-4.8,2.2c0,0.7-0.1,1,1,1.4c0.4,0.1,6.7,0.5,10.2,0c2.4-0.3,4,0.4,5.1,0c1.1-0.4,0.3-4.3,0.3-4.7
			C152.5,158.5,144.4,157.3,144.4,157.3z"/>
		<path fill="#FFFFFF" stroke="#263238" stroke-width="0.3178" stroke-miterlimit="10" d="M152.8,162.3c-1.7,0.2-5.8,0.3-8.6,0.5
			c-2.6,0.2-6.8-0.2-8.2-0.3c0,0.5,0.1,0.8,1,1.1c0.4,0.1,6.7,0.5,10.2,0c2.4-0.3,4,0.4,5.1,0C152.6,163.5,152.8,163,152.8,162.3z"
			/>
	</g>
	<path fill="#C7C7C7" stroke="#263238" stroke-width="0.3178" stroke-miterlimit="10" d="M144.1,123.3c0,0,0.4,15.4,0.6,17.2
		c0.2,1.9-2.3,6.3-2.1,7.4c0.2,1.2,2,6.6,2,6.6l7.8,1.4c0,0,0.6-8.6,0.3-10.1c-0.3-1.4,0.7-4.5,0.7-6.5c0-2,1.5-15.6,1.5-15.6
		L144.1,123.3z"/>
	<path fill="#8A8A8A" stroke="#263238" stroke-width="0.3178" stroke-miterlimit="10" d="M144.2,153.1c0,0-0.7,4.7-0.2,4.8
		c0.5,0.2,8.9,1.6,9.2,1.4c0.4-0.3,0.2-4.4-0.1-4.7C152.8,154.3,144.2,153.1,144.2,153.1z"/>
	<path fill="none" stroke="#263238" stroke-width="0.3178" stroke-miterlimit="10" d="M150.4,134.9c0,0,1.4,3.3,2.3,5"/>
	<g>
		<path fill="#FFFFFF" stroke="#263238" stroke-width="0.3178" stroke-miterlimit="10" d="M159.1,157c0,0-0.9,0.9-1.7,1.9
			c-0.7,1.1-2.5,2.2-3.4,2.7s-2.4,1.2-2.2,1.9c0.2,0.6,0.7,1.5,2.2,1.7s6,0.7,8.7-0.4c2.7-1.1,4.5-2.4,4.7-2.8
			c0.2-0.4-0.1-3.7-0.1-3.7L159.1,157z"/>
		<path fill="#FFFFFF" stroke="#263238" stroke-width="0.3178" stroke-miterlimit="10" d="M167.4,161.9c0.1-0.1,0.1-0.6,0.1-1.1
			c-0.9,0.9-4.1,3.5-9.1,3.8c-2.6,0.1-5.2-0.5-6.6-1c0.2,0.6,0.8,1.4,2.2,1.5c1.5,0.1,6,0.7,8.7-0.4
			C165.5,163.7,167.2,162.3,167.4,161.9z"/>
	</g>
	<path fill="#C7C7C7" stroke="#263238" stroke-width="0.3178" stroke-miterlimit="10" d="M155.6,122.8c0,0,0,5.6,0.7,8.7
		c0.7,3.1,0.6,12,0.5,13.4c-0.1,1.4,0.2,2.6,0.4,3.3c0.2,0.7,0.9,4.3,0.9,4.5c0.1,0.2,0,1.7,0,1.7s0.9,1.2,3.8,1.5
		c2.8,0.2,5.6-0.2,5.8-0.7c0.2-0.5-0.7-16.8-1.3-19.3c-0.6-2.4,0.8-8.9,0.7-10.2c-0.1-1.4,0.3-3.1,0.3-3.1L155.6,122.8z"/>
	<path fill="#8A8A8A" stroke="#263238" stroke-width="0.3178" stroke-miterlimit="10" d="M157.5,154.1c0,0-0.1,4.2,0.2,4.5
		c0.3,0.4,5.1,0.7,6.8,0.9c1.7,0.2,3.9,0.6,3.9,0c0.1-0.5,0.7-4.2-0.1-4.7c-0.8-0.5-5.2-0.4-7.2-0.6C159,154,158,153.5,157.5,154.1z
		"/>
	<path fill="none" stroke="#263238" stroke-width="0.3178" stroke-miterlimit="10" d="M165,130.3c0,0-1,3.8,0.7,6.7"/>
	<path fill="#263238" stroke="#263238" stroke-width="0.3178" stroke-miterlimit="10" d="M152.5,71.9l-2.4,8.2c0,0-2.9,4.5-2.9,5.5
		s-4.8,17.3-4.9,18.9c-0.1,1.5-1,18.8-1,18.8s5.2,2.1,14.1,2c8.9-0.1,14.1-1.8,14.1-1.8s-0.9-14.4-1.8-19.1c-1-4.7-1.8-7.4-1.8-7.4
		l-0.6-6.7c0,0-2-3.8-2.8-6.1c-0.8-2.3-1.1-3.2-1.1-3.2l0.4-8.7l-1.3-1.1l-0.9,9.3l-6.9-1l1.8-8.9L152.5,71.9z"/>
	<path fill="#FFFFFF" stroke="#263238" stroke-width="0.3178" stroke-miterlimit="10" d="M147.7,77.7c0,0,0.1,1.9,0.1,2.2
		c0,0.3-0.4,3.1-0.4,3.1"/>
	<path fill="#FFFFFF" stroke="#263238" stroke-width="0.3178" stroke-miterlimit="10" d="M164.3,83.5l-0.1,9.8l-8.7,2l0.5,3.6
		c0,0,4,0.9,7.8,0.1c3.8-0.8,5.1-0.9,5.4-1.7c0.3-0.8,1.2-14.2,1.2-14.2L164.3,83.5z"/>
	<polygon fill="#263238" stroke="#263238" stroke-width="0.3178" stroke-miterlimit="10" points="164.7,84.2 170.2,84.9 170.3,83.7 
			"/>
	<path fill="#92E3A9" stroke="#263238" stroke-width="0.3178" stroke-miterlimit="10" d="M138.3,96.6c0,0-0.8,1.3-1.1,1.9
		c-0.3,0.6-0.3,0.7,0.2,1c0.5,0.3,1.4-0.5,1.4-0.5s-0.4,2.7-0.2,3.1c0.2,0.4,0.4,0.8,1.2,0.8c0.8-0.1,1.7-0.9,1.7-0.9l0.6-5.3
		L138.3,96.6z"/>
	<path fill="#969696" stroke="#263238" stroke-width="0.3178" stroke-miterlimit="10" d="M137.8,91.7l0.8,9.9c0,0.5,2.1,0.8,4.7,0.8
		s4.7-0.4,4.7-0.8l0.8-9.9H137.8z"/>
	<ellipse fill="#C7C7C7" stroke="#263238" stroke-width="0.3178" stroke-miterlimit="10" cx="143.4" cy="91.7" rx="5.6" ry="1"/>
	<path fill="#263238" stroke="#263238" stroke-width="0.3178" stroke-miterlimit="10" d="M138.3,92.1c0.9,0.4,2.8,0.6,5.1,0.6
		c2.3,0,4.2-0.2,5.1-0.6c-0.9-0.4-2.8-0.6-5.1-0.6C141.1,91.5,139.2,91.8,138.3,92.1z"/>
	<g>
		<path fill="#263238" d="M148.2,79.8c-0.8-0.3-2.3-0.8-2.5-0.5c-0.2,0.3-0.8,0.9-0.8,0.9s-0.3-1-0.6-1c-0.3,0-1.6-0.1-1.8,0
			c-0.3,0.1,0.7,0.8,1.6,1.3c0.2,0.1,0.4,0.2,0.6,0.3c0,0.2-0.1,0.8-0.1,1.4c0.1,0.7,0.1,2.5-0.2,3.7c-0.4,1.3-0.9,5.5-0.7,7l0.3,0
			c-0.2-1.4,0.3-5.6,0.7-6.9c0.3-1.2,0.3-3.1,0.3-3.8c-0.1-0.5,0-1,0.1-1.2c0.4,0.1,0.7,0.2,1,0.4c0.4,0.3,0.6,0.5,0.6,0.5
			s0-0.3,0.2-0.3c0.1,0,1.8,0.4,2.1,0.4C149,81.7,149,80.1,148.2,79.8z"/>
		<g>
			
				<path fill="#263238" stroke="#263238" stroke-width="0.2383" stroke-linecap="round" stroke-linejoin="round" stroke-miterlimit="10" d="
				M142.8,92.2c0,0-0.6-3.2-0.8-4.3c-0.1-0.5-0.2-2-0.4-3.5c-0.1-1.4-0.3-2.8-0.3-3.2c-0.2-0.8-0.6-1.2-0.6-1.2l0.2-0.2
				c0,0,0.5,0.5,0.7,1.4c0.1,0.4,0.2,1.8,0.4,3.3c0.1,1.4,0.3,2.9,0.4,3.4c0.2,1.1,0.8,4.3,0.8,4.3L142.8,92.2z"/>
		</g>
		<g>
			
				<path fill="#263238" stroke="#263238" stroke-width="0.2383" stroke-linecap="round" stroke-linejoin="round" stroke-miterlimit="10" d="
				M143.6,92.1l-0.3,0c0,0,0-0.8,0.1-1.5c0-0.7,0-7.6,0-11.2c0-3.2,0-7.4,0-7.4h0.3c0,0,0,4.3,0,7.4c0,3,0.1,10.5,0,11.2
				C143.7,91.3,143.6,92.1,143.6,92.1z"/>
		</g>
		<g>
			
				<path fill="#263238" stroke="#263238" stroke-width="0.2383" stroke-linecap="round" stroke-linejoin="round" stroke-miterlimit="10" d="
				M143.8,92.1l-0.3,0c0.2-1.3,1.4-5.7,2.9-8.1c1.6-2.4,2.9-4.2,2.9-4.2l0.2,0.2c0,0-1.3,1.8-2.9,4.2
				C145.2,86.4,144,90.8,143.8,92.1z"/>
		</g>
		<g>
			
				<path fill="#92E3A9" stroke="#263238" stroke-width="0.2383" stroke-linecap="round" stroke-linejoin="round" stroke-miterlimit="10" d="
				M149.6,78.9c0,0-0.1-1-1-1.4c-1-0.5-1.5-0.6-1.6,0.7c-0.1,1.3,0,2.5,0,2.5s0.7-1.3,1.3-1.5c0.6-0.2,1,0.3,0.7,0.4
				c-0.3,0.2-1.3,0.8-1.6,1c-0.3,0.2-0.3,0.3,0,0.8c0.2,0.4,0.7,1.5,0.7,1.5s0.4-1.9,0.6-2.3c0.2-0.3,0.9,0,0.7,0.6
				c-0.2,0.6-0.9,2.1-0.9,2.1s0.9,0.9,1.3,1.2c0.4,0.3,0.8,1.2,0.8,1.2s0.3-0.3,1.1-0.6c0.8-0.3,2-0.8,1.9-1.1
				c-0.1-0.3-0.4-0.7-1-1.6c-0.6-0.8-1.6-1.6-1.2-1.7c0.4,0,2.6,1,2.8,1.4c0.2,0.5-0.1,1.4-0.1,1.4s0.6-0.9,0.6-1.3
				c0-0.5-0.3-0.8-0.3-0.8s-1.4-1-2-1.3c-0.6-0.3-0.6-0.6-0.4-0.6c0.2,0,2,0.5,2.3,0.9c0.3,0.4,0.3,0.7,0.4,0.8s-0.4-2.4-1-2.9
				c-0.6-0.5-1.8-0.9-2.5-0.6c-0.7,0.3-1,0.5-1.1,0.7C149.9,78.5,149.6,78.9,149.6,78.9z"/>
			
				<path fill="none" stroke="#263238" stroke-width="0.2383" stroke-linecap="round" stroke-linejoin="round" stroke-miterlimit="10" d="
				M152.1,82.5c0,0-0.7-0.9-0.8-0.6s0.9,1.6,1,1.5C152.4,83.3,152.4,82.9,152.1,82.5z"/>
			<g>
				
					<path fill="none" stroke="#263238" stroke-width="0.2383" stroke-linecap="round" stroke-linejoin="round" stroke-miterlimit="10" d="
					M149.9,79.1c0,0,2.3-0.4,3-0.2"/>
				
					<path fill="none" stroke="#263238" stroke-width="0.2383" stroke-linecap="round" stroke-linejoin="round" stroke-miterlimit="10" d="
					M150,79.6c0,0,1.8,0.5,2.6,1"/>
				
					<path fill="none" stroke="#263238" stroke-width="0.2383" stroke-linecap="round" stroke-linejoin="round" stroke-miterlimit="10" d="
					M150,79.8c0,0-1,0.1-1.5,0.5c-0.5,0.4-0.5,0.5-0.5,0.5"/>
				
					<path fill="none" stroke="#263238" stroke-width="0.2383" stroke-linecap="round" stroke-linejoin="round" stroke-miterlimit="10" d="
					M148,78.5c0,0,0.2,0,0.7,0.3c0.5,0.3,1,0.4,1,0.4s0.8,1.3,1,2.5c0.2,1.2,0,3.2,0,3.3"/>
				
					<path fill="none" stroke="#263238" stroke-width="0.2383" stroke-linecap="round" stroke-linejoin="round" stroke-miterlimit="10" d="
					M150.4,80.8c0,0-0.5,0.9-0.8,1.6"/>
			</g>
		</g>
		<g>
			
				<path fill="#92E3A9" stroke="#263238" stroke-width="0.2383" stroke-linecap="round" stroke-linejoin="round" stroke-miterlimit="10" d="
				M143.7,71.3c0,0-0.2-0.5-0.2-1c0-0.4,0.4-1-0.3-1.3c-0.7-0.3-2.1-0.9-2.4-1.3c-0.3-0.4-0.3-0.6-0.9-0.7c-0.6-0.1-1.1-0.1-1.9,0.4
				c-0.8,0.5-1,1.1-1,1.1s0.3-0.2,2.1,0.1c1.8,0.3,2.7,1.4,2.2,1.4c-0.5,0-2.9-1.1-3.6-1.2s-1-0.2-1.3,0.2c-0.4,0.4-0.5,1.3-0.5,1.3
				s1-0.7,2.2-0.6c1.2,0.1,3.1,1.1,2.8,1.2c-0.3,0.1-1.9-0.6-3-0.5c-1.1,0.2-1.8,0.3-1.9,0.7c-0.1,0.4,0.3,0.7,0.3,0.7
				s-0.2-0.4,0.6-0.9c0.9-0.5,2.3-0.4,2.3-0.2c0,0.1-0.8,0-1.4,0.3c-0.6,0.3-1.3,0.7-1.1,0.9c0.2,0.2,0.8,0.5,0.9,0.8
				c0.1,0.3,0.1,1,0.2,0.8c0.1-0.2,0.2-0.9,0.4-1c0.2-0.1,2.4,0,2.4,0s0.9-0.5,1-0.7c0.1-0.2,0.2-0.6,0.7-0.5
				c0.5,0.1,0.5,0.3,0.2,0.8c-0.3,0.5-1,1-1,1s1.2-0.7,1.8-0.7c0.5-0.1,0.9-0.3,0.7-0.5c-0.1-0.2-0.3-0.5,0-0.5c0.3,0,0.8,0,0.9,0.2
				c0,0.3-0.4,0.5-0.4,0.5s1.8-0.5,2.2-0.8c0.4-0.4,0.8-0.6,0.6-0.8c-0.1-0.2-0.8,0-0.8,0s-0.6-0.5-1.4-0.2c-0.7,0.3-1,0.7-1.1,0.8
				C143.9,71.3,143.7,71.3,143.7,71.3z"/>
			
				<path fill="none" stroke="#263238" stroke-width="0.2383" stroke-linecap="round" stroke-linejoin="round" stroke-miterlimit="10" d="
				M140.6,68.4c0.1,0,1,0.9,1.4,1.6c0.5,0.7,1.7,1.3,1.7,1.3s-1.7-0.1-2.3-0.1c-0.6,0-2.1,0.3-2.7,0.7"/>
			
				<path fill="none" stroke="#263238" stroke-width="0.2383" stroke-linecap="round" stroke-linejoin="round" stroke-miterlimit="10" d="
				M144,71.2c0,0,1.8-0.4,2-0.1"/>
			
				<path fill="none" stroke="#263238" stroke-width="0.2383" stroke-linecap="round" stroke-linejoin="round" stroke-miterlimit="10" d="
				M142.8,71.2c0,0-1.2-0.4-1.7-0.7c-0.5-0.3-2.3-1.2-3.6-1.1"/>
		</g>
		<g>
			
				<path fill="#92E3A9" stroke="#263238" stroke-width="0.2383" stroke-linecap="round" stroke-linejoin="round" stroke-miterlimit="10" d="
				M140.9,79.2c0,0,0.8-1.1,0.6-1.2c-0.2-0.1-2.4,0.4-3,0.6c-0.6,0.2-1.6,0.2-2.8,0.4s-1.3,0.5-1.6,0.6c-0.3,0-0.5,0-0.7,0.1
				c-0.2,0.1-0.2,0.1-0.2,0.1s0.5,0.1,0.7,0.2c0.2,0.1,0.9,0.1,1,0.2c0.1,0.1,1.1,0.6,2.4,0.9c1.3,0.3,3-1,3.5-1.3
				c0.5-0.3,0.9-0.5,1-0.8C141.7,78.9,140.9,79.2,140.9,79.2z"/>
			
				<path fill="none" stroke="#263238" stroke-width="0.2383" stroke-linecap="round" stroke-linejoin="round" stroke-miterlimit="10" d="
				M140.9,79.2c0,0-0.5,0.5-0.7,0.6c-0.2,0-1.8,0.4-2.9,0.4c-1.2,0-3.1-0.3-3.1-0.3"/>
			
				<path fill="none" stroke="#263238" stroke-width="0.2383" stroke-linecap="round" stroke-linejoin="round" stroke-miterlimit="10" d="
				M139.7,78.8c0,0,0.3,0.5,0.5,0.7c0.2,0.2,0.2,0.2,0.2,0.2"/>
			
				<path fill="none" stroke="#263238" stroke-width="0.2383" stroke-linecap="round" stroke-linejoin="round" stroke-miterlimit="10" d="
				M139.7,79.9c0,0-1-0.6-1.5-0.7c-0.5-0.1-0.9-0.1-0.9-0.1"/>
			
				<path fill="none" stroke="#263238" stroke-width="0.2383" stroke-linecap="round" stroke-linejoin="round" stroke-miterlimit="10" d="
				M138.2,80.3c0,0-0.6-0.3-1.5-0.5c-0.9-0.2-1.2-0.2-1.2-0.2"/>
			
				<path fill="none" stroke="#263238" stroke-width="0.2383" stroke-linecap="round" stroke-linejoin="round" stroke-miterlimit="10" d="
				M139.5,80c0,0-0.5,0.5-1.2,0.7"/>
		</g>
		<g>
			
				<path fill="#92E3A9" stroke="#263238" stroke-width="0.2383" stroke-linecap="round" stroke-linejoin="round" stroke-miterlimit="10" d="
				M147.2,76.2c0,0,1-0.7,0.6-0.9c-0.4-0.2-2.7,0.3-5,0.7c-2.3,0.4-2.9,0.9-3.3,1.3c-0.4,0.4-0.5,1-0.5,1s0.8,0.1,0.9,0.2
				c0.1,0.1,0.3-0.6,1.6-1.2c1.3-0.6,2.1-1.1,1.6-0.4c-0.6,0.7-1.3,1.4-1.8,1.6c-0.5,0.1-0.5,0.1-0.5,0.1s1.3,0.5,1.6,0.3
				c0.3-0.1,2.1-2.5,2.3-2.5c0.2,0,0.3,0.2-0.1,0.7c-0.4,0.5-1.2,1.1-1.2,1.1s1.8,0.1,1.9-0.1c0.1-0.1,1.2-1.9,1.2-1.6
				c0.1,0.4,0,0.5-0.2,0.7c-0.2,0.2-0.5,0.6-0.5,0.6s3.3,0.5,3.4,0.2c0.1-0.3-0.2-1-0.8-1.2C147.8,76.4,147.2,76.2,147.2,76.2z"/>
			
				<path fill="none" stroke="#263238" stroke-width="0.2383" stroke-linecap="round" stroke-linejoin="round" stroke-miterlimit="10" d="
				M147.2,76.2c0,0-1.8-0.3-2.9-0.2"/>
		</g>
		<g>
			<path fill="#263238" d="M142.4,92c0,0-0.3-0.8-0.8-2.7c-0.5-1.9-0.7-3.8-0.7-3.8l0.3,0c0,0,0.2,1.9,0.7,3.7
				c0.5,1.9,0.8,2.7,0.8,2.7L142.4,92z"/>
		</g>
		<g>
			
				<path fill="#92E3A9" stroke="#263238" stroke-width="0.2383" stroke-linecap="round" stroke-linejoin="round" stroke-miterlimit="10" d="
				M143.6,84.9c0,0-0.4-1.2-1.3-1.1c-0.8,0-1.1,1.4-0.6,2.6c0.5,1.2,1.7,1.9,2.3,2.3c0.6,0.4,2,1.2,2.2,1.4c0.2,0.2,0.3-0.7,0.6-1.4
				c0.3-0.7,0.5-3-0.2-4.1c-0.7-1.1-2.1-1.9-2.6-1.5C143.7,83.4,143.6,84.9,143.6,84.9z"/>
			
				<path fill="none" stroke="#263238" stroke-width="0.2383" stroke-linecap="round" stroke-linejoin="round" stroke-miterlimit="10" d="
				M143.8,85.2c0,0-0.1,0.3,0.5,1.1s1.7,1.6,1.8,2.5"/>
			
				<path fill="none" stroke="#263238" stroke-width="0.2383" stroke-linecap="round" stroke-linejoin="round" stroke-miterlimit="10" d="
				M144.1,85.1c0,0,2-0.3,2.6,0"/>
			
				<path fill="none" stroke="#263238" stroke-width="0.2383" stroke-linecap="round" stroke-linejoin="round" stroke-miterlimit="10" d="
				M143.8,85.6c0,0-0.8,0.7-0.9,1.4"/>
			
				<path fill="none" stroke="#263238" stroke-width="0.2383" stroke-linecap="round" stroke-linejoin="round" stroke-miterlimit="10" d="
				M144.5,86.6c0,0-0.3,0.7-0.2,1.2"/>
			
				<path fill="none" stroke="#263238" stroke-width="0.2383" stroke-linecap="round" stroke-linejoin="round" stroke-miterlimit="10" d="
				M145.2,87.2c0,0,1.1,0.1,1.3,0.6"/>
		</g>
		<g>
			
				<path fill="#92E3A9" stroke="#263238" stroke-width="0.2383" stroke-linecap="round" stroke-linejoin="round" stroke-miterlimit="10" d="
				M140.7,85c0,0,0.7-0.4,0.3-0.8c-0.4-0.5-1.1-0.3-1.8-0.1c-0.7,0.2-0.6,0.5-2.5,0.5c-1.9,0-2.5,0.4-2.5,0.4s1,0,1.6,0.5
				c0.6,0.5,3.6,1,4.4,1.1c0.8,0.1,1.8-0.3,1.9-0.9C142.3,84.9,140.7,85,140.7,85z"/>
			
				<path fill="none" stroke="#263238" stroke-width="0.2383" stroke-linecap="round" stroke-linejoin="round" stroke-miterlimit="10" d="
				M135.6,85c0,0,0.3,0.1,1.8,0.3c1.6,0.1,2.9-0.1,2.9-0.1s-0.8-0.3-1.3-0.5"/>
			
				<path fill="none" stroke="#263238" stroke-width="0.2383" stroke-linecap="round" stroke-linejoin="round" stroke-miterlimit="10" d="
				M137.9,84.9c0,0,0.9,0.2,1.3,0.4c0,0-0.8,0.3-1.6,0.2"/>
			
				<path fill="none" stroke="#263238" stroke-width="0.2383" stroke-linecap="round" stroke-linejoin="round" stroke-miterlimit="10" d="
				M140.4,85.1c0,0-0.4,0.7-0.7,0.8"/>
		</g>
	</g>
	<g>
		<path fill="#92E3A9" stroke="#263238" stroke-width="0.3178" stroke-miterlimit="10" d="M159.3,94.1l0.5,7.3l-8.6-0.6
			c0,0-2.2,1.6-2.8,1.9c-0.6,0.3-2.7,0.6-4.9,0.6c-2.2,0-2.8-0.2-2.8-0.7s0.7-1,0.7-1s-1.9-0.7-1.6-1.3c0.3-0.6,0.7-0.7,1.1-0.6
			c0.4,0.1,3.2,0.2,3.4,0.1c0.1,0,1-0.5,1.5-1c0.7-0.6,1.1-1.3,1.1-1.3s-0.7,0.1-1.6,0.1c-0.8,0-1.7-0.1-2.4-0.5
			c-0.5-0.3-1.4-1.2-0.3-1.3c0.7-0.1,1.5,0,2.3,0c0.8-0.1,2.1-0.4,2.9-0.4c0.8,0.1,2.7,0.2,2.7,0.2L159.3,94.1z"/>
		<path fill="none" stroke="#263238" stroke-width="0.3178" stroke-miterlimit="10" d="M141.4,101.6c0,0,2.1,0.5,2.7,0.5
			c0.7,0,2.2-0.9,2.2-0.9"/>
	</g>
	<path fill="#FFFFFF" stroke="#263238" stroke-width="0.3178" stroke-miterlimit="10" d="M163.6,80.9l0.1,3.3l7.9-0.5
		c0,0-0.2-4.4-1.5-6.3c-1.3-1.9-4.1-2-4.1-2"/>
</g>
<g>
	<g>
		<path fill="#C7C7C7" stroke="#263238" stroke-width="0.3178" stroke-miterlimit="10" d="M97.8,109.5c0,0,1.3,2,2.2,5.3
			c0.9,3.3,1.8,10.1,1.8,10.1l-6.9,2.6l-2.2-2.7l-5.5-6.1L97.8,109.5z"/>
		<line fill="none" stroke="#263238" stroke-width="0.3178" stroke-miterlimit="10" x1="99.9" y1="120.2" x2="94" y2="123.4"/>
		<line fill="none" stroke="#263238" stroke-width="0.3178" stroke-miterlimit="10" x1="100.7" y1="121.4" x2="95.7" y2="123.3"/>
		<path fill="none" stroke="#263238" stroke-width="0.3178" stroke-miterlimit="10" d="M99.5,115.4c0,0-1.7,2.7-2.3,3.9"/>
	</g>
	<path fill="#C7C7C7" stroke="#263238" stroke-width="0.3178" stroke-miterlimit="10" d="M96.5,119.8c0,0-8.5,13-10.4,14.8
		c-1.9,1.8-2.6,2.8-3.4,3.2c-0.8,0.4-3,1.7-7.9,2.1c-4.9,0.4-7.9-0.3-7.9-0.3s-0.7-1.2-0.5-4.6c0.2-3.4,1.4-13.3,4.4-18.4
		s8.1-8.9,12.9-10.5c4.8-1.6,6.1-1.3,6.1-1.3s5,1.1,6.6,2.3c1.5,1.1,2.7,5.3,2.7,5.3"/>
	<path fill="none" stroke="#263238" stroke-width="0.3178" stroke-miterlimit="10" d="M68.6,136.2c0,0,5.9,1.3,12.3,0.7"/>
	<path fill="none" stroke="#263238" stroke-width="0.3178" stroke-miterlimit="10" d="M74.9,135.7c0,0,3.8,0,7.2-0.8"/>
	<path fill="none" stroke="#263238" stroke-width="0.3178" stroke-miterlimit="10" d="M69.8,125.1c0,0,4.1,0.3,7.5-1.3"/>
	<path fill="none" stroke="#263238" stroke-width="0.3178" stroke-miterlimit="10" d="M77.6,124.8c0,0-2.2,1.4-4.4,1.8"/>
	<polygon fill="#FFFFFF" stroke="#263238" stroke-width="0.3178" stroke-miterlimit="10" points="103.1,128.4 107.6,142.3 
		103.3,144.3 100.6,139.5 	"/>
	<path fill="#FFFFFF" stroke="#263238" stroke-width="0.3178" stroke-miterlimit="10" d="M108,141.5l-6.4,3.3l5.5,4.7l5.6,3.1
		c0,0,0.8,1.7,1.1,1.3c0.3-0.5,0.7-1.1,0.5-1.9c-0.2-0.9-2.5-2.9-2.7-3.3c-0.3-0.3-1.8-1.8-1.8-1.8L108,141.5z"/>
	<g>
		<path fill="#FFFFFF" stroke="#263238" stroke-width="0.3178" stroke-miterlimit="10" d="M88.9,102.4L89,105c0,0-1.3-0.2-1.1,1.8
			c0.2,2,1.7,10.4,2.3,10.8c0.6,0.5,4.3-3.2,4.3-3.2s2.4,1.4,2.9,1c0.5-0.4,2.9-3,2.9-3s1.3-0.1,1.4-0.4c0.2-0.4,0.1-2.8,0.3-3.3
			c0.2-0.5,0.9-1.3,1.1-1.8c0.2-0.5,0.2-1.4,0.2-1.4l-14-3.6L88.9,102.4z"/>
		<path fill="#263238" stroke="#263238" stroke-width="0.3178" stroke-miterlimit="10" d="M89.1,102l-0.2,0.4L89,105
			c0,0,0.3,0.7,1.5,0.2c1.2-0.5,1.8-1.2,1.8-1.2l1,0.5l0.4-0.1c0,0,1.2,0.9,1.5,0.7c0.2-0.1,1.1-0.7,1.7-1.2L89.1,102z"/>
		<path fill="#FFFFFF" stroke="#263238" stroke-width="0.3178" stroke-miterlimit="10" d="M94,105.4c0,0-0.5-2.9-1.8-2.5
			c-1.4,0.4-1,3-0.6,3.7c0.4,0.7,1.5,0.3,1.5,0.3"/>
		
			<path fill="#92E3A9" stroke="#263238" stroke-width="0.3178" stroke-linecap="round" stroke-linejoin="round" stroke-miterlimit="10" d="
			M89.2,99.7l-0.5,2.2l14.5,4.1c0,0,1.2-4.9,1-6c-0.2-1.1-3.2-3.3-5.7-3.8s-6.3-0.9-6.9-0.4c0,0-0.1,0.1-0.1,0.1
			C90.3,96.9,89.5,98.3,89.2,99.7z"/>
		<path fill="none" stroke="#263238" stroke-width="0.3178" stroke-miterlimit="10" d="M95.7,103.7c0,0,1.3-5.1,1.7-5.8
			c0.4-0.7,1.7-1,1.9-1"/>
		
			<path fill="#92E3A9" stroke="#263238" stroke-width="0.3178" stroke-linecap="round" stroke-linejoin="round" stroke-miterlimit="10" d="
			M96.4,104.1c0,0,2.3,3,3.9,3.3c1.7,0.4,6,1,6.5,0.9c0.5-0.1,1.3-0.2-0.3-0.9c-1.6-0.7-3.3-1.4-3.3-1.4L96.4,104.1z"/>
		
			<ellipse transform="matrix(0.9415 0.337 -0.337 0.9415 42.3755 -27.1803)" fill="#263238" cx="99.5" cy="108.5" rx="0.4" ry="0.7"/>
		<path fill="none" stroke="#263238" stroke-width="0.3178" stroke-miterlimit="10" d="M97,111.3c0,0,0.3,1,1.5,1.6"/>
		<path fill="none" stroke="#263238" stroke-width="0.3178" stroke-miterlimit="10" d="M94.4,114.4c0,0-1.5-1-2-1.9
			c-0.5-0.9-0.4-2.5-0.4-2.5"/>
		<path fill="none" stroke="#263238" stroke-width="0.3178" stroke-miterlimit="10" d="M89,105c0,0-0.1,1.1,0.5,1.5"/>
	</g>
	<path fill="#263238" stroke="#263238" stroke-width="0.3178" stroke-miterlimit="10" d="M66.9,139.5l5.6,9.8c0,0-7.1-2.8-8.9-3.4
		c-1.8-0.6-2.7,0.1-2.9,1.9c-0.3,1.9-0.5,3.6-0.5,5.6c-0.1,1.9-0.5,7.4,0.7,8c1.1,0.5,5.4,0.9,6.2,0.5c0.8-0.3,1.1-1.5,1-2.3
		s-0.9-1.2-0.9-1.7c-0.1-0.5,0.3-2.9,0.3-2.9s8,4.8,11.4,6c3.4,1.3,6,1.7,7.2,1c1.3-0.7,2.3-1.4,2.5-2.3c0.2-0.9-2.5-14.1-2.5-14.1
		l5.4,0.7c0,0-1.9,13.4-1.8,13.9c0.1,0.5,0.1,1.2,1.1,1.5c1.1,0.3,1.9,0.2,2.5,0.1c0.5-0.1,1.2-0.5,1.5-0.5c0.3,0,0.3,0.5,2.2,0.5
		c1.9,0,8.1,0.4,8.8-0.3c0.7-0.7,0.7-1.9,0.3-2.5c-0.5-0.6-4.2-1.3-4.8-1.6c-0.5-0.3-2.6-2.3-2.7-2.5c-0.1-0.2,4.8-25.3,4.8-25.7
		c0.1-0.4,0.2-2.9-0.8-4.1c-1-1.2-4.4-1.9-5.5-1.6c-1.1,0.3-6.5,4.7-6.5,4.7l-7.8,8.9c0,0-6,1.5-9.4,1.9
		C70,139.4,66.9,139.5,66.9,139.5z"/>
	<line fill="none" stroke="#696969" stroke-width="0.3178" stroke-miterlimit="10" x1="92.6" y1="129.6" x2="91.7" y2="140"/>
	<g>
		<path fill="#FFFFFF" stroke="#263238" stroke-width="0.3178" stroke-miterlimit="10" d="M101.2,157.9c-0.5-0.3-2.6-2.3-2.7-2.5
			c0-0.1,0.9-4.8,1.9-10.2l-8.8-0.3l-0.3,2c0,0-1.9,13.4-1.8,13.9c0.1,0.5,0.1,1.2,1.1,1.5c1.1,0.3,1.9,0.2,2.5,0.1
			c0.5-0.1,1.2-0.5,1.5-0.5c0.3,0,0.3,0.5,2.2,0.5c1.9,0,8.1,0.4,8.8-0.3c0.7-0.7,0.7-1.9,0.3-2.5
			C105.5,158.9,101.7,158.2,101.2,157.9z"/>
		<path fill="#FFFFFF" stroke="#263238" stroke-width="0.3178" stroke-miterlimit="10" d="M93.2,162.4c0.5-0.1,1.2-0.5,1.5-0.5
			c0.3,0,0.3,0.5,2.2,0.5c1.9,0,8.1,0.4,8.8-0.3c0.1-0.1,0.2-0.3,0.3-0.5c-1,0-2.1,0-3.3,0.1c-5.8,0.2-5.5-0.3-7.6-0.4
			c-2.2-0.2-5.5-0.4-5.5-0.4c0.1,0.5,0.1,1.2,1.1,1.5C91.8,162.5,92.6,162.4,93.2,162.4z"/>
	</g>
	<line fill="none" stroke="#696969" stroke-width="0.3178" stroke-miterlimit="10" x1="72.6" y1="149.4" x2="78.7" y2="158.1"/>
	<path fill="none" stroke="#696969" stroke-width="0.3178" stroke-miterlimit="10" d="M77.6,158.1c0,0,2.1,1.8,2.7,1.8"/>
	<path fill="none" stroke="#696969" stroke-width="0.3178" stroke-miterlimit="10" d="M76.4,156.6c0,0-0.2,1.4,1.6,3.1"/>
	<g>
		<path fill="#FFFFFF" stroke="#263238" stroke-width="0.3178" stroke-miterlimit="10" d="M63.7,145.9c-1.8-0.6-2.7,0.1-2.9,1.9
			s-0.5,3.6-0.5,5.6c-0.1,1.9-0.5,7.9,0.7,8.4c1.1,0.5,5.4,0.9,6.2,0.5c0.8-0.3,1.1-1.5,1-2.3c-0.1-0.8-0.9-1.2-0.9-1.7
			c-0.1-0.5,0.3-3.4,0.3-3.4s1.8,1.1,4,2.3l2.2-6.5l-1.4-1.7C70.8,148.6,65.2,146.5,63.7,145.9z"/>
		<path fill="#FFFFFF" stroke="#263238" stroke-width="0.3178" stroke-miterlimit="10" d="M63.7,145.9c-1.8-0.6-2.7,0.1-2.9,1.9
			s-0.5,3.6-0.5,5.6c-0.1,1.9-0.5,7.9,0.7,8.4c1.1,0.5,5.4,0.9,6.2,0.5c0.2-0.1,0.3-0.2,0.4-0.3c-1.1,0.1-3,0.1-4.1-0.2
			c-1.6-0.4-2.1-0.7-2.3-1.5c-0.2-0.8,0.1-10.4,0.6-12.3C62.1,146.3,63.7,145.9,63.7,145.9z"/>
	</g>
	<line fill="none" stroke="#263238" stroke-width="0.3178" stroke-miterlimit="10" x1="86" y1="145.8" x2="85.1" y2="142.6"/>
	<path fill="none" stroke="#696969" stroke-width="0.3178" stroke-miterlimit="10" d="M78.2,140c0,0,4.2,1.3,5.5,2.4"/>
	<path fill="none" stroke="#696969" stroke-width="0.3178" stroke-miterlimit="10" d="M75.2,140.7c0,0,3.1-0.1,5.4,1.5"/>
	<line fill="none" stroke="#696969" stroke-width="0.3178" stroke-miterlimit="10" x1="91.6" y1="130.7" x2="92.1" y2="134.7"/>
	<path fill="#92E3A9" stroke="#263238" stroke-width="0.3178" stroke-miterlimit="10" d="M113.6,154.8c0.9,5-3.3,9.3-8.3,8.3
		c-2.8-0.5-5-2.8-5.6-5.6c-0.9-5,3.3-9.3,8.3-8.3C110.8,149.7,113.1,152,113.6,154.8z"/>
	<g>
		<polygon fill="#92E3A9" points="106.7,162.5 105.9,162.3 105,162.5 104.2,162.3 103.3,162.5 102.4,162.3 101.6,162.5 100.7,162.3 
			99.8,162.5 99,162.3 98.1,162.5 97.2,162.3 96.4,162.5 95.5,162.3 94.6,162.5 93.8,162.3 92.9,162.5 92,162.3 91.2,162.5 
			90.3,162.3 89.4,162.5 88.6,162.3 87.7,162.5 86.8,162.3 85.9,162.5 85.1,162.3 84.2,162.5 83.3,162.3 82.5,162.5 81.6,162.3 
			80.7,162.5 79.9,162.3 79,162.5 78.1,162.3 77.3,162.5 76.4,162.3 75.5,162.5 74.7,162.3 73.8,162.5 72.9,162.3 72.1,162.5 
			71.2,162.3 70.3,162.5 69.5,162.3 68.6,162.5 67.7,162.3 66.9,162.5 66,162.3 65.1,162.5 64.3,162.3 63.4,162.5 62.5,162.3 
			61.7,162.5 60.8,162.3 59.9,162.5 59.1,162.3 58.2,162.5 57.3,162.3 56.5,162.5 55.6,162.3 54.7,162.5 53.9,162.3 53,162.5 
			52.1,162.3 51.3,162.5 50.4,162.3 49.5,162.5 48.7,162.3 47.8,162.5 46.9,162.3 46.1,162.5 45.2,162.3 44.3,162.5 43.5,162.3 
			42.6,162.5 41.7,162.3 40.9,162.5 40,162.3 39.1,162.5 38.3,162.3 37.4,162.5 36.5,162.3 35.7,162.5 34.8,162.3 33.9,162.5 
			33.1,162.3 32.2,162.5 31.3,162.3 30.5,162.5 29.6,162.3 28.7,162.5 27.9,162.3 27,162.5 26.1,162.3 25.3,162.5 24.7,162.3 
			24.7,163.2 106.7,163.2 		"/>
		<polyline fill="none" stroke="#263238" stroke-width="0.3178" stroke-miterlimit="10" points="106.8,162.4 105.9,162.3 105,162.5 
			104.2,162.3 103.3,162.5 102.4,162.3 101.6,162.5 100.7,162.3 99.8,162.5 99,162.3 98.1,162.5 97.2,162.3 96.4,162.5 95.5,162.3 
			94.6,162.5 93.8,162.3 92.9,162.5 92,162.3 91.2,162.5 90.3,162.3 89.4,162.5 88.6,162.3 87.7,162.5 86.8,162.3 85.9,162.5 
			85.1,162.3 84.2,162.5 83.3,162.3 82.5,162.5 81.6,162.3 80.7,162.5 79.9,162.3 79,162.5 78.1,162.3 77.3,162.5 76.4,162.3 
			75.5,162.5 74.7,162.3 73.8,162.5 72.9,162.3 72.1,162.5 71.2,162.3 70.3,162.5 69.5,162.3 68.6,162.5 67.7,162.3 66.9,162.5 
			66,162.3 65.1,162.5 64.3,162.3 63.4,162.5 62.5,162.3 61.7,162.5 60.8,162.3 59.9,162.5 59.1,162.3 58.2,162.5 57.3,162.3 
			56.5,162.5 55.6,162.3 54.7,162.5 53.9,162.3 53,162.5 52.1,162.3 51.3,162.5 50.4,162.3 49.5,162.5 48.7,162.3 47.8,162.5 
			46.9,162.3 46.1,162.5 45.2,162.3 44.3,162.5 43.5,162.3 42.6,162.5 41.7,162.3 40.9,162.5 40,162.3 39.1,162.5 38.3,162.3 
			37.4,162.5 36.5,162.3 35.7,162.5 34.8,162.3 33.9,162.5 33.1,162.3 32.2,162.5 31.3,162.3 30.5,162.5 29.6,162.3 28.7,162.5 
			27.9,162.3 27,162.5 26.1,162.3 25.3,162.5 24.7,162.3 24.7,163.2 107.3,163.2 		"/>
	</g>
	<ellipse fill="#92E3A9" stroke="#263238" stroke-width="0.3178" stroke-miterlimit="10" cx="106.4" cy="156" rx="6.7" ry="6.4"/>
	<path fill="none" stroke="#263238" stroke-width="0.3178" stroke-miterlimit="10" d="M111.7,152.2c1.5,3.1,0.2,6.9-2.9,8.3
		c-2.5,1.2-5.5,0.1-6.7-2.4c-1-2-0.1-4.4,1.9-5.3c1.6-0.8,3.5-0.1,4.3,1.5c0.6,1.3,0.1,2.8-1.2,3.4c-1,0.5-2.2,0.1-2.7-1
		c-0.4-0.8,0-1.8,0.8-2.2c0.7-0.3,1.4,0,1.7,0.6c0.2,0.5,0,1.2-0.5,1.4c-0.4,0.2-0.9,0-1.1-0.4"/>
	<g>
		<path fill="#C7C7C7" stroke="#263238" stroke-width="0.3178" stroke-miterlimit="10" d="M77.9,114.1c0,0-1.7,3-1.3,4.4
			c0.4,1.4,1.3,9.3,1.3,9.3l9-0.5c0,0,1-6.7,1-6.9s1.3-3.6,0-5.9c-1.3-2.3-2.9-2.1-2.9-2.1"/>
		<line fill="none" stroke="#263238" stroke-width="0.3178" stroke-miterlimit="10" x1="78.1" y1="125.4" x2="86.2" y2="124.8"/>
		<line fill="none" stroke="#263238" stroke-width="0.3178" stroke-miterlimit="10" x1="86.8" y1="123.8" x2="82.9" y2="124"/>
		<path fill="#FFFFFF" stroke="#263238" stroke-width="0.3178" stroke-miterlimit="10" d="M86.9,127.3l-0.5,4.6l9.9,11.7l-2.5,3.2
			c0,0-13-9-13.6-9.4c-0.6-0.4-2.3-9.6-2.3-9.6L86.9,127.3z"/>
		<g>
			<path fill="#FFFFFF" stroke="#263238" stroke-width="0.3178" stroke-miterlimit="10" d="M96.1,142.4l-3.7,5.3
				c0,0,6.9,2.4,7.4,2.6c0.5,0.2,1.9,0.5,3.3,0.1c1.3-0.4,3-0.5,3-0.5s3.1,0.8,3.4,0.8c0.3,0.1,0.6-0.5,0.6-0.5s0.5-0.1,0.5-0.6
				c-0.1-0.5-1.4-2-2.2-2.8c-0.8-0.8-1-0.9-2.1-0.9c-1.1,0.1-4.9,0.6-4.9,0.6L96.1,142.4z"/>
			<path fill="none" stroke="#263238" stroke-width="0.3178" stroke-miterlimit="10" d="M110,150.2c0,0-1.9-1.2-2.5-1.5
				c-0.6-0.2-3.3-0.1-3.3-0.1"/>
			<path fill="none" stroke="#263238" stroke-width="0.3178" stroke-miterlimit="10" d="M105.3,147.3c0,0,2.3,0.1,3,0.3
				c0.7,0.3,2,1.3,2,1.3"/>
		</g>
	</g>
</g>
</svg>
