<?xml version="1.0" encoding="utf-8"?>
<!-- Generator: Adobe Illustrator 18.1.1, SVG Export Plug-In . SVG Version: 6.00 Build 0)  -->
<svg version="1.1" id="Layer_1" xmlns="http://www.w3.org/2000/svg" xmlns:xlink="http://www.w3.org/1999/xlink" 
    x="0px" y="0px" viewBox="0 0 100 100" xml:space="preserve" width="150" height="150">
<path fill="#B2D78E" d="M48.8,9.5c-4.6,0-9.1,0.8-13.3,2.1C45.8,28.4,64.1,34,82.1,26.2C74.3,15.7,62.1,9.5,48.8,9.5z"/>
<path fill="#96BD6F" d="M69.7,21.1c-11.4-3.6-22.2-5.6-31.8-6.1c10.5,14,27.5,18.3,44.3,11c-0.2-0.2-0.2-0.2-0.3-0.3
	C78.1,24.1,74,22.6,69.7,21.1z"/>
<path fill="#B2D78E" d="M33.3,14.2C32.5,30,40.7,42.7,54.7,49.9c2.8-6.1,4.6-13.7,4.6-19.4C48.6,28.1,39.3,23.1,33.3,14.2z"/>
<path fill="#96BD6F" d="M38.1,19.8c-1.8-1.6-3.5-3.6-4.8-5.8c-0.8,15.6,7.4,28.5,21.2,35.7c-3.3-8.7-8.2-18.1-14.8-27.5
	C39.3,21.5,38.8,20.6,38.1,19.8z"/>
<path fill="#7CA640" d="M49.1,5.8C24.8,5.8,5.2,25.6,5.2,49.9c0,12.2,4.9,23.2,12.8,31.1c7.9,8.1,18.9,13,31.1,13
	s23.2-4.9,31.1-12.8s12.8-18.9,12.8-31.1C93.2,25.6,73.5,5.8,49.1,5.8z M34.3,15.5C39.9,23.8,48,29.7,57.5,32c0,5.3-1,10.7-3.6,16.3
	C41.2,41.9,33.5,30,34.3,15.5z M89.5,49.9c0,11-4.4,21.1-11.9,28.5c-5.1,5.1-7.7,5.8-14.6,3.5c-3-2.6-4.4-5.9-4.6-9.7
	c-5.6-3-12.2-4.8-18.9-4.8c-6.3,0-12.3,1.5-17.6,4.1c1.8-1.2,3.6-2.1,5.4-3c-3.8-1.2-7.7-1.8-11.7-1.8c-1,0-1.8,0-2.8,0.2
	c-2.3-5.1-3.6-10.7-3.6-16.8c0-15.1,8.4-28.8,21.7-35.7c-1.6,17.8,8.4,31.9,24.9,39c4-7.1,5.6-14,5.6-20.6
	c6.9,0.8,14.5-0.2,22.2-3.6C87.3,35.1,89.5,42.4,89.5,49.9z M36.3,11.8c4.1-1.3,8.4-2.1,12.8-2.1c12.8,0,24.7,6.1,32.3,16.3
	C63.9,33.5,46.3,28.1,36.3,11.8z"/>
<path fill="#7CA640" d="M99,31.5l-6.9-4c-1-0.5-2.1-0.2-2.6,0.7c-0.5,1-0.2,2.1,0.7,2.6l1.8,1L74,63.1c-3-1.6-5.8-3.3-8.9-4.9
	c-6.7,11.2-7.4,19.9-0.8,25.7c2.3,0.8,4.4,1,6.6,0.5c5.6-1,10.7-5.8,15.3-14.2c-3-1.8-5.9-3.6-8.7-5.3l17.9-31.1l1.8,1
	c1,0.5,2.1,0.2,2.6-0.7C100.2,33.3,99.8,32.2,99,31.5z"/>
<path fill="#7CA640" d="M36.8,52.3c-0.5-1-1.6-1.3-2.6-0.7l-7.6,4.3L8,23.8L9.5,23c1-0.5,1.3-1.6,0.7-2.6c-0.5-1-1.6-1.3-2.6-0.7
	l-3.1,1.8l-3.1,1.8c-1,0.5-1.3,1.6-0.7,2.6c0.5,1,1.6,1.3,2.6,0.7l1.5-0.8l18.4,32.1l-7.6,4.4c-1,0.5-1.3,1.6-0.7,2.6l2.8,4.8
	c0.5,1,1.6,1.3,2.6,0.7c1-0.5,1.3-1.6,0.7-2.6l-1.8-3.1l5.9-3.5l5.1,8.9c0.5,1,1.6,1.3,2.6,0.7c1-0.5,1.3-1.6,0.7-2.6l-5.1-8.9
	l5.9-3.5l7.9,13.8c0.5,1,1.6,1.3,2.6,0.7c1-0.5,1.3-1.6,0.7-2.6L36.8,52.3z"/>
</svg>
